<?xml version="1.0" encoding="UTF-8" standalone="no"?>
<!-- Created with Inkscape (http://www.inkscape.org/) -->

<svg
   xmlns:dc="http://purl.org/dc/elements/1.1/"
   xmlns:cc="http://creativecommons.org/ns#"
   xmlns:rdf="http://www.w3.org/1999/02/22-rdf-syntax-ns#"
   xmlns:svg="http://www.w3.org/2000/svg"
   xmlns="http://www.w3.org/2000/svg"
   xmlns:sodipodi="http://sodipodi.sourceforge.net/DTD/sodipodi-0.dtd"
   xmlns:inkscape="http://www.inkscape.org/namespaces/inkscape"
   width="200"
   height="200"
   viewBox="0 0 52.916665 52.916668"
   version="1.1"
   id="svg6322"
   inkscape:version="0.92.1 r15371"
   sodipodi:docname="Bateria.svg">
  <defs
     id="defs6316" />
  <sodipodi:namedview
     id="base"
     pagecolor="#ffffff"
     bordercolor="#666666"
     borderopacity="1.0"
     inkscape:pageopacity="0.0"
     inkscape:pageshadow="2"
     inkscape:zoom="5.6"
     inkscape:cx="29.143459"
     inkscape:cy="61.554217"
     inkscape:document-units="px"
     inkscape:current-layer="layer1"
     showgrid="false"
     units="px"
     inkscape:pagecheckerboard="true"
     inkscape:window-width="1920"
     inkscape:window-height="1001"
     inkscape:window-x="-9"
     inkscape:window-y="-9"
     inkscape:window-maximized="1" />
  <metadata
     id="metadata6319">
    <rdf:RDF>
      <cc:Work
         rdf:about="">
        <dc:format>image/svg+xml</dc:format>
        <dc:type
           rdf:resource="http://purl.org/dc/dcmitype/StillImage" />
        <dc:title></dc:title>
      </cc:Work>
    </rdf:RDF>
  </metadata>
  <g
     inkscape:label="Camada 1"
     inkscape:groupmode="layer"
     id="layer1"
     transform="translate(0,-244.08332)">
    <path
       style="fill:#1a1a1a;stroke:none;stroke-width:0.26458332px;stroke-linecap:butt;stroke-linejoin:miter;stroke-opacity:1"
       d="m 0.13229166,257.18019 v 39.6875 H 23.944792 v -39.6875 z"
       id="path6867-2"
       inkscape:connector-curvature="0"
       sodipodi:nodetypes="ccccc" />
    <path
       style="fill:#a0892c;stroke:none;stroke-width:0.26458332px;stroke-linecap:butt;stroke-linejoin:miter;stroke-opacity:1"
       d="m 0,261.28124 v 30.42708 h 23.8125 v -30.42708 z"
       id="path6867-7"
       inkscape:connector-curvature="0"
       sodipodi:nodetypes="ccccc" />
    <path
       style="fill:none;stroke:#000000;stroke-width:0.11218333;stroke-linecap:butt;stroke-linejoin:miter;stroke-opacity:1;stroke-miterlimit:4;stroke-dasharray:none"
       d="M 23.944792,257.31249 23.8125,267.89582 c -0.853596,-0.25671 -1.848934,-1.22212 -1.852083,-2.11667 l 2e-6,-8.46666 z"
       id="path6884"
       inkscape:connector-curvature="0"
       sodipodi:nodetypes="ccccc" />
    <path
       style="fill:#554400;stroke:none;stroke-width:0.26458332px;stroke-linecap:butt;stroke-linejoin:miter;stroke-opacity:1"
       d="m 4.7625,296.99999 v -3.96875 H 2.1166667 v 3.96875 z"
       id="path6886"
       inkscape:connector-curvature="0"
       sodipodi:nodetypes="ccccc" />
    <path
       style="fill:#554400;stroke:none;stroke-width:0.26458332px;stroke-linecap:butt;stroke-linejoin:miter;stroke-opacity:1"
       d="m 10.847916,296.99999 v -3.96875 H 8.2020833 v 3.96875 z"
       id="path6886-1"
       inkscape:connector-curvature="0"
       sodipodi:nodetypes="ccccc" />
    <path
       style="fill:#554400;stroke:none;stroke-width:0.26458332px;stroke-linecap:butt;stroke-linejoin:miter;stroke-opacity:1"
       d="m 7.8052081,296.99999 v -3.96875 H 5.159375 v 3.96875 z"
       id="path6886-4"
       inkscape:connector-curvature="0"
       sodipodi:nodetypes="ccccc" />
    <circle
       style="fill:none;fill-opacity:0.81220655;stroke:#000000;stroke-width:0.12109384;stroke-miterlimit:4;stroke-dasharray:none"
       id="path6909"
       cx="22.092709"
       cy="295.54477"
       r="0.86549473" />
    <text
       xml:space="preserve"
       style="font-style:normal;font-variant:normal;font-weight:normal;font-stretch:normal;font-size:10.58333302px;line-height:1.25;font-family:QuigleyWiggly;-inkscape-font-specification:QuigleyWiggly;letter-spacing:0px;word-spacing:0px;fill:#000000;fill-opacity:1;stroke:none;stroke-width:0.26458332"
       x="-35.413212"
       y="275.21753"
       id="text6913"><tspan
         sodipodi:role="line"
         id="tspan6911"
         x="-35.413212"
         y="284.91061"
         style="stroke-width:0.26458332" /></text>
    <text
       xml:space="preserve"
       style="font-style:normal;font-variant:normal;font-weight:normal;font-stretch:normal;font-size:4.32456684px;line-height:1.25;font-family:sans-serif;-inkscape-font-specification:sans-serif;letter-spacing:0px;word-spacing:0px;fill:#b3b3b3;fill-opacity:1;stroke:none;stroke-width:0.10811416;"
       x="10.695701"
       y="295.5549"
       id="text6921"
       transform="scale(0.99760863,1.0023971)"><tspan
         sodipodi:role="line"
         id="tspan6919"
         x="10.695701"
         y="295.5549"
         style="stroke-width:0.10811416;fill:#b3b3b3;">+</tspan></text>
    <text
       xml:space="preserve"
       style="font-style:normal;font-variant:normal;font-weight:normal;font-stretch:normal;font-size:10.58333302px;line-height:1.25;font-family:sans-serif;-inkscape-font-specification:sans-serif;letter-spacing:0px;word-spacing:0px;fill:#333333;fill-opacity:1;stroke:none;stroke-width:0.26458332;"
       x="2.1381564"
       y="268.20169"
       id="text6925"><tspan
         sodipodi:role="line"
         id="tspan6923"
         x="2.1381564"
         y="268.20169"
         style="font-size:7.05555534px;stroke-width:0.26458332;fill:#333333;">ÇONI</tspan></text>
    <path
       style="fill:none;stroke:#000000;stroke-width:0.02645833;stroke-linecap:butt;stroke-linejoin:miter;stroke-miterlimit:4;stroke-dasharray:none;stroke-opacity:1"
       d="m 3.4076865,274.41571 c -0.060083,-0.34209 0.2453168,-0.0892 0.3340868,-0.13363 0.028173,-0.0141 0.038645,-0.0527 0.066817,-0.0668 0.039842,-0.0199 0.093793,0.0199 0.1336348,0 0.028173,-0.0141 0.038645,-0.0527 0.066817,-0.0668 0.00746,-0.004 0.3266291,-0.004 0.3340869,0 0.028173,0.0141 0.038645,0.0527 0.066817,0.0668 0.01992,0.01 0.044545,0 0.066817,0 0.022273,0.0223 0.038645,0.0527 0.066817,0.0668 0.01992,0.01 0.051068,-0.0158 0.066817,0 0.015748,0.0157 -0.015748,0.0511 0,0.0668 0.015748,0.0158 0.044545,0 0.066818,0 0,0.0223 -0.015748,0.0511 0,0.0668 0.015748,0.0157 0.051068,-0.0157 0.066817,0 0.015748,0.0157 -0.00996,0.0469 0,0.0668 0.014086,0.0282 0.044545,0.0445 0.066817,0.0668 0.022273,0.0223 0.038645,0.0527 0.066817,0.0668 0.019921,0.01 0.046896,-0.01 0.066817,0 0.028173,0.0141 0.038645,0.0527 0.066817,0.0668 0.039842,0.0199 0.1021369,-0.0315 0.133635,0 0.015748,0.0157 -0.015748,0.0511 0,0.0668 0.00303,0.003 0.3025825,0 0.3340867,0 0.046474,0 0.3099237,0.0121 0.334087,0 0.028173,-0.0141 0.038645,-0.0527 0.066817,-0.0668 0.026492,-0.0133 0.1867921,0.0137 0.200452,0 0.015748,-0.0157 -0.015748,-0.0511 0,-0.0668 0.031498,-0.0315 0.1021368,0.0315 0.1336349,0 0.015748,-0.0157 -0.015748,-0.0511 0,-0.0668 0.031498,-0.0315 0.1021366,0.0315 0.1336347,0 0.015748,-0.0158 -0.015748,-0.0511 0,-0.0668 0.031498,-0.0315 0.1021369,0.0315 0.1336347,0 0.015748,-0.0157 -0.015748,-0.0511 0,-0.0668 0.033409,-0.0334 0.1670436,0.0334 0.2004523,0 0.015748,-0.0157 -0.015748,-0.0511 0,-0.0668 0.033409,-0.0334 0.1670434,0.0334 0.2004521,0 0.015748,-0.0157 -0.015748,-0.0511 0,-0.0668 0.015748,-0.0158 0.044545,0 0.066817,0 0.031504,0 0.3310586,0.003 0.334087,0 0.015748,-0.0158 -0.015748,-0.0511 0,-0.0668 0.015748,-0.0157 0.044545,0 0.066817,0 0.022273,0 0.044545,0 0.066817,0 0.1781797,0 0.3563593,0 0.534539,0 0.4009043,0 0.8018087,0 1.202713,0 0.4454491,0 0.8908986,0 1.3363476,0 0.133635,0 0.267269,0 0.400904,0 0.04454,0 0.08909,0 0.133635,0 0.02227,0 0.0469,0.01 0.06682,0 0.02817,-0.0141 0.03864,-0.0527 0.06682,-0.0668 0.01727,-0.009 0.353543,0 0.400904,0 0.02227,0 0.05107,0.0158 0.06682,0 0.01575,-0.0157 -0.01575,-0.0511 0,-0.0668 0.01575,-0.0157 0.04454,0 0.06682,0 0.02227,0 0.04455,0 0.06682,0 0.200452,0 0.400904,0 0.601356,0 0.01621,0 0.198303,0.002 0.200452,0 0.01575,-0.0157 -0.01575,-0.0511 0,-0.0668 0.01575,-0.0158 0.04454,0 0.06682,0 0.155907,0 0.311814,0 0.467721,0 0.03494,0 0.249701,-0.009 0.26727,0 0.02817,0.0141 0.03864,0.0527 0.06682,0.0668 0.05345,0.0267 0.146998,-0.0267 0.200452,0 0.02817,0.0141 0.03865,0.0527 0.06682,0.0668 0.01992,0.01 0.04454,0 0.06682,0 0.02227,0 0.04455,0 0.06682,0 0.111363,0 0.222725,0 0.334087,0 0.26727,0 0.534539,0 0.801809,0 0.04647,0 0.309923,0.0121 0.334087,0 0.02817,-0.0141 0.03864,-0.0527 0.06682,-0.0668 0.02034,-0.0102 0.170361,0 0.200452,0 0.133635,0 0.26727,0 0.400905,0 0.111362,0 0.222724,0 0.334087,0 0.02227,0 0.05107,0.0158 0.06682,0 0.01575,-0.0157 -0.01575,-0.0511 0,-0.0668 0.0027,-0.003 0.242732,0 0.26727,0 0.178179,0 -0.02227,0.0223 0.06682,-0.0668 0.003,-0.003 0.302583,0 0.334087,0 0.02227,0 0.05107,-0.0157 0.06682,0 0.01575,0.0157 -0.01575,0.0511 0,0.0668 0.0315,0.0315 0.09379,-0.0199 0.133635,0 0.02817,0.0141 0.03864,0.0527 0.06682,0.0668 0.03625,0.0181 0.248987,-0.0183 0.26727,0 0.01575,0.0158 -0.01575,0.0511 0,0.0668 0.0021,0.002 0.184247,0 0.200452,0 0.111362,0 0.222725,0 0.334087,0 0.02227,0 0.05107,-0.0157 0.06682,0 0.01575,0.0158 -0.01575,0.0511 0,0.0668 0.01575,0.0157 0.04454,0 0.06682,0 0.02227,0 0.04454,0 0.06682,0 0.02227,0 0.05107,-0.0157 0.06682,0 0.01575,0.0157 -0.01575,0.0511 0,0.0668 0.0315,0.0315 0.09379,-0.0199 0.133634,0 0.02817,0.0141 0.03864,0.0527 0.06682,0.0668 0.02033,0.0102 0.17036,0 0.200452,0 0.02227,0 0.05107,0.0158 0.06682,0 0.01575,-0.0157 -0.01575,-0.0511 0,-0.0668 0.01575,-0.0158 0.04454,0 0.06682,0 0.02227,0 0.04454,0 0.06682,0 0.133635,0 0.267269,0 0.400904,0 0.03009,0 0.180117,0.0102 0.200452,0 0.02817,-0.0141 0.03864,-0.0527 0.06682,-0.0668 0.01727,-0.009 0.353544,0 0.400904,0 0.133635,0 0.26727,0 0.400904,0 0.02227,0 0.05107,0.0157 0.06682,0 0.01575,-0.0157 -0.01575,-0.0511 0,-0.0668 0.01575,-0.0157 0.04454,0 0.06682,0 0.02227,0 0.05107,-0.0157 0.06682,0 0.01575,0.0158 -0.01575,0.0511 0,0.0668 0.01575,0.0157 0.04454,0 0.06682,0 0.02227,0 0.04454,0 0.06682,0"
       id="path6927"
       inkscape:connector-curvature="0" />
    <path
       style="fill:none;stroke:#000000;stroke-width:0.02645833;stroke-linecap:butt;stroke-linejoin:miter;stroke-miterlimit:4;stroke-dasharray:none;stroke-opacity:1"
       d="m 3.8085907,276.21978 c 0.082588,0.54153 0.3678159,1.3e-4 0.5345391,0.0668 0.092481,0.037 0.1747883,0.0966 0.2672694,0.13363 0.055892,0.0224 0.1468366,-0.0268 0.2004523,0 0.028173,0.0141 0.038645,0.0527 0.066817,0.0668 0.053454,0.0267 0.1469983,-0.0267 0.2004521,0 0.028173,0.0141 0.038645,0.0527 0.066818,0.0668 0.042153,0.0211 0.2919338,-0.0211 0.3340867,0 0.028173,0.0141 0.038645,0.0527 0.066817,0.0668 0.01992,0.01 0.044545,0 0.066817,0 0.022273,0 0.044545,0 0.066818,0 0.1113623,0 0.2227244,0 0.3340867,0 0.022273,0 0.044545,0 0.066817,0 0.022273,0 0.051069,-0.0158 0.066818,0 0.015748,0.0157 -0.015748,0.0511 0,0.0668 0.015748,0.0158 0.044545,0 0.066817,0 0.1336347,0 0.2672694,0 0.4009044,0 0.022273,0 0.044545,0 0.066817,0 0.022273,0 0.051068,-0.0157 0.066817,0 0.015748,0.0158 -0.015748,0.0511 0,0.0668 0.016079,0.0161 0.2511911,-0.0161 0.2672693,0 0.015748,0.0157 -0.015748,0.0511 0,0.0668 0.015748,0.0157 0.044545,0 0.066817,0 0.022273,0 0.044545,0 0.066818,0 0.03494,0 0.2497003,-0.009 0.2672694,0 0.028173,0.0141 0.038645,0.0527 0.066817,0.0668 0.020336,0.0102 0.1703605,0 0.2004523,0 0.1336347,0 0.2672694,0 0.4009044,0 0.03494,0 0.2497002,0.009 0.2672693,0 0.028173,-0.0141 0.038645,-0.0527 0.066817,-0.0668 0.039842,-0.0199 0.1021368,0.0315 0.1336347,0 0.015748,-0.0158 -0.015748,-0.0511 0,-0.0668 0.031498,-0.0315 0.1021368,0.0315 0.1336349,0 0.015748,-0.0157 -0.015748,-0.0511 0,-0.0668 0.033409,-0.0334 0.1670434,0.0334 0.2004521,0 0.015748,-0.0157 -0.015748,-0.0511 0,-0.0668 0.033409,-0.0334 0.1670436,0.0334 0.2004523,0 0.015748,-0.0158 -0.015748,-0.0511 0,-0.0668 0.00269,-0.003 0.2427316,0 0.2672693,0 0.2449971,0 0.4899941,0 0.7349916,0 0.04647,0 0.309923,0.0121 0.334086,0 0.02817,-0.0141 0.03865,-0.0527 0.06682,-0.0668 0.01992,-0.01 0.0469,0.01 0.06682,0 0.02817,-0.0141 0.03865,-0.0527 0.06682,-0.0668 0.01992,-0.01 0.04455,0 0.06682,0 0.04454,0 0.09138,0.0141 0.133635,0 0.02988,-0.01 0.03694,-0.0568 0.06682,-0.0668 0.08356,-0.0279 0.384167,0.0278 0.467722,0 0.02988,-0.01 0.03864,-0.0527 0.06682,-0.0668 0.03942,-0.0197 0.154493,0.0153 0.200452,0 0.04725,-0.0157 0.08639,-0.0511 0.133635,-0.0668 0.03891,-0.013 0.354929,0 0.400904,0 0.04647,0 0.309923,-0.0121 0.334087,0 0.02817,0.0141 0.03865,0.0527 0.06682,0.0668 0.042,0.021 0.225273,-0.021 0.26727,0 0.02817,0.0141 0.03865,0.0527 0.06682,0.0668 0.01992,0.01 0.04454,0 0.06682,0 0.02227,0 0.0469,0.01 0.06682,0 0.02817,-0.0141 0.03864,-0.0527 0.06682,-0.0668 0.01992,-0.01 0.04454,0 0.06682,0 0.02227,0 0.04454,0 0.06682,0 0.133635,0 0.26727,0 0.400904,0 0.03009,0 0.180118,0.0102 0.200452,0 0.02817,-0.0141 0.03865,-0.0527 0.06682,-0.0668 0.01992,-0.01 0.04455,0 0.06682,0 0.04736,0 0.383629,0.009 0.400904,0 0.02817,-0.0141 0.03865,-0.0527 0.06682,-0.0668 0.02034,-0.0102 0.17036,0 0.200452,0 0.02227,0 0.05107,-0.0157 0.06682,0 0.01575,0.0157 -0.01575,0.0511 0,0.0668 0.01575,0.0157 0.04454,0 0.06682,0 0.111362,0 0.222724,0 0.334087,0 0.801808,0 1.603617,0 2.405426,0 0.111362,0 0.222724,0 0.334086,0 0.02227,0 0.05107,-0.0157 0.06682,0 0.01575,0.0157 -0.01575,0.0511 0,0.0668 0.02345,0.0234 0.287934,-0.0231 0.334087,0 0.165132,0.0826 -0.02306,0.0668 0.133635,0.0668"
       id="path6929"
       inkscape:connector-curvature="0" />
    <path
       style="fill:none;stroke:#000000;stroke-width:0.02645833;stroke-linecap:butt;stroke-linejoin:miter;stroke-miterlimit:4;stroke-dasharray:none;stroke-opacity:1"
       d="m 6.0135642,278.09067 c 0.289542,0.0223 0.5785911,0.0523 0.8686261,0.0668 0.1779574,0.009 0.3563593,0 0.534539,0 0.4009043,0 0.8018086,0 1.202713,0 0.155907,0 0.3118143,0 0.4677217,0 0.030092,0 0.1801172,-0.0102 0.200452,0 0.028173,0.0141 0.038645,0.0527 0.066817,0.0668 0.026492,0.0133 0.1867924,-0.0137 0.2004523,0 0.031498,0.0315 -0.031498,0.10214 0,0.13364 0.015748,0.0157 0.051068,-0.0157 0.066817,0 0.031498,0.0315 -0.019921,0.0938 0,0.13363 0.014086,0.0282 0.052731,0.0386 0.066817,0.0668 0.019921,0.0398 -0.031498,0.10213 0,0.13363 0.015748,0.0157 0.051068,-0.0157 0.066817,0 0.031498,0.0315 -0.031498,0.10214 0,0.13364 0.018283,0.0183 0.231022,-0.0181 0.2672697,0 0.02817,0.0141 0.03865,0.0527 0.06682,0.0668 0.05345,0.0267 0.146998,-0.0267 0.200452,0 0.02817,0.0141 0.03865,0.0527 0.06682,0.0668 0.02034,0.0102 0.17036,0 0.200452,0 0.133635,0 0.267269,0 0.400904,0 0.01621,0 0.198303,0.002 0.200452,0 0.01575,-0.0157 -0.01575,-0.0511 0,-0.0668 0.0021,-0.002 0.184247,0 0.200452,0 0.02227,0 0.05107,-0.0157 0.06682,0 0.01575,0.0157 -0.01575,0.0511 0,0.0668 0.0067,0.007 0.19377,0.007 0.200452,0 0.01575,-0.0157 -0.01575,-0.0511 0,-0.0668 0.01575,-0.0157 0.04454,0 0.06682,0 0.04647,0 0.309924,0.0121 0.334087,0 0.02817,-0.0141 0.03865,-0.0527 0.06682,-0.0668 0.02973,-0.0149 0.236708,0.0102 0.267269,0 0.02988,-0.01 0.03865,-0.0527 0.06682,-0.0668 0.03942,-0.0197 0.154494,0.0153 0.200453,0 0.04725,-0.0157 0.08639,-0.0511 0.133634,-0.0668 0.04226,-0.0141 0.09379,0.0199 0.133635,0 0.02817,-0.0141 0.04454,-0.0445 0.06682,-0.0668 0.04454,0 0.09138,0.0141 0.133635,0 0.02988,-0.01 0.03864,-0.0527 0.06682,-0.0668 0.03984,-0.0199 0.09379,0.0199 0.133634,0 0.02817,-0.0141 0.03694,-0.0569 0.06682,-0.0668 0.04226,-0.0141 0.08909,0 0.133635,0 0.02227,0 0.0469,0.01 0.06682,0 0.02817,-0.0141 0.03864,-0.0527 0.06682,-0.0668 0.03984,-0.0199 0.09379,0.0199 0.133635,0 0.02817,-0.0141 0.03865,-0.0527 0.06682,-0.0668 0.05345,-0.0267 0.146999,0.0267 0.200453,0 0.02817,-0.0141 0.03864,-0.0527 0.06682,-0.0668 0.01992,-0.01 0.04455,0 0.06682,0 0.02227,0 0.04454,0 0.06682,0 0.111362,0 0.222724,0 0.334087,0 0.133634,0 0.267269,0 0.400904,0 0.03009,0 0.180117,-0.0102 0.200452,0 0.02817,0.0141 0.03864,0.0527 0.06682,0.0668 0.02034,0.0102 0.170361,0 0.200453,0 0.155907,0 0.311814,0 0.467721,0 0.156699,0 -0.0315,-0.0157 0.133635,0.0668 0.01992,0.01 0.04455,0 0.06682,0 0.02227,0 0.04454,0 0.06682,0 0.133635,0 0.267269,0 0.400904,0 0.111363,0 0.222725,0 0.334087,0 0.02227,0 0.04454,0 0.06682,0 0.02227,0 0.0469,0.01 0.06682,0 0.02817,-0.0141 0.03864,-0.0527 0.06682,-0.0668 0.01757,-0.009 0.232329,0 0.26727,0 0.03494,0 0.2497,-0.009 0.267269,0 0.02817,0.0141 0.03864,0.0527 0.06682,0.0668 0.03984,0.0199 0.09379,-0.0199 0.133634,0 0.02817,0.0141 0.03694,0.0569 0.06682,0.0668 0.06013,0.0201 0.140316,-0.0201 0.200452,0 0.04725,0.0157 0.08639,0.0511 0.133635,0.0668 0.06339,0.0211 0.13563,-0.0162 0.200452,0 0.04831,0.0121 0.08639,0.0511 0.133635,0.0668 0.071,0.0237 0.196268,-0.0237 0.267269,0 0.04725,0.0157 0.08532,0.0547 0.133635,0.0668 0.06482,0.0162 0.133635,0 0.200452,0 0.0567,0 0.364069,-0.0123 0.400904,0 0.02988,0.01 0.03694,0.0569 0.06682,0.0668 0.03246,0.0108 0.399504,0 0.467721,0 0.02227,0 0.0469,-0.01 0.06682,0 0.02817,0.0141 0.03693,0.0569 0.06682,0.0668 0.03909,0.013 0.343553,0 0.400904,0 0.04454,0 0.09138,-0.0141 0.133635,0 0.247699,0.0826 -0.08145,0.0668 0.133635,0.0668 0.02227,0 0.04455,0 0.06682,0 0.02227,0 0.06682,-0.0223 0.06682,0 0,0.0223 -0.05107,-0.0157 -0.06682,0 -0.01575,0.0157 0.01575,0.0511 0,0.0668 -0.0027,0.003 -0.242731,0 -0.267269,0"
       id="path6931"
       inkscape:connector-curvature="0" />
    <path
       style="fill:none;stroke:#000000;stroke-width:0.02645833;stroke-linecap:butt;stroke-linejoin:miter;stroke-miterlimit:4;stroke-dasharray:none;stroke-opacity:1"
       d="m 4.6103992,281.76562 c 0.2449973,-0.20045 0.4817504,-0.41142 0.7349913,-0.60135 0.035636,-0.0267 0.090151,0.01 0.1336347,0 0.1792899,-0.0398 0.3552492,-0.0938 0.534539,-0.13364 0.021741,-0.005 0.044545,0 0.066817,0 0.08909,0 0.1781797,0 0.2672696,0 0.030092,0 0.1801172,-0.0102 0.2004521,0 0.028173,0.0141 0.038645,0.0527 0.066818,0.0668 0.070555,0.0353 0.063079,-0.0353 0.1336347,0 0.028172,0.0141 0.038645,0.0527 0.066817,0.0668 0.036248,0.0181 0.2489867,-0.0183 0.2672694,0 0.015748,0.0157 -0.015748,0.0511 0,0.0668 0.015748,0.0157 0.046896,-0.01 0.066818,0 0.028173,0.0141 0.038645,0.0527 0.066817,0.0668 0.01992,0.01 0.046896,-0.01 0.066817,0 0.028173,0.0141 0.038645,0.0527 0.066817,0.0668 0.053454,0.0267 0.1469983,-0.0267 0.2004521,0 0.028173,0.0141 0.038645,0.0527 0.066818,0.0668 0.017275,0.009 0.3535439,0 0.400904,0 0.1559074,0 0.3118147,0 0.4677217,0 0.030092,0 0.1801175,0.0102 0.2004523,0 0.028173,-0.0141 0.038644,-0.0527 0.066817,-0.0668 0.017275,-0.009 0.3535439,0 0.4009043,0 0.1559071,0 0.3118144,0 0.4677217,0 0.030092,0 0.1801172,-0.0102 0.200452,0 0.028173,0.0141 0.038645,0.0527 0.066817,0.0668 0.0035,0.002 0.1969569,0.002 0.2004519,0 0.02817,-0.0141 0.03865,-0.0527 0.06682,-0.0668 0.01992,-0.01 0.0469,0.01 0.06682,0 0.02817,-0.0141 0.03864,-0.0527 0.06682,-0.0668 0.01992,-0.01 0.0469,0.01 0.06682,0 0.02817,-0.0141 0.03865,-0.0527 0.06682,-0.0668 0.01992,-0.01 0.0469,0.01 0.06682,0 0.05635,-0.0282 0.07729,-0.10546 0.133635,-0.13363 0.01992,-0.01 0.0469,0.01 0.06682,0 0.02817,-0.0141 0.03864,-0.0527 0.06682,-0.0668 0.01992,-0.01 0.05107,0.0158 0.06682,0 0.01575,-0.0157 -0.01575,-0.0511 0,-0.0668 0.0315,-0.0315 0.09379,0.0199 0.133635,0 0.02817,-0.0141 0.03865,-0.0527 0.06682,-0.0668 0.01992,-0.01 0.04454,0 0.06682,0 0.02227,0 0.05107,-0.0157 0.06682,0 0.01575,0.0157 -0.01575,0.0511 0,0.0668 0.01575,0.0157 0.04454,0 0.06682,0 0.02227,0 0.0469,0.01 0.06682,0 0.02817,-0.0141 0.03864,-0.0527 0.06682,-0.0668 0.01992,-0.01 0.0469,0.01 0.06682,0 0.02817,-0.0141 0.03865,-0.0527 0.06682,-0.0668 0.01992,-0.01 0.05107,0.0157 0.06682,0 0.01575,-0.0157 -0.01575,-0.0511 0,-0.0668 0.0315,-0.0315 0.102136,0.0315 0.133634,0 0.01575,-0.0157 -0.01575,-0.0511 0,-0.0668 0.0315,-0.0315 0.102137,0.0315 0.133635,0 0.01575,-0.0157 -0.01575,-0.0511 0,-0.0668 0.01608,-0.0161 0.251191,0.0161 0.26727,0 0.01575,-0.0157 -0.01575,-0.0511 0,-0.0668 0.0021,-0.002 0.184247,0 0.200452,0 0.02227,0 0.04455,0 0.06682,0 0.02227,0 0.05107,0.0157 0.06682,0 0.01575,-0.0157 -0.01575,-0.0511 0,-0.0668 0.01575,-0.0157 0.04454,0 0.06682,0 0.02227,0 0.0469,-0.01 0.06682,0 0.02817,0.0141 0.03865,0.0527 0.06682,0.0668 0.03984,0.0199 0.102136,-0.0315 0.133634,0 0.01575,0.0157 -0.01575,0.0511 0,0.0668 0.01575,0.0157 0.05107,-0.0157 0.06682,0 0.01575,0.0157 -0.01575,0.0511 0,0.0668 0.01575,0.0157 0.05107,-0.0157 0.06682,0 0.01575,0.0157 -0.01575,0.0511 0,0.0668 0.01575,0.0157 0.0469,-0.01 0.06682,0 0.02817,0.0141 0.03864,0.0527 0.06682,0.0668 0.05345,0.0267 0.146998,-0.0267 0.200452,0 0.02817,0.0141 0.03864,0.0527 0.06682,0.0668 0.02416,0.0121 0.287613,0 0.334087,0 0.244997,0 0.489994,0 0.734991,0 0.01621,0 0.198304,0.002 0.200453,0 0.01575,-0.0157 -0.01575,-0.0511 0,-0.0668 0.0067,-0.007 0.19377,-0.007 0.200452,0 0.01575,0.0157 -0.01575,0.0511 0,0.0668 0.01575,0.0157 0.04454,0 0.06682,0 0.02227,0 0.04454,0 0.06682,0 0.17818,0 0.35636,0 0.53454,0 0.02227,0 0.05107,0.0157 0.06682,0 0.01575,-0.0157 -0.01575,-0.0511 0,-0.0668 0.01575,-0.0157 0.04454,0 0.06682,0 0.04648,0 0.309924,0.0121 0.334087,0 0.02817,-0.0141 0.03865,-0.0527 0.06682,-0.0668 0.01992,-0.01 0.04455,0 0.06682,0 0.02227,0 0.04455,0 0.06682,0 0.111363,0 0.222725,0 0.334087,0 0.156699,0 -0.0315,0.0157 0.133635,-0.0668 0.02416,-0.0121 0.287613,0 0.334087,0 0.02227,0 0.05107,-0.0157 0.06682,0 0.01575,0.0157 -0.01575,0.0511 0,0.0668 0.0315,0.0315 0.102136,-0.0315 0.133634,0 0.01575,0.0157 -0.01575,0.0511 0,0.0668 0.01575,0.0157 0.04454,0 0.06682,0 0.02227,0 0.04454,0 0.06682,0 0.08909,0 0.17818,0 0.26727,0 0.244997,0 0.489994,0 0.734991,0 0.03494,0 0.2497,-0.009 0.267269,0 0.165133,0.0826 -0.02306,0.0668 0.133635,0.0668 0.155907,0 0.311814,0 0.467722,0 0.02227,0 0.05107,-0.0157 0.06682,0 0.01575,0.0157 0,0.0445 0,0.0668"
       id="path6933"
       inkscape:connector-curvature="0" />
    <path
       style="fill:none;stroke:#000000;stroke-width:0.02645833;stroke-linecap:butt;stroke-linejoin:miter;stroke-miterlimit:4;stroke-dasharray:none;stroke-opacity:1"
       d="m 4.3431298,283.63651 c 0.1336347,-0.0223 0.2686524,-0.0374 0.4009044,-0.0668 0.068754,-0.0153 0.1321233,-0.0497 0.200452,-0.0668 0.056933,-0.0142 0.1415423,0 0.2004523,0 0.1336347,0 0.2672694,0 0.4009041,0 0.022273,0 0.044545,0 0.066817,0 0.022273,0 0.051069,0.0157 0.066818,0 0.015748,-0.0158 -0.015748,-0.0511 0,-0.0668 0.015748,-0.0157 0.044545,0 0.066817,0 0.1113623,0 0.2227246,0 0.3340867,0 0.022273,0 0.051069,0.0157 0.066818,0 0.015748,-0.0157 -0.015748,-0.0511 0,-0.0668 0.015748,-0.0157 0.044545,0 0.066817,0 0.022273,0 0.044545,0 0.066817,0 0.1336347,0 0.2672694,0 0.4009043,0 0.030092,0 0.1801172,0.0102 0.2004521,0 0.028172,-0.0141 0.038645,-0.0527 0.066817,-0.0668 0.046153,-0.0231 0.3106327,0.0235 0.334087,0 0.015748,-0.0157 -0.015748,-0.0511 0,-0.0668 0.033409,-0.0334 0.1670434,0.0334 0.200452,0 0.015748,-0.0157 -0.015748,-0.0511 0,-0.0668 0.01366,-0.0136 0.1739596,0.0132 0.2004523,0 0.028173,-0.0141 0.038645,-0.0527 0.066817,-0.0668 0.024164,-0.0121 0.2876126,0 0.334087,0 0.1336346,0 0.2672693,0 0.400904,0 0.022273,0 0.044545,0 0.066817,0 0.022273,0 0.046896,-0.01 0.066818,0 0.028173,0.0141 0.038645,0.0527 0.066817,0.0668 0.020336,0.0102 0.1703605,0 0.2004521,0 0.1336347,0 0.2672696,0 0.4009043,0 0.022273,0 0.044545,0 0.066817,0 0.022273,0 0.051068,0.0157 0.066817,0 0.015748,-0.0157 -0.015748,-0.0511 0,-0.0668 0.015748,-0.0157 0.044545,0 0.066817,0 0.022273,0 0.044545,0 0.066818,0 0.1781797,0 0.3563594,0 0.5345386,0 0.02227,0 0.04454,0 0.06682,0 0.02227,0 0.05107,-0.0157 0.06682,0 0.01575,0.0157 -0.01575,0.0511 0,0.0668 0.01575,0.0157 0.04455,0 0.06682,0 0.01621,0 0.198304,0.002 0.200452,0 0.01575,-0.0157 -0.01575,-0.0511 0,-0.0668 0.01575,-0.0157 0.04454,0 0.06682,0 0.04736,0 0.383629,0.009 0.400905,0 0.02817,-0.0141 0.03865,-0.0527 0.06682,-0.0668 0.01728,-0.009 0.353543,0 0.400904,0 0.02227,0 0.04454,0 0.06682,0 0.02227,0 0.05107,0.0158 0.06682,0 0.01575,-0.0157 -0.01575,-0.0511 0,-0.0668 0.01575,-0.0158 0.04454,0 0.06682,0 0.111362,0 0.222725,0 0.334087,0 0.02227,0 0.05107,-0.0158 0.06682,0 0.01575,0.0157 -0.01575,0.0511 0,0.0668 0.01575,0.0158 0.04455,0 0.06682,0 0.0162,0 0.198303,0.002 0.200452,0 0.01575,-0.0157 -0.01575,-0.0511 0,-0.0668 0.01575,-0.0158 0.04455,0 0.06682,0 0.02227,0 0.04455,0 0.06682,0 0.311815,0 0.623629,0 0.935444,0 0.133635,0 0.267269,0 0.400904,0 0.02227,0 0.04455,0 0.06682,0 0.02227,0 0.0469,0.01 0.06682,0 0.02817,-0.0141 0.03865,-0.0527 0.06682,-0.0668 0.01371,-0.007 0.19103,-0.009 0.200452,0 0.01575,0.0157 -0.01575,0.0511 0,0.0668 0.01575,0.0157 0.04454,0 0.06682,0 0.04647,0 0.309923,0.0121 0.334087,0 0.02817,-0.0141 0.03864,-0.0527 0.06682,-0.0668 0.02034,-0.0102 0.170361,0 0.200452,0 0.02454,0 0.264581,0.003 0.26727,0 0.01575,-0.0157 -0.01575,-0.0511 0,-0.0668 0.01575,-0.0157 0.05107,-0.0157 0.06682,0 0.01575,0.0158 -0.01575,0.0511 0,0.0668 0.01575,0.0157 0.04454,0 0.06682,0 0.111363,0 0.222725,0 0.334087,0 0.02227,0 0.05107,-0.0157 0.06682,0 0.01575,0.0157 -0.01575,0.0511 0,0.0668 0.01575,0.0157 0.04454,0 0.06682,0 0.02227,0 0.04455,0 0.06682,0 0.178179,0 0.356359,0 0.534539,0 0.03009,0 0.180117,-0.0102 0.200452,0 0.02817,0.0141 0.03864,0.0527 0.06682,0.0668 0.01727,0.009 0.353544,0 0.400905,0 0.02227,0 0.05107,-0.0157 0.06682,0 0.01575,0.0158 -0.01575,0.0511 0,0.0668 0.0021,0.002 0.184247,0 0.200452,0 0.155907,0 0.311815,0 0.467722,0 0.02227,0 0.05107,0.0157 0.06682,0 0.01575,-0.0157 -0.01575,-0.0511 0,-0.0668 0.0027,-0.003 0.242732,0 0.26727,0"
       id="path6935"
       inkscape:connector-curvature="0" />
    <path
       sodipodi:type="star"
       style="fill:#ffff00;fill-opacity:1;stroke:none;stroke-width:0.03163007;stroke-miterlimit:4;stroke-dasharray:none"
       id="path6943"
       sodipodi:sides="3"
       sodipodi:cx="3.7250688"
       sodipodi:cy="279.42703"
       sodipodi:r1="1.8389299"
       sodipodi:r2="0.91946489"
       sodipodi:arg1="0.52359878"
       sodipodi:arg2="1.5707963"
       inkscape:flatsided="true"
       inkscape:rounded="0"
       inkscape:randomized="0"
       d="m 5.3176288,280.3465 -3.18512,0 1.59256,-2.7584 z"
       inkscape:transform-center-y="-0.45973279" />
    <text
       xml:space="preserve"
       style="font-style:normal;font-variant:normal;font-weight:normal;font-stretch:normal;font-size:2.81704187px;line-height:1.25;font-family:sans-serif;-inkscape-font-specification:sans-serif;letter-spacing:0px;word-spacing:0px;fill:#ff0000;fill-opacity:1;stroke:#000000;stroke-width:0.02645833;stroke-miterlimit:4;stroke-dasharray:none"
       x="3.1414394"
       y="280.1954"
       id="text6941"><tspan
         sodipodi:role="line"
         id="tspan6939"
         x="3.1414394"
         y="280.1954"
         style="stroke-width:0.02645833;fill:#ff0000;fill-opacity:1;stroke:#000000;stroke-miterlimit:4;stroke-dasharray:none">!</tspan></text>
    <path
       style="fill:#806600;stroke:none;stroke-width:0.05291667;stroke-linecap:butt;stroke-linejoin:miter;stroke-opacity:1;stroke-miterlimit:4;stroke-dasharray:none"
       d="M 3.2406431,293.03124 H 2.1166667 v 3.96875 c 0.023867,-0.0278 0.047735,-0.0557 0.071603,-0.0835 0,-0.006 -0.00249,-0.0117 0,-0.0167 0.00352,-0.007 0.013183,-0.01 0.016704,-0.0167 0.00249,-0.005 -0.00394,-0.0128 0,-0.0167 0.00394,-0.004 0.012767,0.004 0.016704,0 0.00394,-0.004 -0.00249,-0.0117 0,-0.0167 0.00352,-0.007 0.013183,-0.01 0.016704,-0.0167 0.00498,-0.01 -0.00498,-0.0235 0,-0.0334 0.00352,-0.007 0.013183,-0.01 0.016704,-0.0167 0.00249,-0.005 -0.00249,-0.0117 0,-0.0167 0.00352,-0.007 0.013183,-0.01 0.016704,-0.0167 0.00249,-0.005 -0.00249,-0.0117 0,-0.0167 0.00352,-0.007 0.013183,-0.01 0.016704,-0.0167 0.00249,-0.005 -0.00249,-0.0117 0,-0.0167 0.00352,-0.007 0.013183,-0.01 0.016704,-0.0167 0.00249,-0.005 -0.00249,-0.0117 0,-0.0167 0.00352,-0.007 0.013183,-0.01 0.016704,-0.0167 0.00249,-0.005 -0.00249,-0.0117 0,-0.0167 0.00352,-0.007 0.013183,-0.01 0.016704,-0.0167 0.00249,-0.005 -0.00249,-0.0117 0,-0.0167 0.00352,-0.007 0.013183,-0.01 0.016704,-0.0167 0.00249,-0.005 -0.00176,-0.0114 0,-0.0167 0.00394,-0.0118 0.012767,-0.0216 0.016704,-0.0334 0.00176,-0.005 -0.00249,-0.0117 0,-0.0167 0.00704,-0.0141 0.024673,-0.0203 0.033409,-0.0334 0.056402,-0.0476 6.49e-5,-0.0168 0.016704,-0.0501 0.00704,-0.0141 0.028428,-0.0185 0.033409,-0.0334 0.00352,-0.0106 -0.00352,-0.0228 0,-0.0334 0.00498,-0.0149 0.026366,-0.0193 0.033409,-0.0334 0.00249,-0.005 -0.00249,-0.0117 0,-0.0167 0.00352,-0.007 0.012336,-0.0102 0.016704,-0.0167 0.00691,-0.0104 0.0098,-0.0231 0.016704,-0.0334 0.00437,-0.007 0.013183,-0.01 0.016704,-0.0167 0.00249,-0.005 -0.00249,-0.0117 0,-0.0167 0.00352,-0.007 0.012336,-0.0102 0.016704,-0.0167 0.00691,-0.0104 0.0098,-0.0231 0.016704,-0.0334 0.00437,-0.007 0.012336,-0.0102 0.016704,-0.0167 0.025606,-0.0384 0.0078,-0.0451 0.033409,-0.0835 0.00874,-0.0131 0.024673,-0.0203 0.033409,-0.0334 0.00691,-0.0104 0.0098,-0.0231 0.016704,-0.0334 0.00437,-0.007 0.014214,-0.009 0.016704,-0.0167 0.00352,-0.0106 -0.00352,-0.0229 0,-0.0334 0.00498,-0.0149 0.028428,-0.0185 0.033409,-0.0334 0.00352,-0.0106 -0.00352,-0.0229 0,-0.0334 0.00249,-0.007 0.012336,-0.0101 0.016704,-0.0167 0.060558,-0.12112 -0.017608,0.0264 0.033409,-0.0501 0.048638,-0.0729 -0.0074,0.006 0.016704,-0.0668 0.00249,-0.007 0.013183,-0.01 0.016704,-0.0167 0.00249,-0.005 -0.00249,-0.0117 0,-0.0167 0.00352,-0.007 0.013183,-0.01 0.016704,-0.0167 0.00498,-0.01 -0.00498,-0.0235 0,-0.0334 0.00352,-0.007 0.013183,-0.01 0.016704,-0.0167 0.00249,-0.005 -0.00249,-0.0117 0,-0.0167 0.00352,-0.007 0.013183,-0.01 0.016704,-0.0167 0.00498,-0.01 -0.00498,-0.0234 0,-0.0334 0.00352,-0.007 0.013183,-0.01 0.016704,-0.0167 0.00498,-0.01 -0.00787,-0.0255 0,-0.0334 0.00394,-0.004 0.012767,0.004 0.016704,0 0.00787,-0.008 -0.00498,-0.0235 0,-0.0334 0.00352,-0.007 0.013183,-0.01 0.016704,-0.0167 0.00249,-0.005 -0.00249,-0.0117 0,-0.0167 0.00352,-0.007 0.013183,-0.01 0.016704,-0.0167 0.00249,-0.005 -0.00249,-0.0117 0,-0.0167 0.00352,-0.007 0.013183,-0.01 0.016704,-0.0167 0.00498,-0.01 -0.00787,-0.0255 0,-0.0334 0.00394,-0.004 0.012767,0.004 0.016704,0 0.00787,-0.008 -0.00498,-0.0234 0,-0.0334 0.00352,-0.007 0.013183,-0.01 0.016704,-0.0167 0.00249,-0.005 -0.00249,-0.0117 0,-0.0167 0.00352,-0.007 0.013183,-0.01 0.016704,-0.0167 0.00249,-0.005 -0.00249,-0.0117 0,-0.0167 0.00352,-0.007 0.013183,-0.01 0.016704,-0.0167 0.00249,-0.005 -0.00249,-0.0117 0,-0.0167 0.020642,-0.0413 0.016704,0.006 0.016704,-0.0334 0,-0.0446 -0.00557,0.006 0.016704,-0.0167 0.00835,-0.008 -0.00835,-0.0418 0,-0.0501 0.00394,-0.004 0.016704,-0.006 0.016704,0 0,0.006 -0.012767,-0.004 -0.016704,0 -0.00394,0.004 0,0.0111 0,0.0167 0,0.008 7.57e-4,0.0828 0,0.0835 -0.00394,0.004 -0.012767,-0.004 -0.016704,0 -0.00542,0.005 0.0053,0.0729 0,0.0835 -0.00352,0.007 -0.013183,0.01 -0.016704,0.0167 -0.00249,0.005 0,0.0111 0,0.0167 0,0.006 0,0.0111 0,0.0167 0,0.0278 0,0.0557 0,0.0835 0,0.0557 0,0.11136 0,0.16704 0,0.009 -0.0022,0.0624 0,0.0668 0.00352,0.007 0.013183,0.01 0.016704,0.0167 0.00254,0.005 0,0.0426 0,0.0501 0,0.0445 0,0.0891 0,0.13363 0,0.009 -0.0022,0.0624 0,0.0668 0.00352,0.007 0.013183,0.01 0.016704,0.0167 0.00249,0.005 0,0.0111 0,0.0167 0,0.006 0,0.0111 0,0.0167 0,0.0334 0,0.0668 0,0.10023 0,0.009 -0.0022,0.0624 0,0.0668 0.00352,0.007 0.013183,0.01 0.016704,0.0167 0.00498,0.01 -0.00498,0.0235 0,0.0334 0.00352,0.007 0.013183,0.01 0.016704,0.0167 0.00498,0.01 -0.00787,0.0255 0,0.0334 0.00394,0.004 0.012767,-0.004 0.016704,0 0.00246,0.002 -0.00197,0.0501 0,0.0501 0.027701,0 0.011713,-0.0234 0.016704,-0.0334 0.00352,-0.007 0.013183,-0.01 0.016704,-0.0167 0.00249,-0.005 -0.00394,-0.0128 0,-0.0167 0.00394,-0.004 0.012767,0.004 0.016704,0 0.00787,-0.008 -0.00787,-0.0255 0,-0.0334 0.00394,-0.004 0.012767,0.004 0.016704,0 0.00394,-0.004 -0.00249,-0.0117 0,-0.0167 0.00352,-0.007 0.013183,-0.01 0.016704,-0.0167 0.00249,-0.005 -0.00249,-0.0117 0,-0.0167 0.00352,-0.007 0.013183,-0.01 0.016704,-0.0167 0.00249,-0.005 -0.00176,-0.0114 0,-0.0167 0.00394,-0.0118 0.012767,-0.0216 0.016704,-0.0334 0.00352,-0.0106 -0.00498,-0.0234 0,-0.0334 0.038225,-0.0765 -0.00692,0.0709 0.033409,-0.0501 0.00352,-0.0106 -0.00498,-0.0235 0,-0.0334 0.00352,-0.007 0.013183,-0.01 0.016704,-0.0167 0.00249,-0.005 0,-0.0111 0,-0.0167 0.00557,-0.0111 0.0098,-0.0231 0.016704,-0.0334 0.00437,-0.007 0.013183,-0.01 0.016704,-0.0167 0.00498,-0.01 -0.00498,-0.0234 0,-0.0334 0.00352,-0.007 0.013183,-0.01 0.016704,-0.0167 0.00249,-0.005 -0.00249,-0.0117 0,-0.0167 0.00352,-0.007 0.013183,-0.01 0.016704,-0.0167 0.00498,-0.01 -0.00498,-0.0235 0,-0.0334 0.00352,-0.007 0.013183,-0.01 0.016704,-0.0167 0.00249,-0.005 -0.00249,-0.0117 0,-0.0167 0.00352,-0.007 0.013183,-0.01 0.016704,-0.0167 0.00249,-0.005 0,-0.0111 0,-0.0167 0.00557,-0.006 0.013183,-0.01 0.016704,-0.0167 0.00249,-0.005 -0.00249,-0.0117 0,-0.0167 0.00352,-0.007 0.013183,-0.01 0.016704,-0.0167 0.00498,-0.01 -0.00498,-0.0234 0,-0.0334 0.00352,-0.007 0.013183,-0.01 0.016704,-0.0167 0.00249,-0.005 -0.00249,-0.0117 0,-0.0167 0.00352,-0.007 0.013183,-0.01 0.016704,-0.0167 0.00249,-0.005 -0.00249,-0.0117 0,-0.0167 0.00352,-0.007 0.013183,-0.01 0.016704,-0.0167 0.00249,-0.005 -0.00249,-0.0117 0,-0.0167 0.00352,-0.007 0.013183,-0.01 0.016704,-0.0167 0.00498,-0.01 -0.00498,-0.0235 0,-0.0334 0.00352,-0.007 0.013183,-0.01 0.016704,-0.0167 0.00249,-0.005 -0.00249,-0.0117 0,-0.0167 0.00352,-0.007 0.013183,-0.01 0.016704,-0.0167 0.00498,-0.01 -0.00498,-0.0235 0,-0.0334 0.00352,-0.007 0.013183,-0.01 0.016704,-0.0167 0.00498,-0.01 -0.00498,-0.0234 0,-0.0334 0.00352,-0.007 0.013183,-0.01 0.016704,-0.0167 0.00498,-0.01 -0.00498,-0.0234 0,-0.0334 0.00352,-0.007 0.013183,-0.01 0.016704,-0.0167 0.00525,-0.0105 -0.00525,-0.0563 0,-0.0668 0.00352,-0.007 0.013183,-0.01 0.016704,-0.0167 0.00668,-0.0134 -0.00668,-0.0367 0,-0.0501 0.00352,-0.007 0.013183,-0.01 0.016704,-0.0167 0.00668,-0.0134 -0.00668,-0.0367 0,-0.0501 0.00352,-0.007 0.013183,-0.01 0.016704,-0.0167 0.00525,-0.0105 -0.00525,-0.0563 0,-0.0668 0.00352,-0.007 0.013183,-0.01 0.016704,-0.0167 0.00453,-0.009 -0.00457,-0.0623 0,-0.0668 0.00394,-0.004 0.012767,0.004 0.016704,0 0.00394,-0.004 0,-0.0111 0,-0.0167 0,-0.008 -7.571e-4,-0.0828 0,-0.0835 0.00394,-0.004 0.012767,0.004 0.016704,0 0.00402,-0.004 -0.00402,-0.0628 0,-0.0668 0.00394,-0.004 0.012767,0.004 0.016704,0 0.00457,-0.005 -0.00453,-0.0578 0,-0.0668 0.00352,-0.007 0.013183,-0.01 0.016704,-0.0167 0.00331,-0.007 -0.00341,-0.0467 0,-0.0501 0.00394,-0.004 0.012767,0.004 0.016704,0 0.00341,-0.003 -0.00331,-0.0435 0,-0.0501 0.00352,-0.007 0.013183,-0.01 0.016704,-0.0167 0.00668,-0.0134 -0.00668,-0.0367 0,-0.0501 0.00352,-0.007 0.013183,-0.01 0.016704,-0.0167 0.00668,-0.0134 -0.00668,-0.0367 0,-0.0501 0.00352,-0.007 0.013183,-0.01 0.016704,-0.0167 0.00498,-0.01 -0.00498,-0.0234 0,-0.0334 0.00352,-0.007 0.013183,-0.01 0.016704,-0.0167 0.00498,-0.01 -0.00498,-0.0235 0,-0.0334 0.055401,-0.0554 -0.00787,0.0157 0.016704,-0.0334 0.00352,-0.007 0.013183,-0.01 0.016704,-0.0167 0.00249,-0.005 -0.00249,-0.0117 0,-0.0167 0.00352,-0.007 0.013183,-0.01 0.016704,-0.0167 0.00498,-0.01 -0.00787,-0.0255 0,-0.0334 0.00394,-0.004 0.012767,0.004 0.016704,0 0.00835,-0.008 -0.00835,-0.0418 0,-0.0501 0.00394,-0.004 0.012767,0.004 0.016704,0 0.00787,-0.008 -0.00787,-0.0255 0,-0.0334 0.00394,-0.004 0.012767,0.004 0.016704,0 0.00787,-0.008 -0.00498,-0.0235 0,-0.0334 0.00352,-0.007 0.013183,-0.01 0.016704,-0.0167 0.00498,-0.01 -0.00787,-0.0255 0,-0.0334 0.00394,-0.004 0.012767,0.004 0.016704,0 0.00835,-0.008 -0.00835,-0.0418 0,-0.0501 0.00394,-0.004 0.012767,0.004 0.016704,0 0.00835,-0.008 -0.00835,-0.0418 0,-0.0501 0.00394,-0.004 0.012767,0.004 0.016704,0 0.00787,-0.008 -0.00787,-0.0255 0,-0.0334 0.00394,-0.004 0.012767,0.004 0.016704,0 0.00517,-0.005 -0.00517,-0.0784 0,-0.0835 0.00394,-0.004 0.012767,0.004 0.016704,0 0.00342,-0.003 -0.00331,-0.0435 0,-0.0501 0.00352,-0.007 0.013183,-0.01 0.016704,-0.0167 0.020571,-0.0411 -0.048488,0.0151 0.016704,-0.0501 0.00394,-0.004 0.012767,0.004 0.016704,0 0.00394,-0.004 -0.00249,-0.0117 0,-0.0167 0.00352,-0.007 0.013183,-0.01 0.016704,-0.0167 0.00498,-0.01 -0.00787,-0.0255 0,-0.0334 0.00394,-0.004 0.012767,0.004 0.016704,0 0.00787,-0.008 -0.00787,-0.0255 0,-0.0334 0.00394,-0.004 0.012767,0.004 0.016704,0 0.00835,-0.008 -0.00835,-0.0418 0,-0.0501 0.00394,-0.004 0.012767,0.004 0.016704,0 0.00787,-0.008 -0.00787,-0.0255 0,-0.0334 0.00394,-0.004 0.012767,0.004 0.016704,0 0.00394,-0.004 -0.00394,-0.0128 0,-0.0167 0.00394,-0.004 0.012767,0.004 0.016704,0 0.00394,-0.004 -0.00394,-0.0128 0,-0.0167 0.00394,-0.004 0.012767,0.004 0.016704,0 0.00394,-0.004 -0.00394,-0.0128 0,-0.0167 0.00394,-0.004 0.011724,0.002 0.016704,0 0.020045,-0.01 0.030068,-0.0401 0.050113,-0.0501 0.00498,-0.002 0.012767,0.004 0.016704,0 0.00394,-0.004 -0.00394,-0.0128 0,-0.0167 0.00394,-0.004 0.012767,0.004 0.016704,0 0.00394,-0.004 -0.00394,-0.0128 0,-0.0167 0.00394,-0.004 0.012767,0.004 0.016704,0 0.00394,-0.004 0,-0.0111 0,-0.0167 0.00557,0 0.012767,0.004 0.016704,0 0.00394,-0.004 -0.00394,-0.0128 0,-0.0167 0.00394,-0.004 0.012767,0.004 0.016704,0 0.00394,-0.004 -0.00394,-0.0128 0,-0.0167 0.00394,-0.004 0.011724,0.002 0.016704,0 0.00704,-0.004 0.00966,-0.0132 0.016704,-0.0167 0.00498,-0.002 0.012767,0.004 0.016704,0 0.00394,-0.004 -0.00394,-0.0128 0,-0.0167 0.00394,-0.004 0.012767,0.004 0.016704,0 0.00394,-0.004 -0.00394,-0.0128 0,-0.0167 0.00394,-0.004 0.012767,0.004 0.016704,0 0.00394,-0.004 -0.00394,-0.0128 0,-0.0167 0.00394,-0.004 0.012767,0.004 0.016704,0 0.00394,-0.004 -0.00394,-0.0128 0,-0.0167 0.00394,-0.004 0.012767,0.004 0.016704,0 0.00394,-0.004 -0.00394,-0.0128 0,-0.0167 0.00394,-0.004 0.012767,0.004 0.016704,0 0.00787,-0.008 -0.00787,-0.0255 0,-0.0334 0.00394,-0.004 0.012767,0.004 0.016704,0 0.00394,-0.004 -0.00394,-0.0128 0,-0.0167 0.00394,-0.004 0.012767,0.004 0.016704,0 0.00394,-0.004 -0.00394,-0.0128 0,-0.0167 0.00394,-0.004 0.012767,0.004 0.016704,0 0.00787,-0.008 -0.00787,-0.0255 0,-0.0334 0.00394,-0.004 0.012767,0.004 0.016704,0 0.00394,-0.004 -0.00394,-0.0128 0,-0.0167 0.00394,-0.004 0.012767,0.004 0.016704,0 0.00787,-0.008 -0.00787,-0.0255 0,-0.0334 0.00394,-0.004 0.012767,0.004 0.016704,0 0.00394,-0.004 -0.00394,-0.0128 0,-0.0167 0.00394,-0.004 0.012767,0.004 0.016704,0 0.00787,-0.008 -0.00787,-0.0255 0,-0.0334 0.00394,-0.004 0.012767,0.004 0.016704,0 0.00394,-0.004 -0.00546,-0.0156 0,-0.0167 0.072114,-0.0142 0.1459453,-0.0177 0.218918,-0.0265 z"
       id="path6960"
       inkscape:connector-curvature="0" />
    <path
       style="fill:#806600;stroke:none;stroke-width:0.05291667;stroke-linecap:butt;stroke-linejoin:miter;stroke-miterlimit:4;stroke-dasharray:none;stroke-opacity:1"
       d="m 9.7239396,293.03124 h 1.1239764 v 3.96875 c -0.02387,-0.0278 -0.04773,-0.0557 -0.0716,-0.0835 0,-0.006 0.0025,-0.0117 0,-0.0167 -0.0035,-0.007 -0.01318,-0.01 -0.0167,-0.0167 -0.0025,-0.005 0.0039,-0.0128 0,-0.0167 -0.0039,-0.004 -0.01277,0.004 -0.0167,0 -0.0039,-0.004 0.0025,-0.0117 0,-0.0167 -0.0035,-0.007 -0.01318,-0.01 -0.0167,-0.0167 -0.005,-0.01 0.005,-0.0235 0,-0.0334 -0.0035,-0.007 -0.01318,-0.01 -0.0167,-0.0167 -0.0025,-0.005 0.0025,-0.0117 0,-0.0167 -0.0035,-0.007 -0.01318,-0.01 -0.0167,-0.0167 -0.0025,-0.005 0.0025,-0.0117 0,-0.0167 -0.0035,-0.007 -0.01318,-0.01 -0.0167,-0.0167 -0.0025,-0.005 0.0025,-0.0117 0,-0.0167 -0.0035,-0.007 -0.01318,-0.01 -0.0167,-0.0167 -0.0025,-0.005 0.0025,-0.0117 0,-0.0167 -0.0035,-0.007 -0.01318,-0.01 -0.0167,-0.0167 -0.0025,-0.005 0.0025,-0.0117 0,-0.0167 -0.0035,-0.007 -0.01318,-0.01 -0.0167,-0.0167 -0.0025,-0.005 0.0025,-0.0117 0,-0.0167 -0.0035,-0.007 -0.01318,-0.01 -0.0167,-0.0167 -0.0025,-0.005 0.0018,-0.0114 0,-0.0167 -0.0039,-0.0118 -0.01277,-0.0216 -0.0167,-0.0334 -0.0018,-0.005 0.0025,-0.0117 0,-0.0167 -0.007,-0.0141 -0.02467,-0.0203 -0.03341,-0.0334 -0.0564,-0.0476 -6.5e-5,-0.0168 -0.0167,-0.0501 -0.007,-0.0141 -0.02843,-0.0185 -0.03341,-0.0334 -0.0035,-0.0106 0.0035,-0.0228 0,-0.0334 -0.005,-0.0149 -0.02637,-0.0193 -0.03341,-0.0334 -0.0025,-0.005 0.0025,-0.0117 0,-0.0167 -0.0035,-0.007 -0.01234,-0.0102 -0.0167,-0.0167 -0.0069,-0.0104 -0.0098,-0.0231 -0.0167,-0.0334 -0.0044,-0.007 -0.01318,-0.01 -0.0167,-0.0167 -0.0025,-0.005 0.0025,-0.0117 0,-0.0167 -0.0035,-0.007 -0.01234,-0.0102 -0.0167,-0.0167 -0.0069,-0.0104 -0.0098,-0.0231 -0.0167,-0.0334 -0.0044,-0.007 -0.01234,-0.0102 -0.0167,-0.0167 -0.02561,-0.0384 -0.0078,-0.0451 -0.03341,-0.0835 -0.0087,-0.0131 -0.02467,-0.0203 -0.03341,-0.0334 -0.0069,-0.0104 -0.0098,-0.0231 -0.0167,-0.0334 -0.0044,-0.007 -0.01421,-0.009 -0.0167,-0.0167 -0.0035,-0.0106 0.0035,-0.0229 0,-0.0334 -0.005,-0.0149 -0.02843,-0.0185 -0.03341,-0.0334 -0.0035,-0.0106 0.0035,-0.0229 0,-0.0334 -0.0025,-0.007 -0.01234,-0.0101 -0.0167,-0.0167 -0.06056,-0.12112 0.01761,0.0264 -0.03341,-0.0501 -0.04864,-0.0729 0.0074,0.006 -0.0167,-0.0668 -0.0025,-0.007 -0.01318,-0.01 -0.0167,-0.0167 -0.0025,-0.005 0.0025,-0.0117 0,-0.0167 -0.0035,-0.007 -0.01318,-0.01 -0.0167,-0.0167 -0.005,-0.01 0.005,-0.0235 0,-0.0334 -0.0035,-0.007 -0.01318,-0.01 -0.0167,-0.0167 -0.0025,-0.005 0.0025,-0.0117 0,-0.0167 -0.0035,-0.007 -0.01318,-0.01 -0.0167,-0.0167 -0.005,-0.01 0.005,-0.0234 0,-0.0334 -0.0035,-0.007 -0.01318,-0.01 -0.0167,-0.0167 -0.005,-0.01 0.0079,-0.0255 0,-0.0334 -0.0039,-0.004 -0.01277,0.004 -0.0167,0 -0.0079,-0.008 0.005,-0.0235 0,-0.0334 -0.0035,-0.007 -0.01318,-0.01 -0.0167,-0.0167 -0.0025,-0.005 0.0025,-0.0117 0,-0.0167 -0.0035,-0.007 -0.01318,-0.01 -0.0167,-0.0167 -0.0025,-0.005 0.0025,-0.0117 0,-0.0167 -0.0035,-0.007 -0.01318,-0.01 -0.0167,-0.0167 -0.005,-0.01 0.0079,-0.0255 0,-0.0334 -0.0039,-0.004 -0.01277,0.004 -0.0167,0 -0.0079,-0.008 0.005,-0.0234 0,-0.0334 -0.0035,-0.007 -0.013183,-0.01 -0.016704,-0.0167 -0.00249,-0.005 0.00249,-0.0117 0,-0.0167 -0.00352,-0.007 -0.013183,-0.01 -0.016704,-0.0167 -0.00249,-0.005 0.00249,-0.0117 0,-0.0167 -0.00352,-0.007 -0.013183,-0.01 -0.016704,-0.0167 -0.00249,-0.005 0.00249,-0.0117 0,-0.0167 -0.020642,-0.0413 -0.016704,0.006 -0.016704,-0.0334 0,-0.0446 0.00557,0.006 -0.016704,-0.0167 -0.00835,-0.008 0.00835,-0.0418 0,-0.0501 -0.00394,-0.004 -0.016704,-0.006 -0.016704,0 0,0.006 0.012767,-0.004 0.016704,0 0.00394,0.004 0,0.0111 0,0.0167 0,0.008 -7.567e-4,0.0828 0,0.0835 0.00394,0.004 0.012767,-0.004 0.016704,0 0.00542,0.005 -0.0053,0.0729 0,0.0835 0.00352,0.007 0.013183,0.01 0.016704,0.0167 0.00249,0.005 0,0.0111 0,0.0167 0,0.006 0,0.0111 0,0.0167 0,0.0278 0,0.0557 0,0.0835 0,0.0557 0,0.11136 0,0.16704 0,0.009 0.0022,0.0624 0,0.0668 -0.00352,0.007 -0.013183,0.01 -0.016704,0.0167 -0.00254,0.005 0,0.0426 0,0.0501 0,0.0445 0,0.0891 0,0.13363 0,0.009 0.0022,0.0624 0,0.0668 -0.00352,0.007 -0.013183,0.01 -0.016704,0.0167 -0.00249,0.005 0,0.0111 0,0.0167 0,0.006 0,0.0111 0,0.0167 0,0.0334 0,0.0668 0,0.10023 0,0.009 0.0022,0.0624 0,0.0668 -0.00352,0.007 -0.013183,0.01 -0.016704,0.0167 -0.00498,0.01 0.00498,0.0235 0,0.0334 -0.00352,0.007 -0.013183,0.01 -0.016704,0.0167 -0.00498,0.01 0.00787,0.0255 0,0.0334 -0.00394,0.004 -0.012767,-0.004 -0.016704,0 -0.00246,0.002 0.00197,0.0501 0,0.0501 -0.027701,0 -0.011713,-0.0234 -0.016704,-0.0334 -0.00352,-0.007 -0.013183,-0.01 -0.016704,-0.0167 -0.00249,-0.005 0.00394,-0.0128 0,-0.0167 -0.00394,-0.004 -0.012767,0.004 -0.016704,0 -0.00787,-0.008 0.00787,-0.0255 0,-0.0334 -0.00394,-0.004 -0.012767,0.004 -0.016704,0 -0.00394,-0.004 0.00249,-0.0117 0,-0.0167 -0.00352,-0.007 -0.013183,-0.01 -0.016704,-0.0167 -0.00249,-0.005 0.00249,-0.0117 0,-0.0167 -0.00352,-0.007 -0.013183,-0.01 -0.016704,-0.0167 -0.00249,-0.005 0.00176,-0.0114 0,-0.0167 -0.00394,-0.0118 -0.012767,-0.0216 -0.016704,-0.0334 -0.00352,-0.0106 0.00498,-0.0234 0,-0.0334 -0.038225,-0.0765 0.00692,0.0709 -0.033409,-0.0501 -0.00352,-0.0106 0.00498,-0.0235 0,-0.0334 -0.00352,-0.007 -0.013183,-0.01 -0.016704,-0.0167 -0.00249,-0.005 0,-0.0111 0,-0.0167 -0.00557,-0.0111 -0.0098,-0.0231 -0.016704,-0.0334 -0.00437,-0.007 -0.013183,-0.01 -0.016704,-0.0167 -0.00498,-0.01 0.00498,-0.0234 0,-0.0334 -0.00352,-0.007 -0.013183,-0.01 -0.016704,-0.0167 -0.00249,-0.005 0.00249,-0.0117 0,-0.0167 -0.00352,-0.007 -0.013183,-0.01 -0.016704,-0.0167 -0.00498,-0.01 0.00498,-0.0235 0,-0.0334 -0.00352,-0.007 -0.013183,-0.01 -0.016704,-0.0167 -0.00249,-0.005 0.00249,-0.0117 0,-0.0167 -0.00352,-0.007 -0.013183,-0.01 -0.016704,-0.0167 -0.00249,-0.005 0,-0.0111 0,-0.0167 -0.00557,-0.006 -0.013183,-0.01 -0.016704,-0.0167 -0.00249,-0.005 0.00249,-0.0117 0,-0.0167 -0.00352,-0.007 -0.013183,-0.01 -0.016704,-0.0167 -0.00498,-0.01 0.00498,-0.0234 0,-0.0334 -0.00352,-0.007 -0.013183,-0.01 -0.016704,-0.0167 -0.00249,-0.005 0.00249,-0.0117 0,-0.0167 -0.00352,-0.007 -0.013183,-0.01 -0.016704,-0.0167 -0.00249,-0.005 0.00249,-0.0117 0,-0.0167 -0.00352,-0.007 -0.013183,-0.01 -0.016704,-0.0167 -0.00249,-0.005 0.00249,-0.0117 0,-0.0167 -0.00352,-0.007 -0.013183,-0.01 -0.016704,-0.0167 -0.00498,-0.01 0.00498,-0.0235 0,-0.0334 -0.00352,-0.007 -0.013183,-0.01 -0.016704,-0.0167 -0.00249,-0.005 0.00249,-0.0117 0,-0.0167 -0.00352,-0.007 -0.013183,-0.01 -0.016704,-0.0167 -0.00498,-0.01 0.00498,-0.0235 0,-0.0334 -0.00352,-0.007 -0.013183,-0.01 -0.016704,-0.0167 -0.00498,-0.01 0.00498,-0.0234 0,-0.0334 -0.00352,-0.007 -0.013183,-0.01 -0.016704,-0.0167 -0.00498,-0.01 0.00498,-0.0234 0,-0.0334 -0.00352,-0.007 -0.013183,-0.01 -0.016704,-0.0167 -0.00525,-0.0105 0.00525,-0.0563 0,-0.0668 -0.00352,-0.007 -0.013183,-0.01 -0.016704,-0.0167 -0.00668,-0.0134 0.00668,-0.0367 0,-0.0501 -0.00352,-0.007 -0.013183,-0.01 -0.016704,-0.0167 -0.00668,-0.0134 0.00668,-0.0367 0,-0.0501 -0.00352,-0.007 -0.013183,-0.01 -0.016704,-0.0167 -0.00525,-0.0105 0.00525,-0.0563 0,-0.0668 -0.00352,-0.007 -0.013183,-0.01 -0.016704,-0.0167 -0.00453,-0.009 0.00457,-0.0623 0,-0.0668 -0.00394,-0.004 -0.012767,0.004 -0.016704,0 -0.00394,-0.004 0,-0.0111 0,-0.0167 0,-0.008 7.567e-4,-0.0828 0,-0.0835 -0.00394,-0.004 -0.012767,0.004 -0.016704,0 -0.00402,-0.004 0.00402,-0.0628 0,-0.0668 -0.00394,-0.004 -0.012767,0.004 -0.016704,0 -0.00457,-0.005 0.00453,-0.0578 0,-0.0668 -0.00352,-0.007 -0.013183,-0.01 -0.016704,-0.0167 -0.00331,-0.007 0.00341,-0.0467 0,-0.0501 -0.00394,-0.004 -0.012767,0.004 -0.016704,0 -0.00341,-0.003 0.00331,-0.0435 0,-0.0501 -0.00352,-0.007 -0.013183,-0.01 -0.016704,-0.0167 -0.00668,-0.0134 0.00668,-0.0367 0,-0.0501 -0.00352,-0.007 -0.013183,-0.01 -0.016704,-0.0167 -0.00668,-0.0134 0.00668,-0.0367 0,-0.0501 -0.00352,-0.007 -0.013183,-0.01 -0.016704,-0.0167 -0.00498,-0.01 0.00498,-0.0234 0,-0.0334 -0.00352,-0.007 -0.013183,-0.01 -0.016704,-0.0167 -0.00498,-0.01 0.00498,-0.0235 0,-0.0334 -0.055401,-0.0554 0.00787,0.0157 -0.016704,-0.0334 -0.00352,-0.007 -0.013183,-0.01 -0.016704,-0.0167 -0.00249,-0.005 0.00249,-0.0117 0,-0.0167 -0.00352,-0.007 -0.013183,-0.01 -0.016704,-0.0167 -0.00498,-0.01 0.00787,-0.0255 0,-0.0334 -0.00394,-0.004 -0.012767,0.004 -0.016704,0 -0.00835,-0.008 0.00835,-0.0418 0,-0.0501 -0.00394,-0.004 -0.012767,0.004 -0.016704,0 -0.00787,-0.008 0.00787,-0.0255 0,-0.0334 -0.00394,-0.004 -0.012767,0.004 -0.016704,0 -0.00787,-0.008 0.00498,-0.0235 0,-0.0334 -0.00352,-0.007 -0.013183,-0.01 -0.016704,-0.0167 -0.00498,-0.01 0.00787,-0.0255 0,-0.0334 -0.00394,-0.004 -0.012767,0.004 -0.016704,0 -0.00835,-0.008 0.00835,-0.0418 0,-0.0501 -0.00394,-0.004 -0.012767,0.004 -0.016704,0 -0.00835,-0.008 0.00835,-0.0418 0,-0.0501 -0.00394,-0.004 -0.012767,0.004 -0.016704,0 -0.00787,-0.008 0.00787,-0.0255 0,-0.0334 -0.00394,-0.004 -0.012767,0.004 -0.016704,0 -0.00517,-0.005 0.00517,-0.0784 0,-0.0835 -0.00394,-0.004 -0.012767,0.004 -0.016704,0 -0.00342,-0.003 0.00331,-0.0435 0,-0.0501 -0.00352,-0.007 -0.013183,-0.01 -0.016704,-0.0167 -0.020571,-0.0411 0.048488,0.0151 -0.016704,-0.0501 -0.00394,-0.004 -0.012767,0.004 -0.016704,0 -0.00394,-0.004 0.00249,-0.0117 0,-0.0167 -0.00352,-0.007 -0.013183,-0.01 -0.016704,-0.0167 -0.00498,-0.01 0.00787,-0.0255 0,-0.0334 -0.00394,-0.004 -0.012767,0.004 -0.016704,0 -0.00787,-0.008 0.00787,-0.0255 0,-0.0334 -0.00394,-0.004 -0.012767,0.004 -0.016704,0 -0.00835,-0.008 0.00835,-0.0418 0,-0.0501 -0.00394,-0.004 -0.012767,0.004 -0.016704,0 -0.00787,-0.008 0.00787,-0.0255 0,-0.0334 -0.00394,-0.004 -0.012767,0.004 -0.016704,0 -0.00394,-0.004 0.00394,-0.0128 0,-0.0167 -0.00394,-0.004 -0.012767,0.004 -0.016704,0 -0.00394,-0.004 0.00394,-0.0128 0,-0.0167 -0.00394,-0.004 -0.012767,0.004 -0.016704,0 -0.00394,-0.004 0.00394,-0.0128 0,-0.0167 -0.00394,-0.004 -0.011724,0.002 -0.016704,0 -0.020045,-0.01 -0.030068,-0.0401 -0.050113,-0.0501 -0.00498,-0.002 -0.012767,0.004 -0.016704,0 -0.00394,-0.004 0.00394,-0.0128 0,-0.0167 -0.00394,-0.004 -0.012767,0.004 -0.016704,0 -0.00394,-0.004 0.00394,-0.0128 0,-0.0167 -0.00394,-0.004 -0.012767,0.004 -0.016704,0 -0.00394,-0.004 0,-0.0111 0,-0.0167 -0.00557,0 -0.012767,0.004 -0.016704,0 -0.00394,-0.004 0.00394,-0.0128 0,-0.0167 -0.00394,-0.004 -0.012767,0.004 -0.016704,0 -0.00394,-0.004 0.00394,-0.0128 0,-0.0167 -0.00394,-0.004 -0.011724,0.002 -0.016704,0 -0.00704,-0.004 -0.00966,-0.0132 -0.016704,-0.0167 -0.00498,-0.002 -0.012767,0.004 -0.016704,0 -0.00394,-0.004 0.00394,-0.0128 0,-0.0167 -0.00394,-0.004 -0.012767,0.004 -0.016704,0 -0.00394,-0.004 0.00394,-0.0128 0,-0.0167 -0.00394,-0.004 -0.012767,0.004 -0.016704,0 -0.00394,-0.004 0.00394,-0.0128 0,-0.0167 -0.00394,-0.004 -0.012767,0.004 -0.016704,0 -0.00394,-0.004 0.00394,-0.0128 0,-0.0167 -0.00394,-0.004 -0.012767,0.004 -0.016704,0 -0.00394,-0.004 0.00394,-0.0128 0,-0.0167 -0.00394,-0.004 -0.012767,0.004 -0.016704,0 -0.00787,-0.008 0.00787,-0.0255 0,-0.0334 -0.00394,-0.004 -0.012767,0.004 -0.016704,0 -0.00394,-0.004 0.00394,-0.0128 0,-0.0167 -0.00394,-0.004 -0.012767,0.004 -0.016704,0 -0.00394,-0.004 0.00394,-0.0128 0,-0.0167 -0.00394,-0.004 -0.012767,0.004 -0.016704,0 -0.00787,-0.008 0.00787,-0.0255 0,-0.0334 -0.00394,-0.004 -0.012767,0.004 -0.016704,0 -0.00394,-0.004 0.00394,-0.0128 0,-0.0167 -0.00394,-0.004 -0.012767,0.004 -0.016704,0 -0.00787,-0.008 0.00787,-0.0255 0,-0.0334 -0.00394,-0.004 -0.012767,0.004 -0.016704,0 -0.00394,-0.004 0.00394,-0.0128 0,-0.0167 -0.00394,-0.004 -0.012767,0.004 -0.016704,0 -0.00787,-0.008 0.00787,-0.0255 0,-0.0334 -0.00394,-0.004 -0.012767,0.004 -0.016704,0 -0.00394,-0.004 0.00546,-0.0156 0,-0.0167 -0.072121,-0.0142 -0.1459521,-0.0177 -0.2189248,-0.0265 z"
       id="path6960-4"
       inkscape:connector-curvature="0" />
    <path
       style="fill:#806600;stroke:none;stroke-width:0.05291667;stroke-linecap:butt;stroke-linejoin:miter;stroke-opacity:1;stroke-miterlimit:4;stroke-dasharray:none"
       d="m 5.7295904,293.03124 c 0.01754,0.11555 0.016704,0.0729 0.016704,0.12675 0,0.006 -0.00394,0.0128 0,0.0167 0.022272,0.0223 0.016704,-0.0278 0.016704,0.0167 0,0.004 -5.372e-4,0.0496 0,0.0501 0.00394,0.004 0.012767,-0.004 0.016704,0 0.00586,0.006 -0.00577,0.072 0,0.0835 0.00352,0.007 0.013183,0.01 0.016704,0.0167 0.00577,0.0115 -0.00586,0.0777 0,0.0835 0.00394,0.004 0.012767,-0.004 0.016704,0 0.00402,0.004 -0.00402,0.0628 0,0.0668 0.00394,0.004 0.012767,-0.004 0.016704,0 0.00835,0.008 -0.00835,0.0418 0,0.0501 0.00394,0.004 0.012767,-0.004 0.016704,0 0.00586,0.006 -0.00577,0.072 0,0.0835 0.00352,0.007 0.013183,0.01 0.016704,0.0167 0.00498,0.01 -0.00498,0.0235 0,0.0334 0.00352,0.007 0.013183,0.01 0.016704,0.0167 0.00668,0.0134 -0.00668,0.0368 0,0.0501 0.055401,0.0554 -0.00787,-0.0157 0.016704,0.0334 0.00352,0.007 0.013183,0.01 0.016704,0.0167 0.00668,0.0134 -0.00668,0.0367 0,0.0501 0.00352,0.007 0.013183,0.01 0.016704,0.0167 0.00249,0.005 -0.00249,0.0117 0,0.0167 0.020642,0.0413 0.016704,-0.006 0.016704,0.0334 0,0.0392 -0.00394,-0.008 0.016704,0.0334 0.00249,0.005 -0.00249,0.0117 0,0.0167 0.00352,0.007 0.013183,0.01 0.016704,0.0167 0.00498,0.01 -0.00498,0.0235 0,0.0334 0.00352,0.007 0.013183,0.01 0.016704,0.0167 0.00498,0.01 -0.00498,0.0234 0,0.0334 0.00352,0.007 0.013183,0.01 0.016704,0.0167 0.00249,0.005 -0.00249,0.0117 0,0.0167 0.00352,0.007 0.013183,0.01 0.016704,0.0167 0.00249,0.005 -0.00249,0.0117 0,0.0167 0.00352,0.007 0.013183,0.01 0.016704,0.0167 0.00498,0.01 -0.00787,0.0255 0,0.0334 0.00394,0.004 0.012767,-0.004 0.016704,0 0.00394,0.004 -0.00249,0.0117 0,0.0167 0.00352,0.007 0.013183,0.01 0.016704,0.0167 0.00498,0.01 -0.00787,0.0255 0,0.0334 0.00394,0.004 0.012767,-0.004 0.016704,0 0.00787,0.008 -0.00787,0.0255 0,0.0334 0.00394,0.004 0.012767,-0.004 0.016704,0 0.00787,0.008 -0.00498,0.0235 0,0.0334 0.00352,0.007 0.013183,0.01 0.016704,0.0167 0.00498,0.01 -0.00787,0.0255 0,0.0334 0.00394,0.004 0.012767,-0.004 0.016704,0 0.00394,0.004 -0.00394,0.0128 0,0.0167 0.00394,0.004 0.012767,0.004 0.016704,0 0.00394,-0.004 -0.00249,-0.0117 0,-0.0167 0.00352,-0.007 0.013183,-0.01 0.016704,-0.0167 0.00498,-0.01 -0.00787,-0.0255 0,-0.0334 0.00394,-0.004 0.012767,0.004 0.016704,0 0.00835,-0.008 -0.00835,-0.0418 0,-0.0501 0.00394,-0.004 0.012767,0.004 0.016704,0 0.00457,-0.005 -0.00453,-0.0577 0,-0.0668 0.00352,-0.007 0.013183,-0.01 0.016704,-0.0167 0.00498,-0.01 -0.00498,-0.0234 0,-0.0334 0.00352,-0.007 0.013183,-0.01 0.016704,-0.0167 0.00498,-0.01 -0.00787,-0.0255 0,-0.0334 0.00394,-0.004 0.012767,0.004 0.016704,0 0.00787,-0.008 -0.00498,-0.0235 0,-0.0334 0.00352,-0.007 0.013183,-0.01 0.016704,-0.0167 0.00498,-0.01 -0.00498,-0.0234 0,-0.0334 0.00352,-0.007 0.013183,-0.01 0.016704,-0.0167 0.00331,-0.007 -0.00341,-0.0467 0,-0.0501 0.00394,-0.004 0.012767,0.004 0.016704,0 0.00835,-0.008 -0.00835,-0.0418 0,-0.0501 0.00394,-0.004 0.012767,0.004 0.016704,0 0.00835,-0.008 -0.00835,-0.0418 0,-0.0501 0.00394,-0.004 0.012767,0.004 0.016704,0 0.00787,-0.008 -0.00787,-0.0255 0,-0.0334 0.00394,-0.004 0.012767,0.004 0.016704,0 0.00835,-0.008 -0.00835,-0.0418 0,-0.0501 0.00394,-0.004 0.012767,0.004 0.016704,0 5.372e-4,-5.3e-4 0,-0.0461 0,-0.0501 0,-0.004 -5.372e-4,-0.0496 0,-0.0501 0.00394,-0.004 0.012767,0.004 0.016704,0 0.00394,-0.004 0,-0.0111 0,-0.0167 v -0.0835 c 0,-0.006 -0.00394,-0.0128 0,-0.0167 0.00394,-0.004 0.012767,0.004 0.016704,0 0.00246,-0.002 -0.00197,-0.0501 0,-0.0501 0.03476,0 0.00672,0.0234 0.016704,0.0334 0.00394,0.004 0.012767,-0.004 0.016704,0 0.00394,0.004 -0.00249,0.0117 0,0.0167 0.00352,0.007 0.013183,0.01 0.016704,0.0167 0.00249,0.005 -0.00394,0.0128 0,0.0167 0.00394,0.004 0.012767,-0.004 0.016704,0 0.00394,0.004 -0.00249,0.0117 0,0.0167 0.00352,0.007 0.013183,0.01 0.016704,0.0167 0.00249,0.005 -0.00394,0.0128 0,0.0167 0.00394,0.004 0.012767,-0.004 0.016704,0 0.00394,0.004 -0.00394,0.0128 0,0.0167 0.00394,0.004 0.012767,-0.004 0.016704,0 0.00394,0.004 -0.00249,0.0117 0,0.0167 0.00222,0.004 0.045678,0.0479 0.050113,0.0501 0.00498,0.002 0.012767,-0.004 0.016704,0 0.00394,0.004 -0.00394,0.0128 0,0.0167 0.00787,0.008 0.025534,-0.008 0.033409,0 0.00394,0.004 -0.00394,0.0128 0,0.0167 0.00167,0.002 0.048443,0.002 0.050113,0 0.00787,-0.008 -0.00787,-0.0255 0,-0.0334 0.00394,-0.004 0.012767,0.004 0.016704,0 0.00402,-0.004 -0.00402,-0.0628 0,-0.0668 0.00394,-0.004 0.012767,0.004 0.016704,0 0.00835,-0.008 -0.00835,-0.0418 0,-0.0501 0.00394,-0.004 0.012767,0.004 0.016704,0 0.00394,-0.004 -0.00394,-0.0128 0,-0.0167 0.00341,-0.003 0.04349,0.003 0.050113,0 0.014086,-0.007 0.019322,-0.0264 0.033409,-0.0334 0.00498,-0.002 0.012767,0.004 0.016704,0 0.00394,-0.004 -0.00394,-0.0128 0,-0.0167 0.00394,-0.004 0.012767,0.004 0.016704,0 0.00394,-0.004 -0.00557,-0.0167 0,-0.0167 0.012451,0 0.029155,0.0334 0.016704,0.0334 -0.00557,0 -0.00394,-0.0128 0,-0.0167 0.00394,-0.004 0.012767,0.004 0.016704,0 0.00394,-0.004 -0.00394,-0.0128 0,-0.0167 0.022272,-0.0223 0.016704,0.0278 0.016704,-0.0167 v -0.13363 -0.0167 c 0,-0.006 -0.00394,-0.0128 0,-0.0167 0.00394,-0.004 0.012767,0.004 0.016704,0 0.00394,-0.004 -0.00394,-0.0128 0,-0.0167 0.00394,-0.004 0.012767,0.004 0.016704,0 0.00394,-0.004 -0.00394,-0.0128 0,-0.0167 0.00394,-0.004 0.012767,0.004 0.016704,0 0.00394,-0.004 -0.00394,-0.0128 0,-0.0167 0.00394,-0.004 0.011136,0 0.016704,0 h 0.016704 c -0.026464,0 -0.065054,0.005 0,-0.0167 0.00528,-0.002 0.012767,0.004 0.016704,0 0.00787,-0.008 -0.00787,-0.0255 0,-0.0334 0.00394,-0.004 0.012767,0.004 0.016704,0 0.00787,-0.008 -0.00787,-0.0255 0,-0.0334 0.00394,-0.004 0.012767,0.004 0.016704,0 0.00835,-0.008 -0.00835,-0.0418 0,-0.0501 0.00394,-0.004 0.012767,0.004 0.016704,0 0.00787,-0.008 -0.00787,-0.0255 0,-0.0334 0.00394,-0.004 0.012767,0.004 0.016704,0 0.00394,-0.004 0.00223,-0.0116 0,-0.0167 -0.00914,-0.021 -0.022273,-0.0399 -0.033409,-0.0599 z"
       id="path6979"
       inkscape:connector-curvature="0"
       sodipodi:nodetypes="cscsccccccccccccccccccccscccccccccccccccccccccccccccccccccccccccccccccccccccsccssccscccccccccccccccccccccccccccccccsscccscscccccccscccccccccccccc" />
    <path
       style="fill:none;stroke:#000000;stroke-width:0.26458332px;stroke-linecap:butt;stroke-linejoin:miter;stroke-opacity:1"
       d="m 0,257.31249 v 39.6875 h 23.8125 l 0,-39.6875 z"
       id="path6867"
       inkscape:connector-curvature="0"
       sodipodi:nodetypes="ccccc" />
  </g>
</svg>
