<?xml version="1.0" encoding="UTF-8" standalone="no"?>
<!-- Created with Inkscape (http://www.inkscape.org/) -->

<svg
   xmlns:dc="http://purl.org/dc/elements/1.1/"
   xmlns:cc="http://creativecommons.org/ns#"
   xmlns:rdf="http://www.w3.org/1999/02/22-rdf-syntax-ns#"
   xmlns:svg="http://www.w3.org/2000/svg"
   xmlns="http://www.w3.org/2000/svg"
   xmlns:xlink="http://www.w3.org/1999/xlink"
   xmlns:sodipodi="http://sodipodi.sourceforge.net/DTD/sodipodi-0.dtd"
   xmlns:inkscape="http://www.inkscape.org/namespaces/inkscape"
   width="200"
   height="200"
   viewBox="0 0 52.916665 52.916668"
   version="1.1"
   id="svg8"
   inkscape:version="0.92.1 r15371"
   sodipodi:docname="Chiclete.svg">
  <defs
     id="defs2">
    <inkscape:path-effect
       effect="roughen"
       id="path-effect7964"
       is_visible="true"
       method="segments"
       max_segment_size="10"
       segments="1"
       displace_x="10;1"
       displace_y="10;1"
       global_randomize="1;1833682537"
       handles="along"
       shift_nodes="true"
       fixed_displacement="false"
       spray_tool_friendly="false" />
    <linearGradient
       inkscape:collect="always"
       id="linearGradient7707">
      <stop
         style="stop-color:#ffd5f6;stop-opacity:0"
         offset="0"
         id="stop7697" />
      <stop
         id="stop7699"
         offset="0.05529472"
         style="stop-color:#ff2ad4;stop-opacity:0" />
      <stop
         id="stop7701"
         offset="0.10017806"
         style="stop-color:#fe00ca;stop-opacity:1" />
      <stop
         style="stop-color:#f900ca;stop-opacity:1"
         offset="0.1528649"
         id="stop7703" />
      <stop
         style="stop-color:#d271cb;stop-opacity:0"
         offset="1"
         id="stop7705" />
    </linearGradient>
    <linearGradient
       id="linearGradient7446-9"
       inkscape:collect="always">
      <stop
         id="stop7436"
         offset="0"
         style="stop-color:#ffd5f6;stop-opacity:0" />
      <stop
         style="stop-color:#ff2ad4;stop-opacity:0"
         offset="0.89701772"
         id="stop7438" />
      <stop
         style="stop-color:#fe00ca;stop-opacity:1"
         offset="0.95274949"
         id="stop7440" />
      <stop
         id="stop7442"
         offset="0.95918047"
         style="stop-color:#f900ca;stop-opacity:1" />
      <stop
         id="stop7444"
         offset="1"
         style="stop-color:#d271cb;stop-opacity:0" />
    </linearGradient>
    <linearGradient
       inkscape:collect="always"
       id="linearGradient6762-1">
      <stop
         style="stop-color:#ffd5f6;stop-opacity:1"
         offset="0"
         id="stop6758" />
      <stop
         id="stop6768"
         offset="0.36190525"
         style="stop-color:#ffaaee;stop-opacity:1" />
      <stop
         id="stop6766"
         offset="0.59047669"
         style="stop-color:#ff80e5;stop-opacity:1" />
      <stop
         style="stop-color:#ff55dd;stop-opacity:1"
         offset="0.74285764"
         id="stop6770" />
      <stop
         style="stop-color:#ff2ad4;stop-opacity:1"
         offset="1"
         id="stop6760" />
    </linearGradient>
    <inkscape:path-effect
       effect="roughen"
       id="path-effect4523"
       is_visible="true"
       method="segments"
       max_segment_size="10"
       segments="2"
       displace_x="10;1913437053"
       displace_y="10;619678827"
       global_randomize="1;-60182168"
       handles="along"
       shift_nodes="true"
       fixed_displacement="false"
       spray_tool_friendly="false" />
    <inkscape:path-effect
       effect="roughen"
       id="path-effect4491"
       is_visible="true"
       method="segments"
       max_segment_size="13"
       segments="161"
       displace_x="11.4;6793843"
       displace_y="10.1;2095453986"
       global_randomize="1;-768646490"
       handles="along"
       shift_nodes="true"
       fixed_displacement="false"
       spray_tool_friendly="true" />
    <inkscape:path-effect
       effect="lattice2"
       gridpoint0="15.371111,256.65103"
       gridpoint1="37.734545,256.65103"
       gridpoint2="14.646578,281.51445"
       gridpoint3="38.459078,281.51445"
       gridpoint4="20.599703,256.65103"
       gridpoint5="32.505953,256.65103"
       gridpoint6="20.599703,280.46353"
       gridpoint7="32.505953,280.46353"
       gridpoint8x9="26.552828,256.65103"
       gridpoint10x11="26.552828,280.46353"
       gridpoint12="14.646578,262.60416"
       gridpoint13="38.459078,262.60416"
       gridpoint14="14.646578,274.51041"
       gridpoint15="38.459078,274.51041"
       gridpoint16="20.599703,262.60416"
       gridpoint17="32.505953,262.60416"
       gridpoint18="20.599703,274.51041"
       gridpoint19="32.505953,274.51041"
       gridpoint20x21="26.552828,262.60416"
       gridpoint22x23="26.552828,274.51041"
       gridpoint24x26="14.646578,268.55728"
       gridpoint25x27="38.459078,268.55728"
       gridpoint28x30="20.599703,268.55728"
       gridpoint29x31="32.505953,268.55728"
       gridpoint32x33x34x35="26.552828,268.55728"
       id="path-effect4489"
       is_visible="true"
       horizontal_mirror="false"
       vertical_mirror="true"
       live_update="true" />
    <inkscape:path-effect
       effect="bend_path"
       id="path-effect4487"
       is_visible="true"
       bendpath="m 13.040179,272.05356 24.473958,-4.44122"
       prop_scale="1"
       scale_y_rel="false"
       vertical="false"
       bendpath-nodetypes="cc" />
    <filter
       inkscape:label="Sharpen More"
       inkscape:menu="Image Effects"
       inkscape:menu-tooltip="Sharpen edges and boundaries within the object, force=0.3"
       style="color-interpolation-filters:sRGB;"
       id="filter6521">
      <feGaussianBlur
         result="result0"
         in="SourceGraphic"
         stdDeviation="0.5"
         id="feGaussianBlur6495" />
      <feTurbulence
         baseFrequency="0.2"
         seed="300"
         numOctaves="10"
         result="result1"
         type="fractalNoise"
         id="feTurbulence6497" />
      <feGaussianBlur
         stdDeviation="0.5"
         result="result8"
         id="feGaussianBlur6499" />
      <feDisplacementMap
         result="result7"
         in2="result8"
         scale="5"
         in="result0"
         xChannelSelector="R"
         id="feDisplacementMap6501" />
      <feComposite
         result="result2"
         operator="in"
         in2="result1"
         in="result7"
         id="feComposite6503" />
      <feComposite
         k3="3"
         in2="result2"
         in="result0"
         operator="arithmetic"
         id="feComposite6505" />
      <feBlend
         result="fbSourceGraphic"
         mode="multiply"
         in2="result2"
         id="feBlend6507" />
      <feColorMatrix
         values="1 0 0 -1 0 1 0 1 -1 0 1 0 0 -1 0 -1.8 -0.5 0 5.7 -3.5 "
         in="fbSourceGraphic"
         result="fbSourceGraphicAlpha"
         id="feColorMatrix6509" />
      <feGaussianBlur
         stdDeviation="0.5"
         in="fbSourceGraphicAlpha"
         result="result0"
         id="feGaussianBlur6511" />
      <feSpecularLighting
         result="result6"
         surfaceScale="5"
         specularExponent="3"
         id="feSpecularLighting6515">
        <feDistantLight
           azimuth="225"
           elevation="10"
           id="feDistantLight6513" />
      </feSpecularLighting>
      <feComposite
         in2="fbSourceGraphicAlpha"
         in="result6"
         result="result2"
         operator="in"
         id="feComposite6517" />
      <feComposite
         in="fbSourceGraphic"
         result="fbSourceGraphic"
         operator="arithmetic"
         k2="1"
         k3="0.7"
         in2="result2"
         id="feComposite6519" />
      <feColorMatrix
         result="fbSourceGraphicAlpha"
         in="fbSourceGraphic"
         values="0 0 0 -1 0 0 0 0 -1 0 0 0 0 -1 0 0 0 0 1 0"
         id="feColorMatrix6739" />
      <feConvolveMatrix
         id="feConvolveMatrix6741"
         targetY="1"
         targetX="1"
         in="fbSourceGraphic"
         divisor="1"
         kernelMatrix="0 -0.3 0 -0.3 2.2 -0.3 0 -0.3 0"
         order="3 3"
         result="result1" />
      <feBlend
         in2="fbSourceGraphic"
         id="feBlend6743"
         mode="normal"
         result="result2" />
    </filter>
    <radialGradient
       inkscape:collect="always"
       xlink:href="#linearGradient6762-1"
       id="radialGradient6764"
       cx="-21.311872"
       cy="251.67123"
       fx="-21.311872"
       fy="251.67123"
       r="9.921875"
       gradientUnits="userSpaceOnUse"
       gradientTransform="matrix(1.382556,0.50217598,-0.38805851,1.068371,110.59533,-8.0679288)" />
    <radialGradient
       inkscape:collect="always"
       xlink:href="#linearGradient7446-9"
       id="radialGradient7448"
       gradientUnits="userSpaceOnUse"
       gradientTransform="matrix(1.0347923,-0.00336723,0.00335003,1.0298231,4.3754537,-7.7858927)"
       cx="-17.17688"
       cy="254.70975"
       fx="-17.17688"
       fy="254.70975"
       r="9.921875" />
    <filter
       inkscape:collect="always"
       style="color-interpolation-filters:sRGB"
       id="filter7574"
       x="-0.0264"
       width="1.0528"
       y="-0.0264"
       height="1.0528">
      <feGaussianBlur
         inkscape:collect="always"
         stdDeviation="0.21828125"
         id="feGaussianBlur7576" />
    </filter>
    <filter
       inkscape:collect="always"
       style="color-interpolation-filters:sRGB"
       id="filter7646"
       x="-0.0072"
       width="1.0144"
       y="-0.0072"
       height="1.0144">
      <feGaussianBlur
         inkscape:collect="always"
         stdDeviation="0.05953125"
         id="feGaussianBlur7648" />
    </filter>
    <radialGradient
       inkscape:collect="always"
       xlink:href="#linearGradient7707"
       id="radialGradient7448-8"
       gradientUnits="userSpaceOnUse"
       gradientTransform="matrix(0.99419123,-9.9527412e-7,0,0.98941704,4.2309696,2.5625669)"
       cx="-17.17688"
       cy="254.70975"
       fx="-17.17688"
       fy="254.70975"
       r="9.921875" />
    <filter
       inkscape:collect="always"
       style="color-interpolation-filters:sRGB"
       id="filter7833"
       x="-0.0384"
       width="1.0768"
       y="-0.0384"
       height="1.0768">
      <feGaussianBlur
         inkscape:collect="always"
         stdDeviation="0.3175"
         id="feGaussianBlur7835" />
    </filter>
    <filter
       inkscape:label="Bubbly Bumps"
       inkscape:menu="Bumps"
       inkscape:menu-tooltip="Flexible bubbles effect with some displacement"
       height="1.4"
       y="-0.2"
       width="1.4"
       x="-0.2"
       style="color-interpolation-filters:sRGB;"
       id="filter7936">
      <feTurbulence
         baseFrequency="0.05"
         numOctaves="5"
         type="fractalNoise"
         result="result91"
         id="feTurbulence7930" />
      <feDisplacementMap
         scale="25"
         result="result5"
         xChannelSelector="R"
         in="SourceGraphic"
         in2="result91"
         id="feDisplacementMap7932" />
      <feComposite
         in="SourceGraphic"
         operator="atop"
         in2="result5"
         id="feComposite7934"
         result="fbSourceGraphic" />
      <feColorMatrix
         result="fbSourceGraphicAlpha"
         in="fbSourceGraphic"
         values="0 0 0 -1 0 0 0 0 -1 0 0 0 0 -1 0 0 0 0 1 0"
         id="feColorMatrix7966" />
      <feGaussianBlur
         id="feGaussianBlur7968"
         result="result0"
         in="fbSourceGraphic"
         stdDeviation="0.5" />
      <feTurbulence
         id="feTurbulence7970"
         baseFrequency="0.2"
         seed="300"
         numOctaves="10"
         result="result1"
         type="fractalNoise" />
      <feGaussianBlur
         id="feGaussianBlur7972"
         stdDeviation="0.5"
         result="result8" />
      <feDisplacementMap
         in2="result8"
         id="feDisplacementMap7974"
         result="result7"
         scale="5"
         in="result0"
         xChannelSelector="R" />
      <feComposite
         in2="result1"
         id="feComposite7976"
         result="result2"
         operator="in"
         in="result7" />
      <feComposite
         in2="result2"
         id="feComposite7978"
         k3="3"
         in="result0"
         operator="arithmetic"
         result="result92" />
      <feBlend
         in2="result2"
         id="feBlend7980"
         result="fbSourceGraphic"
         mode="multiply" />
      <feColorMatrix
         id="feColorMatrix7982"
         values="1 0 0 -1 0 1 0 1 -1 0 1 0 0 -1 0 -1.8 -0.5 0 5.7 -3.5 "
         in="fbSourceGraphic"
         result="fbSourceGraphicAlpha" />
      <feGaussianBlur
         id="feGaussianBlur7984"
         stdDeviation="0.5"
         in="fbSourceGraphicAlpha"
         result="result0" />
      <feSpecularLighting
         id="feSpecularLighting7986"
         result="result6"
         surfaceScale="5"
         specularExponent="3">
        <feDistantLight
           id="feDistantLight7988"
           azimuth="225"
           elevation="10" />
      </feSpecularLighting>
      <feComposite
         in2="fbSourceGraphicAlpha"
         id="feComposite7990"
         in="result6"
         result="result2"
         operator="in" />
      <feComposite
         in2="result2"
         id="feComposite7992"
         in="fbSourceGraphic"
         result="result4"
         operator="arithmetic"
         k2="1"
         k3="0.7" />
    </filter>
    <filter
       inkscape:collect="always"
       style="color-interpolation-filters:sRGB"
       id="filter8628"
       x="-0.019966438"
       width="1.0399329"
       y="-0.0231907"
       height="1.0463814">
      <feGaussianBlur
         inkscape:collect="always"
         stdDeviation="0.043914292"
         id="feGaussianBlur8630" />
    </filter>
    <filter
       inkscape:collect="always"
       style="color-interpolation-filters:sRGB"
       id="filter8632"
       x="-0.11683994"
       width="1.2336799"
       y="-0.77597244"
       height="2.5519449">
      <feGaussianBlur
         inkscape:collect="always"
         stdDeviation="0.043914292"
         id="feGaussianBlur8634" />
    </filter>
    <filter
       inkscape:collect="always"
       style="color-interpolation-filters:sRGB"
       id="filter8636"
       x="-0.16603228"
       width="1.3320646"
       y="-0.28511746"
       height="1.5702349">
      <feGaussianBlur
         inkscape:collect="always"
         stdDeviation="0.043914292"
         id="feGaussianBlur8638" />
    </filter>
    <filter
       inkscape:collect="always"
       style="color-interpolation-filters:sRGB"
       id="filter8640"
       x="-0.12133227"
       width="1.2426645"
       y="-0.34918473"
       height="1.6983695">
      <feGaussianBlur
         inkscape:collect="always"
         stdDeviation="0.043914292"
         id="feGaussianBlur8642" />
    </filter>
    <filter
       inkscape:collect="always"
       style="color-interpolation-filters:sRGB"
       id="filter8644"
       x="-0.12599726"
       width="1.2519945"
       y="-0.13719644"
       height="1.2743929">
      <feGaussianBlur
         inkscape:collect="always"
         stdDeviation="0.043914292"
         id="feGaussianBlur8646" />
    </filter>
    <filter
       inkscape:collect="always"
       style="color-interpolation-filters:sRGB"
       id="filter8648"
       x="-0.17489581"
       width="1.3497916"
       y="-0.092806902"
       height="1.1856138">
      <feGaussianBlur
         inkscape:collect="always"
         stdDeviation="0.043914292"
         id="feGaussianBlur8650" />
    </filter>
    <filter
       inkscape:collect="always"
       style="color-interpolation-filters:sRGB"
       id="filter8652"
       x="-0.11667672"
       width="1.2333534"
       y="-0.070925395"
       height="1.1418508">
      <feGaussianBlur
         inkscape:collect="always"
         stdDeviation="0.043914292"
         id="feGaussianBlur8654" />
    </filter>
  </defs>
  <sodipodi:namedview
     id="base"
     pagecolor="#ffffff"
     bordercolor="#666666"
     borderopacity="1.0"
     inkscape:pageopacity="0.0"
     inkscape:pageshadow="2"
     inkscape:zoom="3.959798"
     inkscape:cx="135.19514"
     inkscape:cy="79.558304"
     inkscape:document-units="px"
     inkscape:current-layer="layer1"
     showgrid="false"
     units="px"
     inkscape:pagecheckerboard="true"
     inkscape:window-width="1920"
     inkscape:window-height="1001"
     inkscape:window-x="-9"
     inkscape:window-y="-9"
     inkscape:window-maximized="1" />
  <metadata
     id="metadata5">
    <rdf:RDF>
      <cc:Work
         rdf:about="">
        <dc:format>image/svg+xml</dc:format>
        <dc:type
           rdf:resource="http://purl.org/dc/dcmitype/StillImage" />
        <dc:title></dc:title>
      </cc:Work>
    </rdf:RDF>
  </metadata>
  <g
     inkscape:label="Camada 1"
     inkscape:groupmode="layer"
     id="layer1"
     transform="translate(0,-244.08332)">
    <circle
       style="opacity:1;fill:#ff55dd;fill-opacity:1;stroke:none;stroke-width:0.09010958;stroke-miterlimit:4;stroke-dasharray:none;filter:url(#filter7936)"
       id="path7846"
       cx="14.731047"
       cy="276.12173"
       r="11.90625" />
    <path
       style="fill:#ffaaee;stroke:#800066;stroke-width:0.0269875;stroke-linecap:butt;stroke-linejoin:miter;stroke-opacity:1;stroke-miterlimit:4;stroke-dasharray:none;opacity:0.496;filter:url(#filter8652)"
       d="m 11.091685,277.42249 c 0.336487,-0.0733 0.05431,0.12113 0.100226,0.16705 0.0079,0.008 0.02554,-0.008 0.03341,0 0.01575,0.0157 -0.01575,0.0511 0,0.0668 0.0079,0.008 0.02553,-0.008 0.03341,0 0.0079,0.008 -0.0079,0.0255 0,0.0334 0.0079,0.008 0.02553,-0.008 0.03341,0 0.0079,0.008 -0.005,0.0235 0,0.0334 0.007,0.0141 0.02637,0.0193 0.03341,0.0334 0.005,0.01 -0.005,0.0234 0,0.0334 0.007,0.0141 0.02637,0.0193 0.03341,0.0334 0.005,0.01 -0.0079,0.0255 0,0.0334 0.0079,0.008 0.02553,-0.008 0.03341,0 0.0079,0.008 -0.0079,0.0255 0,0.0334 0.0079,0.008 0.02553,-0.008 0.03341,0 0.01575,0.0157 -0.01575,0.0511 0,0.0668 0.0079,0.008 0.02553,-0.008 0.03341,0 0.0079,0.008 -0.005,0.0234 0,0.0334 0.007,0.0141 0.02637,0.0193 0.03341,0.0334 0.005,0.01 -0.0079,0.0255 0,0.0334 0.0079,0.008 0.02553,-0.008 0.03341,0 0.01575,0.0157 -0.01575,0.0511 0,0.0668 0.0079,0.008 0.02553,-0.008 0.03341,0 0.01575,0.0157 -0.01575,0.0511 0,0.0668 0.0079,0.008 0.02553,-0.008 0.03341,0 0.01575,0.0157 -0.01575,0.0511 0,0.0668 0.0079,0.008 0.02554,-0.008 0.03341,0 0.0079,0.008 -0.005,0.0234 0,0.0334 0.007,0.0141 0.02637,0.0193 0.03341,0.0334 0.005,0.01 -0.005,0.0234 0,0.0334 0.007,0.0141 0.02637,0.0193 0.03341,0.0334 0.005,0.01 -0.0079,0.0255 0,0.0334 0.0079,0.008 0.02553,-0.008 0.03341,0 0.01575,0.0157 -0.01575,0.0511 0,0.0668 0.0079,0.008 0.02553,-0.008 0.03341,0 0.01575,0.0157 -0.01575,0.0511 0,0.0668 0.0079,0.008 0.02553,-0.008 0.03341,0 0.0079,0.008 -0.0079,0.0255 0,0.0334 0.0079,0.008 0.02554,-0.008 0.03341,0 0.01575,0.0157 -0.01575,0.0511 0,0.0668 0.0079,0.008 0.02553,-0.008 0.03341,0 0.0079,0.008 -0.005,0.0234 0,0.0334 0.007,0.0141 0.02637,0.0193 0.03341,0.0334 0.005,0.01 -0.0079,0.0255 0,0.0334 0.0079,0.008 0.02553,-0.008 0.03341,0 0.01575,0.0157 -0.01575,0.0511 0,0.0668 0.0079,0.008 0.02553,-0.008 0.03341,0 0.0079,0.008 -0.0079,0.0255 0,0.0334 0.04454,0.0445 0.03341,-0.0557 0.03341,0.0334"
       id="path7994"
       inkscape:connector-curvature="0" />
    <path
       style="fill:#ffaaee;stroke:#800066;stroke-width:0.0269875;stroke-linecap:butt;stroke-linejoin:miter;stroke-opacity:1;stroke-miterlimit:4;stroke-dasharray:none;opacity:0.496;filter:url(#filter8648)"
       d="m 13.26325,277.52272 c -0.03341,0.0445 -0.06682,0.0891 -0.100226,0.13363 0,0.0111 0.0062,0.0242 0,0.0334 -0.01747,0.0262 -0.04935,0.0406 -0.06682,0.0668 -0.01235,0.0185 0.01575,0.0511 0,0.0668 -0.0079,0.008 -0.02553,-0.008 -0.03341,0 -0.01575,0.0157 0.01575,0.0511 0,0.0668 -0.0079,0.008 -0.02554,-0.008 -0.03341,0 -0.01575,0.0157 0.01575,0.0511 0,0.0668 -0.0079,0.008 -0.02553,-0.008 -0.03341,0 -0.01575,0.0157 0.01575,0.0511 0,0.0668 -0.0079,0.008 -0.02553,-0.008 -0.03341,0 -0.01575,0.0157 0.01575,0.0511 0,0.0668 -0.0079,0.008 -0.02553,-0.008 -0.03341,0 -0.01575,0.0157 0.01575,0.0511 0,0.0668 -0.0079,0.008 -0.02554,-0.008 -0.03341,0 -0.01575,0.0157 0.01,0.0469 0,0.0668 -0.007,0.0141 -0.02637,0.0193 -0.03341,0.0334 -0.005,0.01 0.005,0.0234 0,0.0334 -0.007,0.0141 -0.02637,0.0193 -0.03341,0.0334 -0.005,0.01 0.0079,0.0255 0,0.0334 -0.0079,0.008 -0.02553,-0.008 -0.03341,0 -0.01575,0.0157 0.01575,0.0511 0,0.0668 -0.0079,0.008 -0.02553,-0.008 -0.03341,0 -0.01575,0.0157 0.01575,0.0511 0,0.0668 -0.0079,0.008 -0.02553,-0.008 -0.03341,0 -0.01575,0.0157 0.01,0.0469 0,0.0668 -0.007,0.0141 -0.02637,0.0193 -0.03341,0.0334 -0.005,0.01 0.0079,0.0255 0,0.0334 -0.04454,0.0445 -0.03341,-0.0557 -0.03341,0.0334"
       id="path7996"
       inkscape:connector-curvature="0" />
    <path
       style="fill:#ffaaee;stroke:#800066;stroke-width:0.0269875;stroke-linecap:butt;stroke-linejoin:miter;stroke-opacity:1;stroke-miterlimit:4;stroke-dasharray:none;opacity:0.496;filter:url(#filter8644)"
       d="m 14.599598,278.15749 c -0.04455,0.0111 -0.08909,0.0223 -0.133635,0.0334 -0.01114,0.0111 -0.01932,0.0264 -0.03341,0.0334 -0.01,0.005 -0.02553,-0.008 -0.03341,0 -0.0079,0.008 0.005,0.0234 0,0.0334 -0.06952,0.13904 0.0023,-0.0357 -0.06682,0.0334 -0.0079,0.008 0.005,0.0234 0,0.0334 -0.007,0.0141 -0.02227,0.0223 -0.03341,0.0334 -0.01114,0.0111 -0.01932,0.0264 -0.03341,0.0334 -0.01,0.005 -0.02553,-0.008 -0.03341,0 -0.0079,0.008 0.005,0.0234 0,0.0334 -0.007,0.0141 -0.02227,0.0223 -0.03341,0.0334 -0.01114,0.0111 -0.01932,0.0264 -0.03341,0.0334 -0.01,0.005 -0.02554,-0.008 -0.03341,0 -0.0079,0.008 0.005,0.0234 0,0.0334 -0.01409,0.0282 -0.05273,0.0386 -0.06682,0.0668 -0.005,0.01 0.0079,0.0255 0,0.0334 -0.0079,0.008 -0.02553,-0.008 -0.03341,0 -0.0079,0.008 0.0079,0.0255 0,0.0334 -0.0079,0.008 -0.02227,0 -0.03341,0 0,0.0111 0.005,0.0234 0,0.0334 -0.06952,0.13904 0.0023,-0.0357 -0.06682,0.0334 0,0.0891 0.01114,-0.0111 -0.03341,0.0334 -0.0079,0.008 0.0079,0.0255 0,0.0334 -0.0079,0.008 -0.02553,-0.008 -0.03341,0 -0.0079,0.008 0.0079,0.0255 0,0.0334 -0.0079,0.008 -0.02553,-0.008 -0.03341,0 -0.0079,0.008 0.0079,0.0255 0,0.0334 -0.0079,0.008 -0.02554,-0.008 -0.03341,0 -0.0079,0.008 0.0079,0.0255 0,0.0334 -0.04454,0.0446 -0.03341,-0.0557 -0.03341,0.0334"
       id="path7998"
       inkscape:connector-curvature="0" />
    <path
       style="fill:#ffaaee;stroke:#800066;stroke-width:0.0269875;stroke-linecap:butt;stroke-linejoin:miter;stroke-opacity:1;stroke-miterlimit:4;stroke-dasharray:none;opacity:0.496;filter:url(#filter8640)"
       d="m 15.434815,281.06404 c -0.04455,-0.0111 -0.08909,-0.0223 -0.133635,-0.0334 -0.02227,-0.0111 -0.04319,-0.0255 -0.06682,-0.0334 -0.013,-0.004 -0.09504,0.005 -0.100226,0 -0.0079,-0.008 0.0079,-0.0255 0,-0.0334 -0.0091,-0.009 -0.115511,0.009 -0.133635,0 -0.01409,-0.007 -0.01932,-0.0264 -0.03341,-0.0334 -0.01,-0.005 -0.02345,0.005 -0.03341,0 -0.01409,-0.007 -0.01932,-0.0264 -0.03341,-0.0334 -0.01992,-0.01 -0.05107,0.0157 -0.06682,0 -0.0079,-0.008 0.0079,-0.0255 0,-0.0334 -0.0167,-0.0167 -0.08352,0.0167 -0.100226,0 -0.0079,-0.008 0.0079,-0.0255 0,-0.0334 -0.01575,-0.0157 -0.05107,0.0157 -0.06682,0 -0.0079,-0.008 0.0079,-0.0255 0,-0.0334 -0.01575,-0.0157 -0.05107,0.0157 -0.06682,0 -0.04455,-0.0445 0.05568,-0.0334 -0.03341,-0.0334"
       id="path8000"
       inkscape:connector-curvature="0" />
    <path
       style="fill:#ffaaee;stroke:#800066;stroke-width:0.0269875;stroke-linecap:butt;stroke-linejoin:miter;stroke-opacity:1;stroke-miterlimit:4;stroke-dasharray:none;opacity:0.496;filter:url(#filter8636)"
       d="m 14.833459,282.60084 c -0.04454,-0.0334 -0.08909,-0.0668 -0.133635,-0.10023 0,-0.0111 0.0079,-0.0255 0,-0.0334 -0.0079,-0.008 -0.02553,0.008 -0.03341,0 -0.0079,-0.008 0.0079,-0.0255 0,-0.0334 -0.0079,-0.008 -0.02554,0.008 -0.03341,0 -0.0079,-0.008 0.0079,-0.0255 0,-0.0334 -0.01575,-0.0157 -0.05107,0.0157 -0.06682,0 -0.0079,-0.008 0.0079,-0.0255 0,-0.0334 -0.0079,-0.008 -0.02553,0.008 -0.03341,0 -0.0079,-0.008 0.0079,-0.0255 0,-0.0334 -0.01575,-0.0157 -0.05107,0.0157 -0.06682,0 -0.0079,-0.008 0.0079,-0.0255 0,-0.0334 -0.01575,-0.0157 -0.05107,0.0157 -0.06682,0 -0.0079,-0.008 0.0079,-0.0255 0,-0.0334 -0.01575,-0.0157 -0.0469,0.01 -0.06682,0 -0.01409,-0.007 -0.01932,-0.0263 -0.03341,-0.0334 -0.01017,-0.005 -0.08518,0 -0.100227,0"
       id="path8002"
       inkscape:connector-curvature="0" />
    <path
       style="fill:#ffaaee;stroke:#800066;stroke-width:0.0269875;stroke-linecap:butt;stroke-linejoin:miter;stroke-opacity:1;stroke-miterlimit:4;stroke-dasharray:none;opacity:0.496;filter:url(#filter8632)"
       d="m 15.56845,280.22882 c -0.04455,-0.0111 -0.09257,-0.0129 -0.133635,-0.0334 -0.01,-0.005 0.0079,-0.0255 0,-0.0334 -0.0167,-0.0167 -0.08352,0.0167 -0.100226,0 -0.0079,-0.008 0.0079,-0.0255 0,-0.0334 -0.0068,-0.007 -0.08698,0.007 -0.100226,0 -0.01409,-0.007 -0.01932,-0.0264 -0.03341,-0.0334 -0.0088,-0.004 -0.116164,0 -0.133635,0 -0.05568,0 -0.111362,0 -0.167043,0 -0.01114,0 -0.02227,0 -0.03341,0 -0.01114,0 -0.02345,-0.005 -0.03341,0 -0.01409,0.007 -0.01932,0.0263 -0.03341,0.0334 -0.0088,0.004 -0.116165,0 -0.133635,0"
       id="path8008"
       inkscape:connector-curvature="0" />
    <path
       style="fill:#ffaaee;stroke:#800066;stroke-width:0.0269875;stroke-linecap:butt;stroke-linejoin:miter;stroke-opacity:1;stroke-miterlimit:4;stroke-dasharray:none;opacity:0.496;filter:url(#filter8628)"
       d="m 15.234363,278.95929 c -0.07941,0.0339 -0.126265,0.0334 -0.200452,0.0334 -0.01114,0 -0.02553,-0.008 -0.03341,0 -0.0079,0.008 0.0079,0.0255 0,0.0334 -0.0167,0.0167 -0.08352,-0.0167 -0.100226,0 -0.0079,0.008 0.0079,0.0255 0,0.0334 -0.01575,0.0157 -0.05107,-0.0157 -0.06682,0 -0.0079,0.008 0.0079,0.0255 0,0.0334 -0.01575,0.0157 -0.05107,-0.0157 -0.06682,0 -0.0079,0.008 0.0079,0.0255 0,0.0334 -0.0079,0.008 -0.02345,-0.005 -0.03341,0 -0.01409,0.007 -0.01932,0.0263 -0.03341,0.0334 -0.01,0.005 -0.02553,-0.008 -0.03341,0 -0.0079,0.008 0.0079,0.0255 0,0.0334 -0.0079,0.008 -0.02345,-0.005 -0.03341,0 -0.01409,0.007 -0.01932,0.0264 -0.03341,0.0334 -0.01,0.005 -0.02553,-0.008 -0.03341,0 -0.0079,0.008 0.0079,0.0255 0,0.0334 -0.0079,0.008 -0.02553,-0.008 -0.03341,0 -0.0079,0.008 0.0079,0.0255 0,0.0334 -0.0079,0.008 -0.02553,-0.008 -0.03341,0 -0.0079,0.008 0.0079,0.0255 0,0.0334 -0.0079,0.008 -0.02553,-0.008 -0.03341,0 -0.0079,0.008 0.0079,0.0255 0,0.0334 -0.06912,0.0691 0.0027,-0.10563 -0.06682,0.0334 -0.005,0.01 0.0079,0.0255 0,0.0334 -0.01575,0.0158 -0.05107,-0.0157 -0.06682,0 0,0.0891 0.01114,-0.0111 -0.03341,0.0334 -0.0079,0.008 0.0079,0.0255 0,0.0334 -0.0079,0.008 -0.03341,0.0111 -0.03341,0 0,-0.0111 0.02553,-0.008 0.03341,0 0.0079,0.008 0,0.0223 0,0.0334 m -0.868601,3.14057 c 0.04454,0.0223 0.08909,0.0445 0.133635,0.0668 0,0.0111 -0.0079,0.0255 0,0.0334 0.0079,0.008 0.02553,-0.008 0.03341,0 0.0079,0.008 -0.005,0.0235 0,0.0334 0.007,0.0141 0.02637,0.0193 0.03341,0.0334 0.005,0.01 -0.0079,0.0255 0,0.0334 0.0079,0.008 0.02553,-0.008 0.03341,0 0.01575,0.0158 -0.01575,0.0511 0,0.0668 0.0079,0.008 0.02553,-0.008 0.03341,0 0.01575,0.0157 -0.01575,0.0511 0,0.0668 0.0079,0.008 0.02553,-0.008 0.03341,0 0.0079,0.008 -0.0079,0.0255 0,0.0334 0.0079,0.008 0.02553,-0.008 0.03341,0 0.0079,0.008 -0.0079,0.0255 0,0.0334 0.01575,0.0158 0.05107,-0.0157 0.06682,0 0.0079,0.008 -0.0079,0.0255 0,0.0334 0.01575,0.0158 0.05107,-0.0157 0.06682,0 0.0079,0.008 -0.0079,0.0255 0,0.0334 0.01671,0.0167 0.08352,-0.0167 0.100226,0 0.0079,0.008 -0.0079,0.0255 0,0.0334 0.01034,0.0103 0.156699,-0.0104 0.167044,0 0.0079,0.008 -0.0079,0.0255 0,0.0334 0.0167,0.0167 0.08352,-0.0167 0.100226,0 0.0079,0.008 -0.0079,0.0255 0,0.0334 0.008,0.008 0.125596,-0.008 0.133635,0 0.04454,0.0445 -0.05568,0.0334 0.03341,0.0334 m 0.167028,-1.67028 c 0.04454,0 0.08909,0 0.133635,0 0,0.0111 -0.0079,0.0255 0,0.0334 0.0079,0.008 0.02553,-0.008 0.03341,0 0.0079,0.008 -0.0079,0.0255 0,0.0334 0.0079,0.008 0.02345,-0.005 0.03341,0 0.01409,0.007 0.01932,0.0264 0.03341,0.0334 0.01,0.005 0.02553,-0.008 0.03341,0 0.0079,0.008 -0.0079,0.0255 0,0.0334 0.0079,0.008 0.02554,-0.008 0.03341,0 0.0079,0.008 -0.0079,0.0255 0,0.0334 0.0079,0.008 0.02553,-0.008 0.03341,0 0.0079,0.008 -0.0079,0.0255 0,0.0334 0.0079,0.008 0.02553,-0.008 0.03341,0 0.01575,0.0157 -0.01575,0.0511 0,0.0668 0.0079,0.008 0.02553,-0.008 0.03341,0 0.0079,0.008 -0.0079,0.0255 0,0.0334 0.0079,0.008 0.02553,-0.008 0.03341,0 0.0079,0.008 -0.0079,0.0255 0,0.0334 0.0079,0.008 0.02553,-0.008 0.03341,0 0.0079,0.008 -0.0079,0.0255 0,0.0334 0.0079,0.008 0.02553,-0.008 0.03341,0 0.0079,0.008 -0.0079,0.0255 0,0.0334 0.01575,0.0157 0.05107,-0.0157 0.06682,0 0.0029,0.003 0,0.12905 0,0.0334 m -2.605895,0.7351 c 0.03611,0.14444 0.03341,0.0877 0.03341,0.16705 0,0.0111 0.0079,0.0255 0,0.0334 -0.0079,0.008 -0.02553,-0.008 -0.03341,0 -0.0013,0.001 0,0.12136 0,0.13363 0,0.0123 0.0013,0.13229 0,0.13364 -0.0079,0.008 -0.02553,-0.008 -0.03341,0 -0.01575,0.0157 0.01575,0.0511 0,0.0668 -0.0079,0.008 -0.02553,-0.008 -0.03341,0 -0.0079,0.008 0.0079,0.0255 0,0.0334 -0.0079,0.008 -0.02553,-0.008 -0.03341,0 -0.0079,0.008 0.005,0.0235 0,0.0334 -0.007,0.0141 -0.02227,0.0223 -0.03341,0.0334 m -0.668169,-0.60131 c -0.201661,-0.0171 0.0067,0.12689 -0.03341,0.16705 -0.0079,0.008 -0.02554,-0.008 -0.03341,0 -0.01575,0.0157 0.01575,0.0511 0,0.0668 -0.0079,0.008 -0.02553,-0.008 -0.03341,0 -0.01575,0.0158 0.01575,0.0511 0,0.0668 -0.0079,0.008 -0.02553,-0.008 -0.03341,0 -0.0079,0.008 0.0079,0.0255 0,0.0334 -0.0079,0.008 -0.02553,-0.008 -0.03341,0 -0.0079,0.008 0.0079,0.0255 0,0.0334 -0.0079,0.008 -0.02553,-0.008 -0.03341,0 -0.0079,0.008 0.0079,0.0255 0,0.0334 -0.0079,0.008 -0.02553,-0.008 -0.03341,0 -0.0079,0.008 0.0079,0.0255 0,0.0334 -0.0079,0.008 -0.02553,-0.008 -0.03341,0 -0.0079,0.008 0.0079,0.0255 0,0.0334 -0.0079,0.008 -0.02553,-0.008 -0.03341,0 -0.0079,0.008 0.0079,0.0255 0,0.0334 -0.01575,0.0158 -0.05107,-0.0157 -0.06682,0 -0.0079,0.008 0.0079,0.0255 0,0.0334 -0.0079,0.008 -0.02345,-0.005 -0.03341,0 -0.01409,0.007 -0.01932,0.0264 -0.03341,0.0334 -0.01,0.005 -0.02553,-0.008 -0.03341,0 -0.0079,0.008 0.0079,0.0255 0,0.0334 -0.01575,0.0158 -0.05107,-0.0157 -0.06682,0 -0.0079,0.008 0.0079,0.0255 0,0.0334 -0.01034,0.0103 -0.156698,-0.0104 -0.167043,0 -0.0079,0.008 0.0079,0.0255 0,0.0334 -0.0079,0.008 -0.02553,-0.008 -0.03341,0 -0.04454,0.0445 0.05568,0.0334 -0.03341,0.0334 m -0.200429,-0.9019 c 0.01707,0.20166 -0.126891,-0.007 -0.167043,0.0334 -0.0079,0.008 0.0079,0.0255 0,0.0334 -0.0079,0.008 -0.02553,-0.008 -0.03341,0 -0.01575,0.0157 0.01575,0.0511 0,0.0668 -0.04454,0.0445 -0.03341,-0.0557 -0.03341,0.0334 m -0.534537,-0.90199 c 0.04454,-0.0223 0.08909,-0.0446 0.133635,-0.0668 0,-0.0111 -0.0079,-0.0255 0,-0.0334 0.0079,-0.008 0.02345,0.005 0.03341,0 0.01409,-0.007 0.01932,-0.0264 0.03341,-0.0334 0.01,-0.005 0.02345,0.005 0.03341,0 0.01409,-0.007 0.01932,-0.0264 0.03341,-0.0334 0.01992,-0.01 0.05107,0.0158 0.06682,0 0.0079,-0.008 -0.0079,-0.0255 0,-0.0334 0.01575,-0.0157 0.05107,0.0158 0.06682,0 0.0079,-0.008 -0.0079,-0.0255 0,-0.0334 0.0167,-0.0167 0.08352,0.0167 0.100226,0 0.0079,-0.008 -0.0079,-0.0255 0,-0.0334 0.0167,-0.0167 0.08352,0.0167 0.100226,0 0.0079,-0.008 -0.0079,-0.0255 0,-0.0334 0.0079,-0.008 0.02553,-0.008 0.03341,0 0.0079,0.008 0,0.0223 0,0.0334 0,0.0111 0,0.0223 0,0.0334 m -0.7015941,-0.76846 c 0.044545,-0.0111 0.08861,-0.0244 0.1336351,-0.0334 0.03714,-0.007 0.09459,0 0.133634,0 0.07795,0 0.155908,0 0.233861,0 m -0.434313,-0.735 c -0.01707,0.20166 0.126891,-0.007 0.167044,0.0334 0.0079,0.008 -0.0079,0.0255 0,0.0334 0.0167,0.0167 0.08352,-0.0167 0.100226,0 0.0079,0.008 -0.0079,0.0255 0,0.0334 0.0167,0.0167 0.08352,-0.0167 0.100226,0 0.0079,0.008 -0.0079,0.0255 0,0.0334 0.03296,0.033 0.06682,-0.0684 0.06682,0.0334 m 0.03341,-0.76836 c 0.04455,0.0111 0.08909,0.0223 0.133635,0.0334 0.01114,0.0111 0.01932,0.0264 0.03341,0.0334 0.01992,0.01 0.05107,-0.0158 0.06682,0 0.0079,0.008 -0.0079,0.0255 0,0.0334 0.0167,0.0167 0.08352,-0.0167 0.100226,0 0.0079,0.008 -0.0079,0.0255 0,0.0334 0.0167,0.0167 0.08352,-0.0167 0.100226,0 0.0079,0.008 -0.0079,0.0255 0,0.0334 0.0167,0.0167 0.08352,-0.0167 0.100226,0 0.0079,0.008 -0.0079,0.0255 0,0.0334 0.01575,0.0158 0.05107,-0.0157 0.06682,0 0.0079,0.008 -0.0079,0.0255 0,0.0334 0.0079,0.008 0.02553,-0.008 0.03341,0 0.0079,0.008 -0.0079,0.0255 0,0.0334 0.04454,0.0446 0.03341,-0.0557 0.03341,0.0334 m -0.100239,-0.80173 c -0.0389,0.26144 0.124638,0.0244 0.167043,0.0668 0.0079,0.008 -0.0079,0.0255 0,0.0334 0.0079,0.008 0.02345,-0.005 0.03341,0 0.01409,0.007 0.01932,0.0264 0.03341,0.0334 0.01,0.005 0.02553,-0.008 0.03341,0 0.0079,0.008 -0.0079,0.0255 0,0.0334 0.0079,0.008 0.02553,-0.008 0.03341,0 0.0079,0.008 -0.0079,0.0255 0,0.0334 0.01575,0.0158 0.05107,-0.0157 0.06682,0 0.0079,0.008 -0.0079,0.0255 0,0.0334 0.0079,0.008 0.02553,-0.008 0.03341,0 0.0079,0.008 -0.0079,0.0255 0,0.0334 0.04455,0.0446 0.03341,-0.0557 0.03341,0.0334"
       id="path8010"
       inkscape:connector-curvature="0" />
    <g
       id="g7840"
       transform="matrix(0.92043272,0,0,0.92043272,24.732887,46.651635)"
       style="opacity:0.83999999">
      <circle
         r="9.921875"
         cy="254.66666"
         cx="-12.473216"
         id="path6523"
         style="opacity:0.39300005;fill:url(#radialGradient6764);fill-opacity:1;stroke:none;stroke-width:0.0434082;stroke-miterlimit:4;stroke-dasharray:none;filter:url(#filter7646)" />
      <circle
         r="9.921875"
         cy="254.57213"
         cx="-12.662203"
         id="path6523-2"
         style="opacity:0.80199998;fill:url(#radialGradient7448);fill-opacity:1;stroke:none;stroke-width:0.0434082;stroke-miterlimit:4;stroke-dasharray:none;filter:url(#filter7574)" />
      <circle
         r="9.921875"
         cy="254.57095"
         cx="-12.962572"
         id="path6523-2-7"
         style="opacity:0.80199998;fill:url(#radialGradient7448-8);fill-opacity:1;stroke:none;stroke-width:0.0434082;stroke-miterlimit:4;stroke-dasharray:none;filter:url(#filter7833)" />
    </g>
  </g>
</svg>
