<?xml version="1.0" encoding="UTF-8" standalone="no"?>
<!-- Created with Inkscape (http://www.inkscape.org/) -->

<svg
   xmlns:dc="http://purl.org/dc/elements/1.1/"
   xmlns:cc="http://creativecommons.org/ns#"
   xmlns:rdf="http://www.w3.org/1999/02/22-rdf-syntax-ns#"
   xmlns:svg="http://www.w3.org/2000/svg"
   xmlns="http://www.w3.org/2000/svg"
   xmlns:sodipodi="http://sodipodi.sourceforge.net/DTD/sodipodi-0.dtd"
   xmlns:inkscape="http://www.inkscape.org/namespaces/inkscape"
   sodipodi:docname="Lata.svg"
   inkscape:version="0.92.1 r15371"
   id="svg4708"
   version="1.1"
   viewBox="0 0 52.916665 52.916668"
   height="200"
   width="200">
  <sodipodi:namedview
     inkscape:measure-end="0,0"
     inkscape:measure-start="0,0"
     inkscape:window-maximized="1"
     inkscape:window-y="-9"
     inkscape:window-x="-9"
     inkscape:window-height="1001"
     inkscape:window-width="1920"
     inkscape:pagecheckerboard="true"
     units="px"
     showgrid="false"
     inkscape:current-layer="layer1"
     inkscape:document-units="px"
     inkscape:cy="91.623547"
     inkscape:cx="-5.612516"
     inkscape:zoom="2.8"
     inkscape:pageshadow="2"
     inkscape:pageopacity="0.0"
     borderopacity="1.0"
     bordercolor="#666666"
     pagecolor="#ffffff"
     id="base" />
  <defs
     id="defs4702" />
  <metadata
     id="metadata4705">
    <rdf:RDF>
      <cc:Work
         rdf:about="">
        <dc:format>image/svg+xml</dc:format>
        <dc:type
           rdf:resource="http://purl.org/dc/dcmitype/StillImage" />
        <dc:title></dc:title>
      </cc:Work>
    </rdf:RDF>
  </metadata>
  <g
     transform="translate(0,-244.08332)"
     id="layer1"
     inkscape:groupmode="layer"
     inkscape:label="Camada 1">
    <path
       inkscape:connector-curvature="0"
       id="path5165"
       d="m 13.079306,251.35781 c -0.213687,7e-5 0.148049,0.96178 -0.06356,0.97204 -0.21161,0.0103 -0.640229,-0.97107 -0.854728,-0.95705 -0.214499,0.014 -0.444743,1.04366 -0.659391,1.0604 -0.214648,0.0167 -0.288582,-0.75606 -0.501262,-0.72244 -0.212679,0.0336 -0.127514,0.62658 -0.341064,0.66198 -0.21355,0.0354 -0.469603,-0.78834 -0.6800619,-0.74569 -0.2104591,0.0426 -0.5132901,0.61226 -0.7229533,0.66507 -0.2096633,0.0528 -0.126682,-0.14952 -0.3312459,-0.0775 -0.204564,0.072 -0.478504,0.69859 -0.6805787,0.76998 -0.2020745,0.0714 -0.6693416,-0.15195 -0.8660969,-0.0625 -0.1967553,0.0894 0.3030688,0.082 0.1080037,0.16898 -0.1950651,0.087 -0.7124615,-0.32257 -0.9043376,-0.22738 -0.1918761,0.0952 0.1626132,0.66951 -0.026355,0.77102 -0.1889683,0.1015 -0.6213234,0.0684 -0.800468,0.18655 -0.1791446,0.11815 -0.2739443,0.64471 -0.4459677,0.77308 -0.172023,0.12836 -0.3473749,-0.4489 -0.5177977,-0.31523 -0.1704229,0.13367 -0.026906,0.58032 -0.190686,0.72502 -0.16378,0.1447 -0.9234279,-0.17276 -1.0852052,-0.0284 -0.1617771,0.14434 0.2563294,0.72199 0.1018026,0.87178 -0.1545267,0.14979 -0.6544161,0.0912 -0.8051188,0.25063 -0.1507027,0.15945 0.2180553,0.2175 0.075448,0.38551 -0.1426075,0.16801 -0.5963365,-0.0605 -0.732772,0.10697 -0.1364355,0.16743 0.489691,0.95078 0.3669027,1.12913 -0.1227883,0.17834 -1.033344,-0.37436 -1.1575521,-0.19689 -0.124208,0.17747 0.4168159,1.0653 0.3059245,1.25264 -0.1108915,0.18733 -0.6591978,0.0442 -0.76481119,0.23461 -0.10561339,0.19042 0.37014169,0.39067 0.27233479,0.58756 -0.097807,0.19689 -0.77283044,-0.25774 -0.86764729,-0.0584 -0.0948169,0.19935 0.18681298,0.97908 0.10541992,1.18288 -0.081393,0.20379 -0.37437547,-0.18283 -0.44183349,0.0248 -0.06745802,0.20763 0.31493435,1.06371 0.25424804,1.27538 -0.0606863,0.21166 -0.87273335,0.12703 -0.93482664,0.33899 -0.0620933,0.21197 0.69876922,0.38813 0.65370686,0.60462 -0.04506236,0.21649 -0.82517895,0.34949 -0.86247965,0.56689 -0.0373007,0.21739 0.65872738,0.48733 0.62373454,0.70538 -0.0349928,0.21805 -0.40917695,0.0684 -0.42839761,0.28887 -0.0192207,0.22043 0.6031276,0.43189 0.59117836,0.65423 -0.0119492,0.22234 -1.12896804,0.0698 -1.13378094,0.29042 -0.00481,0.22059 0.66759018,0.81139 0.67076013,1.03301 0.00317,0.22162 -0.11020047,-0.0524 -0.0971517,0.17002 0.0130488,0.22243 0.36140543,0.67855 0.38912355,0.89607 0.0277181,0.21751 -0.65770915,0.37175 -0.62270099,0.59014 0.0350081,0.21839 0.60624835,0.17696 0.6413045,0.39584 0.0350561,0.21888 -0.0544101,0.10861 -0.0134359,0.32608 0.0287271,0.15247 0.18514794,0.35448 0.2950724229166,0.5364 v -1.52342 H 26.458333 v 0.14573 c 0.22643,-0.12904 0.5651,-0.24606 0.580845,-0.39791 0.02304,-0.22218 -0.534344,-0.39475 -0.522449,-0.61547 0.0119,-0.22072 0.457205,-0.52387 0.45837,-0.74362 0.0012,-0.21976 -1.139262,0.60973 -1.138357,0.39068 9.02e-4,-0.21906 0.108505,-0.5541 0.09767,-0.77515 -0.01084,-0.22105 -0.3409,-0.4281 -0.355018,-0.64802 -0.01412,-0.21992 0.62321,-0.0168 0.588079,-0.23306 -0.03513,-0.2163 -0.609526,-0.0482 -0.640789,-0.2651 -0.03126,-0.21695 0.41371,-0.59971 0.365352,-0.81494 -0.04836,-0.21523 -0.982857,-0.53962 -1.038179,-0.75293 -0.05532,-0.21331 0.672872,-0.23636 0.6134,-0.44907 -0.05947,-0.2127 -0.616036,-0.40967 -0.68678,-0.61598 -0.07074,-0.20631 0.58848,-0.13364 0.500744,-0.33745 -0.08774,-0.20381 -0.673267,-0.37127 -0.763261,-0.57205 -0.08999,-0.20079 0.129146,-0.66078 0.02842,-0.85525 -0.100723,-0.19447 -0.375172,0.1544 -0.478523,-0.0408 -0.103352,-0.19522 -0.118632,-0.46048 -0.226343,-0.64906 -0.10771,-0.18858 -2.108123,0.86577 -2.228952,0.68368 -0.120828,-0.18208 -0.0053,-0.1728 -0.129707,-0.35605 -0.124418,-0.18325 -0.884169,-0.32384 -1.011825,-0.49971 -0.127656,-0.17587 0.390127,-0.70582 0.254248,-0.87746 -0.135878,-0.17165 -0.660356,0.52413 -0.804085,0.36225 -0.14373,-0.16189 2.012281,-2.39616 1.854814,-2.54714 -0.157465,-0.15097 -0.351677,0.0509 -0.516764,-0.093 -0.165088,-0.14388 0.153124,-0.55229 -0.01085,-0.69557 -0.163976,-0.14328 -0.880849,0.20228 -1.048515,0.0687 -0.167666,-0.13355 -0.129323,-0.47982 -0.302307,-0.60978 -0.172984,-0.12996 -0.196839,0.37108 -0.375171,0.25166 -0.178332,-0.11941 -0.0816,-0.65107 -0.270268,-0.75602 -0.188671,-0.10496 -0.429767,0.32696 -0.620634,0.22427 -0.190866,-0.10269 -0.58593,-0.91791 -0.77773,-1.01286 -0.191801,-0.0949 -0.100966,0.78317 -0.300757,0.70022 -0.199791,-0.083 -0.120608,-0.8813 -0.321427,-0.95395 -0.20082,-0.0726 -0.596826,0.4284 -0.796851,0.35399 -0.200025,-0.0744 -0.228145,-0.61343 -0.432532,-0.67955 -0.204386,-0.0661 0.349867,-0.70214 0.14307,-0.75551 -0.206798,-0.0534 -0.551706,-0.44006 -0.762228,-0.48318 -0.210521,-0.0431 -0.0038,0.35936 -0.216524,0.33435 -0.21271,-0.025 -0.77122,-0.45492 -0.984436,-0.48627 -0.213216,-0.0314 -0.04353,0.21132 -0.256315,0.19585 -0.212785,-0.0155 -0.632773,-0.67755 -0.84646,-0.67748 z m 13.379027,17.25838 v 0.35657 c 0.08761,0.0441 0.157954,0.0621 0.1695,-0.0129 0.01602,-0.10406 -0.07462,-0.22344 -0.1695,-0.34365 z M 1.3229166e-6,269.94841 C -0.11180064,270.14852 -0.26546976,270.36783 -0.22220733,270.50031 c 0.0421415,0.12905 0.1375074,0.15911 0.2222086529166,0.20929 z m 0,1.27175 C -0.0622211,271.31553 -0.11705888,271.40961 -0.08164744,271.49973 c 0.01093288,0.0278 0.04132272,0.0412 0.081648762917,0.0465 z"
       style="fill:#6f917c;fill-opacity:1;stroke:#000000;stroke-width:0.08175625;stroke-miterlimit:4;stroke-dasharray:none"
       sodipodi:nodetypes="cccccsccccccccscsscscsccsccsccsccscscscsccssccccccccccccccccccccccccsccccccscccccccccccccccccccccccccccc" />
    <path
       style="fill:#829f8d;stroke:none;stroke-width:0.99999994px;stroke-linecap:butt;stroke-linejoin:miter;stroke-opacity:1;fill-opacity:1"
       d="m 49.433594,27.494141 c -0.807636,2.64e-4 0.559547,3.63505 -0.240235,3.673828 -0.799785,0.03893 -2.419763,-3.670177 -3.230468,-3.617188 -0.810705,0.05291 -1.68092,3.944543 -2.492188,4.007813 -0.811268,0.06312 -1.090701,-2.857537 -1.894531,-2.730469 -0.803826,0.126992 -0.481945,2.368158 -1.289063,2.501953 -0.807118,0.133795 -1.774878,-2.979556 -2.570312,-2.818359 -0.795436,0.161008 -1.939991,2.314075 -2.732422,2.513672 -0.792427,0.199559 -0.478798,-0.565171 -1.251953,-0.292969 -0.773152,0.272126 -1.808519,2.640336 -2.572266,2.910156 -0.763746,0.269858 -2.529795,-0.574407 -3.273437,-0.236328 -0.743642,0.33789 1.145457,0.309929 0.408203,0.638672 -0.737254,0.328819 -2.692768,-1.219148 -3.417969,-0.859375 -0.725201,0.359811 0.614601,2.530403 -0.09961,2.914062 -0.714211,0.383622 -2.348309,0.258527 -3.025391,0.705079 -0.677082,0.446551 -1.03538,2.436697 -1.685547,2.921874 -0.650166,0.485141 -1.312913,-1.696615 -1.957031,-1.191406 -0.644118,0.50521 -0.101692,2.193337 -0.720703,2.740235 -0.619011,0.546897 -3.49012,-0.653035 -4.101563,-0.107422 -0.611441,0.545537 0.968804,2.728786 0.384766,3.294922 -0.584038,0.566135 -2.473384,0.344695 -3.042969,0.947265 -0.569585,0.602646 0.824145,0.822033 0.285156,1.457032 -0.538988,0.634998 -2.253869,-0.228661 -2.7695308,0.404296 -0.5156621,0.632807 1.8507998,3.5935 1.3867188,4.267578 -0.4640821,0.674041 -3.9055521,-1.414893 -4.375,-0.74414 -0.4694479,0.670753 1.5753671,4.026318 1.15625,4.734375 -0.4191179,0.708019 -2.4914564,0.167059 -2.890625,0.886719 -0.3991688,0.719697 1.3989608,1.476552 1.0292969,2.220703 -0.3696643,0.744151 -2.920934,-0.974114 -3.2792969,-0.220703 -0.35836347,0.753448 0.706065,3.700435 0.3984375,4.470703 -0.3076271,0.77023 -1.4149625,-0.690994 -1.66992187,0.09375 -0.25495938,0.784743 1.19030307,4.0203 0.96093749,4.820312 -0.22936441,0.799975 -3.29851982,0.480142 -3.53320312,1.28125 -0.2346822,0.801147 2.64101733,1.466927 2.47070312,2.285157 -0.17031307,0.818229 -3.11878662,1.320908 -3.25976562,2.142578 -0.1409802,0.821631 2.48967813,1.841889 2.3574219,2.666015 -0.132257,0.824126 -1.5464955,0.258525 -1.6191406,1.091797 -0.072646,0.833121 2.27953766,1.632316 2.23437495,2.472656 -0.0451616,0.840341 -4.26696575,0.263817 -4.28515625,1.097657 -0.018179,0.833726 2.5231755,3.066678 2.5351563,3.904297 0.011981,0.837618 -0.4165043,-0.198065 -0.3671876,0.642578 0.049319,0.84068 1.3659419,2.564596 1.4707032,3.386718 0.1047609,0.822085 -2.4858301,1.405058 -2.3535156,2.230469 0.1323137,0.825411 2.2913326,0.668831 2.4238281,1.496094 0.13249509,0.827263 -0.2056436,0.410488 -0.050781,1.232422 C -1.0066599,94.306733 -0.41546268,95.070241 0,95.757812 V 90 H 8.6074219 C 11.63788,82.045049 23.397108,70.408166 20.961451,65.522952 c -1.136422,-3.409266 -1.64791,2.901339 -5.429616,1.136431 3.142832,-14.97278 23.462559,-18.428493 39.372462,-36.737508 -0.518751,-0.299539 -1.006712,-0.563897 -1.302735,-0.607422 -0.805855,-0.118677 -0.164523,0.798704 -0.96875,0.740235 -0.804226,-0.05858 -2.391582,-2.560812 -3.199218,-2.560547 z M 0,97.757812 C -0.42255874,98.514134 -1.0033552,99.343038 -0.83984375,99.84375 -0.68057068,100.3315 -0.3201309,100.44511 0,100.63477 Z"
       transform="matrix(0.26458333,0,0,0.26458333,0,244.08332)"
       id="path7541"
       inkscape:connector-curvature="0"
       sodipodi:nodetypes="cccccsccccccccccsscscsccsccsccsccccscccsscsscccccccccccccc" />
    <path
       style="fill:#5e7c69;stroke:none;stroke-width:0.99999994px;stroke-linecap:butt;stroke-linejoin:miter;stroke-opacity:1;fill-opacity:1"
       d="m 92.646484,61.365234 c 0,0 -3.852043,7.982032 -15.875,21.205078 0.486135,3.842164 6.435427,-5.56522 8.369033,-2.447049 C 78.380122,87.350607 71.693359,90 71.693359,90 H 100 v 0.550781 c 0.8558,-0.48771 2.1358,-0.929985 2.19531,-1.503906 0.0871,-0.839735 -2.01956,-1.491955 -1.97461,-2.326172 0.045,-0.834217 1.72803,-1.979996 1.73242,-2.810547 0.005,-0.830589 -4.30615,2.304468 -4.302729,1.476563 0.003,-0.827944 0.410095,-2.094223 0.36914,-2.929688 -0.04101,-0.835464 -1.288437,-1.618025 -1.341797,-2.449219 -0.0534,-0.831193 2.355428,-0.0635 2.222657,-0.880859 -0.132775,-0.817512 -2.303727,-0.182173 -2.421875,-1.001953 -0.118148,-0.819969 1.563629,-2.26661 1.380859,-3.080078 -0.182778,-0.813468 -3.714737,-2.039492 -3.923828,-2.845703 -0.209084,-0.806211 2.543139,-0.893323 2.318359,-1.697266 -0.224768,-0.803905 -2.328324,-1.548371 -2.595703,-2.328125 -0.267364,-0.779754 2.224179,-0.505085 1.892578,-1.27539 -0.331615,-0.770306 -2.544631,-1.403256 -2.884765,-2.16211 -0.34012,-0.758891 0.488118,-2.497417 0.107422,-3.232422 -0.03536,-0.06826 -0.08132,-0.102543 -0.126954,-0.138672 z M 100,92.722656 v 1.347656 l 0.61523,-0.359374 C 100.52614,93.398362 100.26738,93.061422 100,92.722656 Z"
       transform="matrix(0.26458333,0,0,0.26458333,0,244.08332)"
       id="path7559"
       inkscape:connector-curvature="0"
       sodipodi:nodetypes="cccccccccccccccccccccccccc" />
    <path
       id="path4710-5"
       d="m -4.3137253e-8,267.89582 v 3.96875 L -0.26458333,272.1953 -4.3137253e-8,272.52603 -0.26458333,272.85676 -4.3137253e-8,273.18749 -0.26458333,273.51822 -4.3137253e-8,273.84895 -0.26458333,274.17967 -4.3137253e-8,274.5104 -0.26458333,274.84113 -4.3137253e-8,275.17186 -0.26458333,275.50259 -4.3137253e-8,275.83332 -0.26458333,276.16405 -4.3137253e-8,276.49478 -0.26458333,276.82551 -4.3137253e-8,277.15624 -0.26458333,277.48697 -4.3137253e-8,277.8177 -0.26458333,278.14843 -4.3137253e-8,278.47915 -0.26458333,278.80988 -4.3137253e-8,279.14061 -0.26458333,279.47134 -4.3137253e-8,279.80207 -0.26458333,280.1328 -4.3137253e-8,280.46353 -0.26458333,280.79426 -4.3137253e-8,281.12499 -0.26458333,281.45572 -4.3137253e-8,281.78645 -0.26458333,282.11718 -4.3137253e-8,282.4479 -0.26458333,282.77863 -4.3137253e-8,283.10936 -0.26458333,283.44009 -4.3137253e-8,283.77082 -0.26458333,284.10155 -4.3137253e-8,284.43228 -0.26458333,284.76301 -4.3137253e-8,285.09374 -0.26458333,285.42447 -4.3137253e-8,285.7552 -0.26458333,286.08593 -4.3137253e-8,286.41666 -0.26458333,286.74738 -4.3137253e-8,287.07811 -0.26458333,287.40884 -4.3137253e-8,287.73957 -0.26458333,288.0703 -4.3137253e-8,288.40103 -0.26458333,288.73176 -4.3137253e-8,289.06249 -0.26458333,289.39322 -4.3137253e-8,289.72395 -0.26458333,290.05468 -4.3137253e-8,290.38541 -0.26458333,290.71614 -4.3137253e-8,291.04686 -0.26458333,291.37759 -4.3137253e-8,291.70832 -0.26458333,292.03905 -4.3137253e-8,292.36978 -0.26458333,292.70051 -4.3137253e-8,293.03124 v 3.96875 H 26.458334 v -3.96875 l 0.264583,-0.33073 -0.264583,-0.33073 0.264583,-0.33073 -0.264583,-0.33073 0.264583,-0.33073 -0.264583,-0.33073 0.264583,-0.33072 -0.264583,-0.33073 0.264583,-0.33073 -0.264583,-0.33073 0.264583,-0.33073 -0.264583,-0.33073 0.264583,-0.33073 -0.264583,-0.33073 0.264583,-0.33073 -0.264583,-0.33073 0.264583,-0.33073 -0.264583,-0.33073 0.264583,-0.33073 -0.264583,-0.33072 0.264583,-0.33073 -0.264583,-0.33073 0.264583,-0.33073 -0.264583,-0.33073 0.264583,-0.33073 -0.264583,-0.33073 0.264583,-0.33073 -0.264583,-0.33073 0.264583,-0.33073 -0.264583,-0.33073 0.264583,-0.33073 -0.264583,-0.33073 0.264583,-0.33072 -0.264583,-0.33073 0.264583,-0.33073 -0.264583,-0.33073 0.264583,-0.33073 -0.264583,-0.33073 0.264583,-0.33073 -0.264583,-0.33073 0.264583,-0.33073 -0.264583,-0.33073 0.264583,-0.33073 -0.264583,-0.33073 0.264583,-0.33072 -0.264583,-0.33073 0.264583,-0.33073 -0.264583,-0.33073 0.264583,-0.33073 -0.264583,-0.33073 0.264583,-0.33073 -0.264583,-0.33073 0.264583,-0.33073 -0.264583,-0.33073 0.264583,-0.33073 -0.264583,-0.33073 0.264583,-0.33073 -0.264583,-0.33072 0.264583,-0.33073 -0.264583,-0.33073 0.264583,-0.33073 -0.264583,-0.33073 0.264583,-0.33073 -0.264583,-0.33073 v -3.96875 z"
       style="fill:#6f917c;stroke:none;stroke-width:0.26458332px;stroke-linecap:butt;stroke-linejoin:miter;stroke-opacity:1"
       inkscape:connector-curvature="0" />
    <path
       sodipodi:nodetypes="cssccsscc"
       inkscape:connector-curvature="0"
       id="path5100-7"
       d="m 3.4962799,296.95274 c 0,0 3.8571364,-16.53842 3.4017856,-17.71756 -0.2850054,-0.73803 -1.2607423,0.88427 -1.8898809,0.66146 -2.2678572,-0.80319 5.1026784,-12.00082 5.1026784,-12.00082 H 7.4650297 c 0,0 -7.4650297,13.89063 -5.1971726,14.69382 0.6291386,0.22282 1.6048754,-1.39948 1.889881,-0.66145 0.4553508,1.17914 -3.30729167,15.02455 -3.30729167,15.02455 z"
       style="fill:#b7c8be;stroke:none;stroke-width:0.26458332px;stroke-linecap:butt;stroke-linejoin:miter;stroke-opacity:1" />
    <path
       sodipodi:nodetypes="ccsccccccccccccccccccccccccccccccccccccccccccccccccccccccccccccccccccccc"
       inkscape:connector-curvature="0"
       id="path5119"
       transform="matrix(0.26458333,0,0,0.26458333,0,244.08332)"
       d="m 94.642578,90 c 0,0 -14.309457,49.31531 -24.464565,59.1077 -3.75,7.67857 13.905789,-7.8912 11.607143,-3.39426 C 72.125751,164.61057 60.726042,187.98833 47.443359,199.5 h 53.197261 v -15 l 1,-1.25 -1,-1.25 1,-1.25 -1,-1.25 1,-1.25 -1,-1.25 1,-1.25 -1,-1.25 1,-1.25 -1,-1.25 1,-1.25 -1,-1.25 1,-1.25 -1,-1.25 1,-1.25 -1,-1.25 1,-1.25 -1,-1.25 1,-1.25 -1,-1.25 1,-1.25 -1,-1.25 1,-1.25 -1,-1.25 1,-1.25 -1,-1.25 1,-1.25 -1,-1.25 1,-1.25 -1,-1.25 1,-1.25 -1,-1.25 1,-1.25 -1,-1.25 1,-1.25 -1,-1.25 1,-1.25 -1,-1.25 1,-1.25 -1,-1.25 1,-1.25 -1,-1.25 1,-1.25 -1,-1.25 1,-1.25 -1,-1.25 1,-1.25 -1,-1.25 1,-1.25 -1,-1.25 1,-1.25 -1,-1.25 1,-1.25 -1,-1.25 1,-1.25 -1,-1.25 1,-1.25 -1,-1.25 1,-1.25 -1,-1.25 1,-1.25 -1,-1.25 1,-1.25 -1,-1.25 V 90 Z"
       style="fill:#37483e;stroke:none;stroke-width:0.99999994px;stroke-linecap:butt;stroke-linejoin:miter;stroke-opacity:1" />
    <path
       id="path4710"
       d="m 0,267.89582 v 3.96875 L -0.26458333,272.1953 0,272.52603 -0.26458333,272.85676 0,273.18749 -0.26458333,273.51822 0,273.84895 -0.26458333,274.17967 0,274.5104 -0.26458333,274.84113 0,275.17186 -0.26458333,275.50259 0,275.83332 -0.26458333,276.16405 0,276.49478 -0.26458333,276.82551 0,277.15624 -0.26458333,277.48697 0,277.8177 -0.26458333,278.14843 0,278.47915 -0.26458333,278.80988 0,279.14061 -0.26458333,279.47134 0,279.80207 -0.26458333,280.1328 0,280.46353 -0.26458333,280.79426 0,281.12499 -0.26458333,281.45572 0,281.78645 -0.26458333,282.11718 0,282.4479 -0.26458333,282.77863 0,283.10936 -0.26458333,283.44009 0,283.77082 -0.26458333,284.10155 0,284.43228 -0.26458333,284.76301 0,285.09374 -0.26458333,285.42447 0,285.7552 -0.26458333,286.08593 0,286.41666 -0.26458333,286.74738 0,287.07811 -0.26458333,287.40884 0,287.73957 -0.26458333,288.0703 0,288.40103 -0.26458333,288.73176 0,289.06249 -0.26458333,289.39322 0,289.72395 -0.26458333,290.05468 0,290.38541 -0.26458333,290.71614 0,291.04686 -0.26458333,291.37759 0,291.70832 -0.26458333,292.03905 0,292.36978 -0.26458333,292.70051 0,293.03124 v 3.96875 h 26.458333 v -3.96875 l 0.264584,-0.33073 -0.264584,-0.33073 0.264584,-0.33073 -0.264584,-0.33073 0.264584,-0.33073 -0.264584,-0.33073 0.264584,-0.33072 -0.264584,-0.33073 0.264584,-0.33073 -0.264584,-0.33073 0.264584,-0.33073 -0.264584,-0.33073 0.264584,-0.33073 -0.264584,-0.33073 0.264584,-0.33073 -0.264584,-0.33073 0.264584,-0.33073 -0.264584,-0.33073 0.264584,-0.33073 -0.264584,-0.33072 0.264584,-0.33073 -0.264584,-0.33073 0.264584,-0.33073 -0.264584,-0.33073 0.264584,-0.33073 -0.264584,-0.33073 0.264584,-0.33073 -0.264584,-0.33073 0.264584,-0.33073 -0.264584,-0.33073 0.264584,-0.33073 -0.264584,-0.33073 0.264584,-0.33072 -0.264584,-0.33073 0.264584,-0.33073 -0.264584,-0.33073 0.264584,-0.33073 -0.264584,-0.33073 0.264584,-0.33073 -0.264584,-0.33073 0.264584,-0.33073 -0.264584,-0.33073 0.264584,-0.33073 -0.264584,-0.33073 0.264584,-0.33072 -0.264584,-0.33073 0.264584,-0.33073 -0.264584,-0.33073 0.264584,-0.33073 -0.264584,-0.33073 0.264584,-0.33073 -0.264584,-0.33073 0.264584,-0.33073 -0.264584,-0.33073 0.264584,-0.33073 -0.264584,-0.33073 0.264584,-0.33073 -0.264584,-0.33072 0.264584,-0.33073 -0.264584,-0.33073 0.264584,-0.33073 -0.264584,-0.33073 0.264584,-0.33073 -0.264584,-0.33073 v -3.96875 z"
       style="fill:none;stroke:#000000;stroke-width:0.26458332px;stroke-linecap:butt;stroke-linejoin:miter;stroke-opacity:1" />
    <path
       sodipodi:nodetypes="cc"
       inkscape:connector-curvature="0"
       id="path4712"
       d="m 0.52916666,272.1953 c 8.39984924,0.60136 16.96674234,0.46772 25.40000034,0"
       style="fill:none;stroke:#000000;stroke-width:0.13229167;stroke-linecap:butt;stroke-linejoin:miter;stroke-opacity:1;stroke-miterlimit:4;stroke-dasharray:none" />
    <path
       sodipodi:nodetypes="cc"
       inkscape:connector-curvature="0"
       id="path4712-1"
       d="m 0.52916667,272.85676 c 8.39984933,0.60136 16.96674133,0.46772 25.39999933,0"
       style="fill:none;stroke:#000000;stroke-width:0.13229167;stroke-linecap:butt;stroke-linejoin:miter;stroke-opacity:1;stroke-miterlimit:4;stroke-dasharray:none" />
    <path
       sodipodi:nodetypes="cc"
       inkscape:connector-curvature="0"
       id="path4712-1-3"
       d="m 0.52916667,273.51822 c 8.39984893,0.60136 16.96674033,0.46772 25.39999933,0"
       style="fill:none;stroke:#000000;stroke-width:0.13229167;stroke-linecap:butt;stroke-linejoin:miter;stroke-opacity:1;stroke-miterlimit:4;stroke-dasharray:none" />
    <path
       sodipodi:nodetypes="cc"
       inkscape:connector-curvature="0"
       id="path4712-1-8"
       d="m 0.52916667,274.17967 c 8.39984913,0.60136 16.96674133,0.46772 25.40000033,0"
       style="fill:none;stroke:#000000;stroke-width:0.13229167;stroke-linecap:butt;stroke-linejoin:miter;stroke-opacity:1;stroke-miterlimit:4;stroke-dasharray:none" />
    <path
       sodipodi:nodetypes="cc"
       inkscape:connector-curvature="0"
       id="path4712-1-8-0"
       d="m 0.52916667,274.84113 c 8.39984923,0.60136 16.96674133,0.46772 25.40000033,0"
       style="fill:none;stroke:#000000;stroke-width:0.13229167;stroke-linecap:butt;stroke-linejoin:miter;stroke-opacity:1;stroke-miterlimit:4;stroke-dasharray:none" />
    <path
       sodipodi:nodetypes="cc"
       inkscape:connector-curvature="0"
       id="path4712-1-8-1"
       d="m 0.52916667,275.50259 c 8.39984943,0.60136 16.96674133,0.46772 25.40000033,0"
       style="fill:none;stroke:#000000;stroke-width:0.13229167;stroke-linecap:butt;stroke-linejoin:miter;stroke-opacity:1;stroke-miterlimit:4;stroke-dasharray:none" />
    <path
       sodipodi:nodetypes="cc"
       inkscape:connector-curvature="0"
       id="path4712-1-8-4"
       d="m 0.52916664,276.16405 c 8.39984896,0.60136 16.96674136,0.46772 25.40000036,0"
       style="fill:none;stroke:#000000;stroke-width:0.13229167;stroke-linecap:butt;stroke-linejoin:miter;stroke-opacity:1;stroke-miterlimit:4;stroke-dasharray:none" />
    <path
       sodipodi:nodetypes="cc"
       inkscape:connector-curvature="0"
       id="path4712-1-8-7"
       d="m 0.52916664,276.82551 c 8.39984916,0.60136 16.96674136,0.46772 25.40000036,0"
       style="fill:none;stroke:#000000;stroke-width:0.13229167;stroke-linecap:butt;stroke-linejoin:miter;stroke-opacity:1;stroke-miterlimit:4;stroke-dasharray:none" />
    <path
       sodipodi:nodetypes="cc"
       inkscape:connector-curvature="0"
       id="path4712-1-8-17"
       d="m 0.52916665,277.48697 c 8.39984915,0.60136 16.96674135,0.46772 25.40000035,0"
       style="fill:none;stroke:#000000;stroke-width:0.13229167;stroke-linecap:butt;stroke-linejoin:miter;stroke-opacity:1;stroke-miterlimit:4;stroke-dasharray:none" />
    <path
       sodipodi:nodetypes="cc"
       inkscape:connector-curvature="0"
       id="path4712-1-8-5"
       d="m 0.52916667,278.14843 c 8.39984913,0.60136 16.96674133,0.46772 25.40000033,0"
       style="fill:none;stroke:#000000;stroke-width:0.13229167;stroke-linecap:butt;stroke-linejoin:miter;stroke-opacity:1;stroke-miterlimit:4;stroke-dasharray:none" />
    <path
       sodipodi:nodetypes="cc"
       inkscape:connector-curvature="0"
       id="path4712-1-8-73"
       d="m 0.52916667,278.80988 c 8.39984913,0.60136 16.96674133,0.46772 25.40000033,0"
       style="fill:none;stroke:#000000;stroke-width:0.13229167;stroke-linecap:butt;stroke-linejoin:miter;stroke-opacity:1;stroke-miterlimit:4;stroke-dasharray:none" />
    <path
       sodipodi:nodetypes="cc"
       inkscape:connector-curvature="0"
       id="path4712-1-8-11"
       d="m 0.52916669,279.47134 c 8.39984921,0.60136 16.96674131,0.46772 25.40000031,0"
       style="fill:none;stroke:#000000;stroke-width:0.13229167;stroke-linecap:butt;stroke-linejoin:miter;stroke-opacity:1;stroke-miterlimit:4;stroke-dasharray:none" />
    <path
       sodipodi:nodetypes="cc"
       inkscape:connector-curvature="0"
       id="path4712-1-8-6"
       d="m 0.5291667,280.1328 c 8.3998492,0.60136 16.9667413,0.46772 25.3999993,0"
       style="fill:none;stroke:#000000;stroke-width:0.13229167;stroke-linecap:butt;stroke-linejoin:miter;stroke-opacity:1;stroke-miterlimit:4;stroke-dasharray:none" />
    <path
       sodipodi:nodetypes="cc"
       inkscape:connector-curvature="0"
       id="path4712-1-8-48"
       d="m 0.52916662,280.79426 c 8.39984918,0.60136 16.96674138,0.46772 25.40000038,0"
       style="fill:none;stroke:#000000;stroke-width:0.13229167;stroke-linecap:butt;stroke-linejoin:miter;stroke-opacity:1;stroke-miterlimit:4;stroke-dasharray:none" />
    <path
       sodipodi:nodetypes="cc"
       inkscape:connector-curvature="0"
       id="path4712-1-8-08"
       d="m 0.52916667,281.45572 c 8.39984923,0.60136 16.96674133,0.46772 25.40000033,0"
       style="fill:none;stroke:#000000;stroke-width:0.13229167;stroke-linecap:butt;stroke-linejoin:miter;stroke-opacity:1;stroke-miterlimit:4;stroke-dasharray:none" />
    <path
       sodipodi:nodetypes="cc"
       inkscape:connector-curvature="0"
       id="path4712-1-8-01"
       d="m 0.52916667,282.11718 c 8.39984923,0.60136 16.96674133,0.46772 25.40000033,0"
       style="fill:none;stroke:#000000;stroke-width:0.13229167;stroke-linecap:butt;stroke-linejoin:miter;stroke-opacity:1;stroke-miterlimit:4;stroke-dasharray:none" />
    <path
       sodipodi:nodetypes="cc"
       inkscape:connector-curvature="0"
       id="path4712-1-8-019"
       d="m 0.52916663,282.77863 c 8.39984917,0.60136 16.96674137,0.46772 25.40000037,0"
       style="fill:none;stroke:#000000;stroke-width:0.13229167;stroke-linecap:butt;stroke-linejoin:miter;stroke-opacity:1;stroke-miterlimit:4;stroke-dasharray:none" />
    <path
       sodipodi:nodetypes="cc"
       inkscape:connector-curvature="0"
       id="path4712-1-8-43"
       d="m 0.52916668,283.44009 c 8.39984912,0.60136 16.96674132,0.46772 25.40000032,0"
       style="fill:none;stroke:#000000;stroke-width:0.13229167;stroke-linecap:butt;stroke-linejoin:miter;stroke-opacity:1;stroke-miterlimit:4;stroke-dasharray:none" />
    <path
       sodipodi:nodetypes="cc"
       inkscape:connector-curvature="0"
       id="path4712-1-8-2"
       d="m 0.52916667,284.10155 c 8.39984923,0.60136 16.96674133,0.46772 25.40000033,0"
       style="fill:none;stroke:#000000;stroke-width:0.13229167;stroke-linecap:butt;stroke-linejoin:miter;stroke-opacity:1;stroke-miterlimit:4;stroke-dasharray:none" />
    <path
       sodipodi:nodetypes="cc"
       inkscape:connector-curvature="0"
       id="path4712-1-8-735"
       d="m 0.52916667,284.76301 c 8.39984913,0.60136 16.96674133,0.46772 25.40000033,0"
       style="fill:none;stroke:#000000;stroke-width:0.13229167;stroke-linecap:butt;stroke-linejoin:miter;stroke-opacity:1;stroke-miterlimit:4;stroke-dasharray:none" />
    <path
       sodipodi:nodetypes="cc"
       inkscape:connector-curvature="0"
       id="path4712-1-8-3"
       d="m 0.52916668,285.42447 c 8.39984922,0.60136 16.96674132,0.46772 25.40000032,0"
       style="fill:none;stroke:#000000;stroke-width:0.13229167;stroke-linecap:butt;stroke-linejoin:miter;stroke-opacity:1;stroke-miterlimit:4;stroke-dasharray:none" />
    <path
       sodipodi:nodetypes="cc"
       inkscape:connector-curvature="0"
       id="path4712-1-8-47"
       d="m 0.52916666,286.08593 c 8.39984914,0.60136 16.96674134,0.46772 25.40000034,0"
       style="fill:none;stroke:#000000;stroke-width:0.13229167;stroke-linecap:butt;stroke-linejoin:miter;stroke-opacity:1;stroke-miterlimit:4;stroke-dasharray:none" />
    <path
       sodipodi:nodetypes="cc"
       inkscape:connector-curvature="0"
       id="path4712-1-8-76"
       d="m 0.52916663,286.74738 c 8.39984907,0.60136 16.96674137,0.46772 25.40000037,0"
       style="fill:none;stroke:#000000;stroke-width:0.13229167;stroke-linecap:butt;stroke-linejoin:miter;stroke-opacity:1;stroke-miterlimit:4;stroke-dasharray:none" />
    <path
       sodipodi:nodetypes="cc"
       inkscape:connector-curvature="0"
       id="path4712-1-8-13"
       d="m 0.52916666,287.40884 c 8.39984924,0.60136 16.96674134,0.46772 25.40000034,0"
       style="fill:none;stroke:#000000;stroke-width:0.13229167;stroke-linecap:butt;stroke-linejoin:miter;stroke-opacity:1;stroke-miterlimit:4;stroke-dasharray:none" />
    <path
       sodipodi:nodetypes="cc"
       inkscape:connector-curvature="0"
       id="path4712-1-8-434"
       d="m 0.52916663,288.0703 c 8.39984907,0.60136 16.96674137,0.46772 25.40000037,0"
       style="fill:none;stroke:#000000;stroke-width:0.13229167;stroke-linecap:butt;stroke-linejoin:miter;stroke-opacity:1;stroke-miterlimit:4;stroke-dasharray:none" />
    <path
       sodipodi:nodetypes="cc"
       inkscape:connector-curvature="0"
       id="path4712-1-8-05"
       d="m 0.52916664,288.73176 c 8.39984906,0.60136 16.96674136,0.46772 25.40000036,0"
       style="fill:none;stroke:#000000;stroke-width:0.13229167;stroke-linecap:butt;stroke-linejoin:miter;stroke-opacity:1;stroke-miterlimit:4;stroke-dasharray:none" />
    <path
       sodipodi:nodetypes="cc"
       inkscape:connector-curvature="0"
       id="path4712-1-8-68"
       d="m 0.52916667,289.39322 c 8.39984913,0.60136 16.96674033,0.46772 25.39999933,0"
       style="fill:none;stroke:#000000;stroke-width:0.13229167;stroke-linecap:butt;stroke-linejoin:miter;stroke-opacity:1;stroke-miterlimit:4;stroke-dasharray:none" />
    <path
       sodipodi:nodetypes="cc"
       inkscape:connector-curvature="0"
       id="path4712-1-8-22"
       d="m 0.5291667,290.05468 c 8.3998492,0.60136 16.9667413,0.46772 25.4000003,0"
       style="fill:none;stroke:#000000;stroke-width:0.13229167;stroke-linecap:butt;stroke-linejoin:miter;stroke-opacity:1;stroke-miterlimit:4;stroke-dasharray:none" />
    <path
       sodipodi:nodetypes="cc"
       inkscape:connector-curvature="0"
       id="path4712-1-8-40"
       d="m 0.52916665,290.71614 c 8.39984915,0.60136 16.96674035,0.46772 25.39999935,0"
       style="fill:none;stroke:#000000;stroke-width:0.13229167;stroke-linecap:butt;stroke-linejoin:miter;stroke-opacity:1;stroke-miterlimit:4;stroke-dasharray:none" />
    <path
       sodipodi:nodetypes="cc"
       inkscape:connector-curvature="0"
       id="path4712-1-8-24"
       d="m 0.52916667,291.37759 c 8.39984923,0.60136 16.96674133,0.46772 25.40000033,0"
       style="fill:none;stroke:#000000;stroke-width:0.13229167;stroke-linecap:butt;stroke-linejoin:miter;stroke-opacity:1;stroke-miterlimit:4;stroke-dasharray:none" />
    <path
       sodipodi:nodetypes="cc"
       inkscape:connector-curvature="0"
       id="path4712-1-8-41"
       d="m 0.52916666,292.03905 c 8.39984924,0.60136 16.96674134,0.46772 25.40000034,0"
       style="fill:none;stroke:#000000;stroke-width:0.13229167;stroke-linecap:butt;stroke-linejoin:miter;stroke-opacity:1;stroke-miterlimit:4;stroke-dasharray:none" />
    <path
       sodipodi:nodetypes="cc"
       inkscape:connector-curvature="0"
       id="path4712-1-8-67"
       d="m 0.52916665,292.70051 c 8.39984915,0.60136 16.96674135,0.46772 25.40000035,0"
       style="fill:none;stroke:#000000;stroke-width:0.13229167;stroke-linecap:butt;stroke-linejoin:miter;stroke-opacity:1;stroke-miterlimit:4;stroke-dasharray:none" />
    <path
       style="fill:#000000;stroke:none;stroke-width:0.99999994px;stroke-linecap:butt;stroke-linejoin:miter;stroke-opacity:1;fill-opacity:0.32921812"
       d="M 64.810547 35.791016 C 64.110343 35.942978 63.093505 37.027624 62.404297 37.148438 L 45 70.892578 L 75.255859 56.431641 L 75.353516 56.339844 C 75.332955 56.326593 75.310598 56.318683 75.292969 56.298828 C 74.749737 55.68696 82.897885 47.242508 82.302734 46.671875 C 81.707591 46.10128 80.97356 46.864187 80.349609 46.320312 C 79.725655 45.776514 80.928338 44.232937 80.308594 43.691406 C 79.688842 43.149876 76.979401 44.456041 76.345703 43.951172 C 75.712005 43.446416 75.856923 42.137672 75.203125 41.646484 C 74.549327 41.155297 74.459167 43.049007 73.785156 42.597656 C 73.111146 42.146343 73.476748 40.136896 72.763672 39.740234 C 72.050585 39.343535 71.139356 40.97601 70.417969 40.587891 C 69.696589 40.199771 68.203429 37.118632 67.478516 36.759766 C 66.753598 36.401088 67.096912 39.719762 66.341797 39.40625 C 65.586681 39.092549 65.885954 36.075364 65.126953 35.800781 C 65.032078 35.766482 64.925588 35.766049 64.810547 35.791016 z "
       transform="matrix(0.26458333,0,0,0.26458333,0,244.08332)"
       id="path7505" />
    <path
       style="fill:#000000;stroke:none;stroke-width:0.99999994px;stroke-linecap:butt;stroke-linejoin:miter;stroke-opacity:1;fill-opacity:0.7201646"
       d="M 78.076172 54.828125 C 77.37239 54.88625 75.887325 56.683862 75.353516 56.339844 L 75.255859 56.431641 L 45 70.892578 L 81.949219 64.259766 L 89.777344 58.832031 L 89.779297 58.824219 C 88.267557 58.933249 82.097292 62.100972 81.685547 61.480469 C 81.228874 60.792292 81.665512 60.827364 81.195312 60.134766 C 80.725071 59.442167 77.853573 58.910799 77.371094 58.246094 C 76.888614 57.581388 78.84559 55.578406 78.332031 54.929688 C 78.267837 54.848593 78.180585 54.819502 78.076172 54.828125 z "
       transform="matrix(0.26458333,0,0,0.26458333,0,244.08332)"
       id="path7507" />
  </g>
</svg>
