<?xml version="1.0" encoding="UTF-8" standalone="no"?>
<!-- Created with Inkscape (http://www.inkscape.org/) -->

<svg
   xmlns:dc="http://purl.org/dc/elements/1.1/"
   xmlns:cc="http://creativecommons.org/ns#"
   xmlns:rdf="http://www.w3.org/1999/02/22-rdf-syntax-ns#"
   xmlns:svg="http://www.w3.org/2000/svg"
   xmlns="http://www.w3.org/2000/svg"
   xmlns:sodipodi="http://sodipodi.sourceforge.net/DTD/sodipodi-0.dtd"
   xmlns:inkscape="http://www.inkscape.org/namespaces/inkscape"
   width="240"
   height="240"
   viewBox="0 0 63.499999 63.500002"
   version="1.1"
   id="svg4520"
   inkscape:version="0.92.1 r15371"
   sodipodi:docname="Lixeira_generica.svg">
  <defs
     id="defs4514">
    <filter
       inkscape:label="Linen Canvas"
       inkscape:menu="Bumps"
       inkscape:menu-tooltip="Painting canvas emboss effect"
       style="color-interpolation-filters:sRGB;"
       id="filter5175">
      <feTurbulence
         numOctaves="5"
         baseFrequency="0.4"
         id="feTurbulence5151" />
      <feConvolveMatrix
         order="5 5"
         kernelMatrix="-4 0 0 0 -4 0 -2 0 -2 0 0 0 -10 0 0 0 -2 0 -2 0 -4 0 0 0 -4 "
         targetX="2"
         targetY="2"
         id="feConvolveMatrix5153" />
      <feConvolveMatrix
         order="3 3"
         kernelMatrix="2 0 2 0 -5 0 2 0 2 "
         targetX="1"
         targetY="1"
         id="feConvolveMatrix5155" />
      <feColorMatrix
         type="saturate"
         result="result1"
         id="feColorMatrix5157" />
      <feComposite
         in2="SourceGraphic"
         operator="arithmetic"
         k1="1.5"
         k2="0.5"
         k3="0.5"
         result="result2"
         id="feComposite5159" />
      <feBlend
         mode="normal"
         in2="result1"
         result="result4"
         id="feBlend5161" />
      <feColorMatrix
         type="luminanceToAlpha"
         id="feColorMatrix5163" />
      <feDiffuseLighting
         surfaceScale="10"
         diffuseConstant="1"
         result="result3"
         id="feDiffuseLighting5167">
        <feDistantLight
           azimuth="180"
           elevation="35"
           id="feDistantLight5165" />
      </feDiffuseLighting>
      <feComposite
         in2="result4"
         operator="arithmetic"
         k1="1.5"
         k3="0.5"
         result="result5"
         id="feComposite5169" />
      <feBlend
         mode="normal"
         in2="result3"
         result="result6"
         id="feBlend5171" />
      <feComposite
         in2="SourceGraphic"
         operator="in"
         id="feComposite5173" />
    </filter>
  </defs>
  <sodipodi:namedview
     id="base"
     pagecolor="#ffffff"
     bordercolor="#666666"
     borderopacity="1.0"
     inkscape:pageopacity="0.0"
     inkscape:pageshadow="2"
     inkscape:zoom="1.979899"
     inkscape:cx="81.261077"
     inkscape:cy="243.74748"
     inkscape:document-units="px"
     inkscape:current-layer="layer1"
     showgrid="false"
     units="px"
     inkscape:pagecheckerboard="true"
     inkscape:window-width="1920"
     inkscape:window-height="1001"
     inkscape:window-x="-9"
     inkscape:window-y="-9"
     inkscape:window-maximized="1" />
  <metadata
     id="metadata4517">
    <rdf:RDF>
      <cc:Work
         rdf:about="">
        <dc:format>image/svg+xml</dc:format>
        <dc:type
           rdf:resource="http://purl.org/dc/dcmitype/StillImage" />
        <dc:title></dc:title>
      </cc:Work>
    </rdf:RDF>
  </metadata>
  <g
     inkscape:label="Camada 1"
     inkscape:groupmode="layer"
     id="layer1"
     transform="translate(0,-233.49998)">
    <path
       style="fill:#ffffff;stroke:none;stroke-width:0.26458335px;stroke-linecap:butt;stroke-linejoin:miter;stroke-opacity:1"
       d="m 0,296.99998 h 46.302084 l 6.614583,-66.14583 H -6.6145834 Z"
       id="path5065"
       inkscape:connector-curvature="0"
       sodipodi:nodetypes="ccccc"
       inkscape:export-xdpi="96"
       inkscape:export-ydpi="96" />
    <g
       id="g5188">
      <path
         sodipodi:nodetypes="ccccccc"
         inkscape:connector-curvature="0"
         id="path5067"
         d="m 52.916667,188.52081 3.96875,37.04167 c 2.643581,0 2.645833,0.004 2.645833,2.64583 H 0 c -0.08142676,-2.634 -0.08051713,-2.64583 2.6458334,-2.64583 l 3.96875,-37.04167 c 21.6863846,-2.26786 46.3020836,0 46.3020836,0 z"
         style="fill:#ffffff;stroke:none;stroke-width:0.26458335px;stroke-linecap:butt;stroke-linejoin:miter;stroke-opacity:1" />
      <path
         sodipodi:nodetypes="cccc"
         inkscape:connector-curvature="0"
         id="path5069"
         d="M 10.583333,188.52081 7.9375001,224.23956 H 50.270834 l -1.322917,-35.71875"
         style="fill:none;stroke:#000000;stroke-width:0.26458335px;stroke-linecap:butt;stroke-linejoin:miter;stroke-opacity:1" />
      <path
         sodipodi:nodetypes="cc"
         inkscape:connector-curvature="0"
         id="path5071"
         d="m 4.7625,226.09165 c 0,0 23.264435,-0.37798 50.00625,0"
         style="fill:none;stroke:#000000;stroke-width:0.26458335px;stroke-linecap:butt;stroke-linejoin:miter;stroke-opacity:1" />
    </g>
    <path
       style="fill:#2a1a1a;fill-opacity:1;stroke:none;stroke-width:0.26458335px;stroke-linecap:butt;stroke-linejoin:miter;stroke-opacity:1;filter:url(#filter5175)"
       d="M -8.2880553,208.67615 H -67.819306 c -0.111475,0.0416 -0.222949,0.0833 -0.334424,0.12489 0,0.0223 0.01575,0.0511 0,0.0668 -0.01575,0.0157 -0.05107,-0.0157 -0.06682,0 -0.01575,0.0157 0.01,0.0469 0,0.0668 -0.01409,0.0282 -0.05273,0.0387 -0.06682,0.0668 -0.01,0.0199 0.01575,0.0511 0,0.0668 -0.01575,0.0157 -0.05107,-0.0157 -0.06682,0 -0.03341,0.0334 0.03341,0.16704 0,0.20045 -0.01575,0.0157 -0.05107,-0.0157 -0.06682,0 -0.0315,0.0315 0.0315,0.10214 0,0.13363 -0.01575,0.0157 -0.05107,-0.0157 -0.06682,0 -0.0315,0.0315 0.0315,0.10214 0,0.13364 -0.01575,0.0158 -0.05107,-0.0157 -0.06682,0 -0.03341,0.0334 0.03341,0.16704 0,0.20045 -0.01575,0.0157 -0.05107,-0.0157 -0.06682,0 -0.01608,0.0161 0.01608,0.25119 0,0.26727 -0.01575,0.0157 -0.05107,-0.0157 -0.06682,0 -0.01575,0.0157 0,0.0445 0,0.0668 0,0.0245 -0.0027,0.26458 0,0.26727 0.01575,0.0157 0.05107,-0.0157 0.06682,0 0.0315,0.0315 -0.0315,0.10213 0,0.13363 0.01575,0.0158 0.05107,-0.0157 0.06682,0 0.138247,0.13825 -0.211261,-0.005 0.06682,0.13364 0.01992,0.01 0.05107,-0.0157 0.06682,0 0.138247,0.13824 -0.211261,-0.005 0.06682,0.13363 0.01992,0.01 0.05107,-0.0157 0.06682,0 0.01575,0.0157 -0.01575,0.0511 0,0.0668 0.01575,0.0157 0.04454,0 0.06682,0 0.02227,0 0.04454,0 0.06682,0 0.222724,0 0.445449,0 0.668174,0 0.267269,0 0.534539,0 0.801808,0 0.02227,0 0.04454,0 0.06682,0 0.02227,0 0.05107,0.0157 0.06682,0 0.01575,-0.0157 -0.01575,-0.0511 0,-0.0668 0.02069,-0.0207 0.313397,0.0207 0.334087,0 0.01575,-0.0157 -0.01575,-0.0511 0,-0.0668 0.02069,-0.0207 0.313397,0.0207 0.334087,0 0.01575,-0.0157 -0.01575,-0.0511 0,-0.0668 0.03341,-0.0334 0.167044,0.0334 0.200452,0 0.01575,-0.0157 -0.01575,-0.0511 0,-0.0668 0.01608,-0.0161 0.251191,0.0161 0.26727,0 0.01575,-0.0157 -0.01575,-0.0511 0,-0.0668 0.01608,-0.0161 0.251191,0.0161 0.267269,0 0.01575,-0.0157 -0.01575,-0.0511 0,-0.0668 0.01575,-0.0157 0.04454,0 0.06682,0 0.133635,0 0.26727,0 0.400905,0 0.02454,0 0.26458,0.003 0.267269,0 0.01575,-0.0157 -0.01575,-0.0511 0,-0.0668 0.0067,-0.007 0.19377,-0.007 0.200452,0 0.01575,0.0157 -0.01575,0.0511 0,0.0668 0.03341,0.0334 0.167044,-0.0334 0.200452,0 0.01575,0.0157 -0.01575,0.0511 0,0.0668 0.01608,0.0161 0.251192,-0.0161 0.26727,0 0.01575,0.0158 -0.01575,0.0511 0,0.0668 0.01575,0.0157 0.0469,-0.01 0.06682,0 0.02817,0.0141 0.03864,0.0527 0.06682,0.0668 0.01992,0.01 0.05107,-0.0157 0.06682,0 0.01575,0.0157 -0.01575,0.0511 0,0.0668 0.01575,0.0157 0.0469,-0.01 0.06682,0 0.02817,0.0141 0.03864,0.0527 0.06682,0.0668 0.01992,0.01 0.05107,-0.0157 0.06682,0 0.01575,0.0157 -0.01575,0.0511 0,0.0668 0.17818,0 -0.02227,-0.0223 0.06682,0.0668 0.03341,0.0334 0.167043,-0.0334 0.200452,0 0.01575,0.0157 -0.01575,0.0511 0,0.0668 0.03341,0.0334 0.167044,-0.0334 0.200452,0 0.01575,0.0157 -0.01575,0.0511 0,0.0668 0.0315,0.0315 0.09379,-0.0199 0.133635,0 0.02817,0.0141 0.03865,0.0527 0.06682,0.0668 0.03984,0.0199 0.102137,-0.0315 0.133635,0 0.01575,0.0157 -0.01575,0.0511 0,0.0668 0.03341,0.0334 0.167043,-0.0334 0.200452,0 0.01575,0.0157 -0.01575,0.0511 0,0.0668 0.03341,0.0334 0.167043,-0.0334 0.200452,0 0.01575,0.0157 -0.01575,0.0511 0,0.0668 0.01575,0.0157 0.04454,0 0.06682,0 0.0315,0 0.331059,-0.003 0.334087,0 0.01575,0.0157 -0.01575,0.0511 0,0.0668 0.01366,0.0137 0.17396,-0.0132 0.200453,0 0.02817,0.0141 0.03864,0.0527 0.06682,0.0668 0.02416,0.0121 0.287613,0 0.334087,0 0.02227,0 0.05107,-0.0157 0.06682,0 0.01575,0.0157 -0.01575,0.0511 0,0.0668 0.0021,0.002 0.184247,0 0.200452,0 0.02227,0 0.04454,0 0.06682,0 0.02227,0 0.0469,-0.01 0.06682,0 0.02817,0.0141 0.03865,0.0527 0.06682,0.0668 0.01992,0.01 0.04454,0 0.06682,0 0.02227,0 0.04454,0 0.06682,0 0.111363,0 0.222725,0 0.334087,0 0.02227,0 0.04454,0 0.06682,0 0.02227,0 0.05107,-0.0157 0.06682,0 0.01575,0.0157 -0.01575,0.0511 0,0.0668 0.01575,0.0157 0.04454,0 0.06682,0 0.02227,0 0.04454,0 0.06682,0 0.17818,0 0.35636,0 0.534539,0 0.03009,0 0.180118,-0.0102 0.200452,0 0.02817,0.0141 0.03864,0.0527 0.06682,0.0668 0.02033,0.0102 0.170361,0 0.200453,0 0.178179,0 0.356359,0 0.534539,0 0.0162,0 0.198303,0.002 0.200452,0 0.01575,-0.0157 -0.01575,-0.0511 0,-0.0668 0.01575,-0.0157 0.04454,0 0.06682,0 0.178179,0 0.356359,0 0.534539,0 0.02227,0 0.04454,0 0.06682,0 0.02227,0 0.05107,0.0157 0.06682,0 0.01575,-0.0157 -0.01575,-0.0511 0,-0.0668 0.03341,-0.0334 0.167043,0.0334 0.200452,0 0.01575,-0.0157 -0.01575,-0.0511 0,-0.0668 0.02069,-0.0207 0.313397,0.0207 0.334087,0 0.01575,-0.0157 -0.01575,-0.0511 0,-0.0668 0.02069,-0.0207 0.313397,0.0207 0.334087,0 0.01575,-0.0157 -0.01575,-0.0511 0,-0.0668 0.01828,-0.0183 0.231022,0.0181 0.267269,0 0.02817,-0.0141 0.03865,-0.0527 0.06682,-0.0668 0.04057,-0.0203 0.360332,0.0203 0.400905,0 0.02817,-0.0141 0.03864,-0.0527 0.06682,-0.0668 0.01992,-0.01 0.04454,0 0.06682,0 0.04736,0 0.383628,0.009 0.400904,0 0.02817,-0.0141 0.03865,-0.0527 0.06682,-0.0668 0.01728,-0.009 0.353544,0 0.400904,0 0.04736,0 0.383629,0.009 0.400905,0 0.02817,-0.0141 0.03865,-0.0527 0.06682,-0.0668 0.01728,-0.009 0.353544,0 0.400904,0 0.334087,0 0.668174,0 1.002261,0 0.02227,0 0.04454,0 0.06682,0 0.02227,0 0.0469,0.01 0.06682,0 0.02817,-0.0141 0.03865,-0.0527 0.06682,-0.0668 0.02033,-0.0102 0.17036,0 0.200452,0 0.178179,0 0.356359,0 0.534539,0 0.0162,0 0.198303,0.002 0.200452,0 0.01575,-0.0157 -0.01575,-0.0511 0,-0.0668 0.01575,-0.0157 0.04454,0 0.06682,0 0.02227,0 0.04454,0 0.06682,0 0.222725,0 0.445449,0 0.668174,0 0.02227,0 0.04454,0 0.06682,0 0.02227,0 0.05107,0.0157 0.06682,0 0.01575,-0.0157 -0.01575,-0.0511 0,-0.0668 0.01575,-0.0157 0.04454,0 0.06682,0 0.155908,0 0.311815,0 0.467722,0 0.02227,0 0.04455,0 0.06682,0 0.02227,0 0.05107,0.0157 0.06682,0 0.01575,-0.0157 -0.01575,-0.0511 0,-0.0668 0.01575,-0.0157 0.04455,0 0.06682,0 0.155907,0 0.311815,0 0.467722,0 0.02227,0 0.04454,0 0.06682,0 0.02227,0 0.05107,0.0157 0.06682,0 0.01575,-0.0157 -0.01575,-0.0511 0,-0.0668 0.01575,-0.0157 0.04454,0 0.06682,0 0.02227,0 0.04454,0 0.06682,0 0.133635,0 0.26727,0 0.400905,0 0.02227,0 0.04454,0 0.06682,0 0.02227,0 0.0469,-0.01 0.06682,0 0.02817,0.0141 0.03865,0.0527 0.06682,0.0668 0.04215,0.0211 0.291934,-0.0211 0.334087,0 0.02817,0.0141 0.03864,0.0527 0.06682,0.0668 0.03984,0.0199 0.102137,-0.0315 0.133635,0 0.01575,0.0157 -0.01575,0.0511 0,0.0668 0.0315,0.0315 0.102137,-0.0315 0.133635,0 0.01575,0.0157 -0.01575,0.0511 0,0.0668 0.01575,0.0157 0.0469,-0.01 0.06682,0 0.02817,0.0141 0.03865,0.0527 0.06682,0.0668 0.01992,0.01 0.05107,-0.0158 0.06682,0 0.01575,0.0157 -0.01575,0.0511 0,0.0668 0.01608,0.0161 0.251191,-0.0161 0.267269,0 0.01575,0.0157 -0.01575,0.0511 0,0.0668 0.0027,0.003 0.242732,0 0.26727,0 0.400904,0 0.801808,0 1.202713,0 0.01621,0 0.198303,-0.002 0.200452,0 0.01575,0.0157 -0.01575,0.0511 0,0.0668 0.0021,0.002 0.184247,0 0.200452,0 0.244997,0 0.489994,0 0.734991,0 0.04647,0 0.309924,0.0121 0.334087,0 0.02817,-0.0141 0.03864,-0.0527 0.06682,-0.0668 0.01992,-0.01 0.04454,0 0.06682,0 0.04736,0 0.383628,0.009 0.400904,0 0.02817,-0.0141 0.03864,-0.0527 0.06682,-0.0668 0.02416,-0.0121 0.287612,0 0.334086,0 0.04736,0 0.383629,0.009 0.400905,0 0.02817,-0.0141 0.03864,-0.0527 0.06682,-0.0668 0.02033,-0.0102 0.170361,0 0.200452,0 0.17818,0 0.35636,0 0.534539,0 0.03494,0 0.249701,0.009 0.26727,0 0.02817,-0.0141 0.03864,-0.0527 0.06682,-0.0668 0.01757,-0.009 0.23233,0 0.26727,0 0.178179,0 0.356359,0 0.534539,0 0.222724,0 0.445449,0 0.668174,0 0.02227,0 0.04454,0 0.06682,0 0.02227,0 0.05107,0.0157 0.06682,0 0.01575,-0.0157 -0.01575,-0.0511 0,-0.0668 0.01575,-0.0157 0.04454,0 0.06682,0 0.02227,0 0.04454,0 0.06682,0 0.155907,0 0.311815,0 0.467722,0 0.02227,0 0.05107,0.0157 0.06682,0 0.01575,-0.0157 -0.01575,-0.0511 0,-0.0668 0.01575,-0.0157 0.04454,0 0.06682,0 0.02227,0 0.04454,0 0.06682,0 0.133635,0 0.26727,0 0.400904,0 0.02227,0 0.04454,0 0.06682,0 0.02227,0 0.0469,0.01 0.06682,0 0.02817,-0.0141 0.03864,-0.0527 0.06682,-0.0668 0.01757,-0.009 0.23233,0 0.26727,0 0.289542,0 0.579084,0 0.868626,0 0.04647,0 0.309923,0.0121 0.334087,0 0.02817,-0.0141 0.03864,-0.0527 0.06682,-0.0668 0.01992,-0.01 0.04454,0 0.06682,0 0.02227,0 0.04455,0 0.06682,0 0.111362,0 0.222725,0 0.334087,0 0.02227,0 0.04454,0 0.06682,0 0.02227,0 0.05107,0.0157 0.06682,0 0.01575,-0.0157 -0.01575,-0.0511 0,-0.0668 0.0021,-0.002 0.184247,0 0.200452,0 0.111362,0 0.222724,0 0.334087,0 0.02227,0 0.05107,0.0157 0.06682,0 0.01575,-0.0157 -0.01575,-0.0511 0,-0.0668 0.01575,-0.0157 0.04454,0 0.06682,0 0.0315,0 0.331058,0.003 0.334086,0 0.01575,-0.0157 -0.01575,-0.0511 0,-0.0668 0.01575,-0.0157 0.04454,0 0.06682,0 0.0315,0 0.331058,0.003 0.334087,0 0.01575,-0.0157 -0.01575,-0.0511 0,-0.0668 0.0021,-0.002 0.184247,0 0.200452,0 0.111362,0 0.222724,0 0.334087,0 0.02227,0 0.05107,0.0158 0.06682,0 0.01575,-0.0157 -0.01575,-0.0511 0,-0.0668 0.02069,-0.0207 0.313397,0.0207 0.334087,0 0.01575,-0.0157 -0.01575,-0.0511 0,-0.0668 0.0027,-0.003 0.242732,0 0.26727,0 0.02454,0 0.26458,0.003 0.267269,0 0.08909,-0.0891 -0.111362,-0.0668 0.06682,-0.0668 0.467721,0 0.935443,0 1.403165,0 0.02454,0 0.26458,0.003 0.267269,0 0.01575,-0.0157 -0.01575,-0.0511 0,-0.0668 0.01575,-0.0157 0.04455,0 0.06682,0 0.02227,0 0.04455,0 0.06682,0 0.378632,0 0.757264,0 1.135895,0 0.02227,0 0.04454,0 0.06682,0 0.02227,0 0.0469,0.01 0.06682,0 0.02817,-0.0141 0.03864,-0.0527 0.06682,-0.0668 0.02416,-0.0121 0.287612,0 0.334086,0 0.26727,0 0.534539,0 0.801809,0 0.155907,0 0.311814,0 0.467722,0 0.02227,0 0.05107,-0.0157 0.06682,0 0.01575,0.0157 -0.01575,0.0511 0,0.0668 0.01575,0.0157 0.04454,0 0.06682,0 0.04736,0 0.383629,-0.009 0.400905,0 0.02817,0.0141 0.03864,0.0527 0.06682,0.0668 0.01728,0.009 0.353544,0 0.400904,0 0.03494,0 0.249701,-0.009 0.26727,0 0.02817,0.0141 0.03865,0.0527 0.06682,0.0668 0.01728,0.009 0.353544,0 0.400905,0 0.02227,0 0.0469,-0.01 0.06682,0 0.02817,0.0141 0.03864,0.0527 0.06682,0.0668 0.01728,0.009 0.353544,0 0.400905,0 0.111362,0 0.222724,0 0.334087,0 0.02227,0 0.05107,-0.0157 0.06682,0 0.01575,0.0157 -0.01575,0.0511 0,0.0668 0.01575,0.0158 0.04454,0 0.06682,0 0.04648,0 0.309924,-0.0121 0.334087,0 0.02817,0.0141 0.03865,0.0527 0.06682,0.0668 0.02416,0.0121 0.287612,0 0.334087,0 0.244997,0 0.489994,0 0.734991,0 0.02227,0 0.04454,0 0.06682,0 0.02227,0 0.0469,-0.01 0.06682,0 0.02817,0.0141 0.03864,0.0527 0.06682,0.0668 0.02416,0.0121 0.287613,0 0.334087,0 0.222724,0 0.445449,0 0.668174,0 0.02227,0 0.04455,0 0.06682,0 0.02227,0 0.05107,-0.0157 0.06682,0 0.01575,0.0157 -0.01575,0.0511 0,0.0668 0.02069,0.0207 0.313398,-0.0207 0.334087,0 0.01575,0.0157 -0.01575,0.0511 0,0.0668 0.02345,0.0235 0.287934,-0.0231 0.334087,0 0.02817,0.0141 0.03865,0.0527 0.06682,0.0668 0.01727,0.009 0.353544,0 0.400904,0 0.02227,0 0.0469,-0.01 0.06682,0 0.02817,0.0141 0.03865,0.0527 0.06682,0.0668 0.01757,0.009 0.232329,0 0.267269,0 0.17818,0 0.35636,0 0.534539,0 0.311815,0 0.623629,0 0.935444,0 0.04736,0 0.383628,0.009 0.400904,0 0.02817,-0.0141 0.03865,-0.0527 0.06682,-0.0668 0.02033,-0.0102 0.170361,0 0.200452,0 0.17818,0 0.35636,0 0.53454,0 0.0162,0 0.198303,0.002 0.200452,0 0.01575,-0.0157 -0.01575,-0.0511 0,-0.0668 0.01575,-0.0157 0.04454,0 0.06682,0 0.155907,0 0.311815,0 0.467722,0 0.200452,0 0.400904,0 0.601356,0 0.02227,0 0.04454,0 0.06682,0 0.02227,0 0.05107,0.0157 0.06682,0 0.01575,-0.0157 -0.01575,-0.0511 0,-0.0668 0.0021,-0.002 0.184247,0 0.200452,0 0.133635,0 0.26727,0 0.400904,0 0.03009,0 0.180118,0.0102 0.200453,0 0.02817,-0.0141 0.03864,-0.0527 0.06682,-0.0668 0.02034,-0.0102 0.17036,0 0.200452,0 0.155907,0 0.311815,0 0.467722,0 0.06682,0 0.137063,0.0211 0.200452,0 0.02988,-0.01 0.03865,-0.0527 0.06682,-0.0668 0.01757,-0.009 0.23233,0 0.26727,0 0.04736,0 0.383628,0.009 0.400904,0 0.02817,-0.0141 0.03865,-0.0527 0.06682,-0.0668 0.02034,-0.0102 0.170361,0 0.200453,0 0.133634,0 0.267269,0 0.400904,0 0.03494,0 0.2497,0.009 0.267269,0 0.02817,-0.0141 0.03865,-0.0527 0.06682,-0.0668 0.02034,-0.0102 0.17036,0 0.200452,0 0.155907,0 0.311814,0 0.467722,0 0.02227,0 0.04454,0 0.06682,0 0.02227,0 0.05107,-0.0157 0.06682,0 0.01575,0.0157 -0.01575,0.0511 0,0.0668 0.02069,0.0207 0.313398,-0.0207 0.334087,0 0.01575,0.0158 -0.01575,0.0511 0,0.0668 0.03341,0.0334 0.167044,-0.0334 0.200452,0 0.01575,0.0157 -0.01575,0.0511 0,0.0668 0.01608,0.0161 0.251192,-0.0161 0.26727,0 0.01575,0.0157 -0.01575,0.0511 0,0.0668 0.003,0.003 0.302583,0 0.334087,0 0.02227,0 0.05107,-0.0157 0.06682,0 0.01575,0.0157 -0.01575,0.0511 0,0.0668 0.003,0.003 0.302583,0 0.334087,0 0.289542,0 0.579084,0 0.868626,0 0.04736,0 0.383629,0.009 0.400904,0 0.02817,-0.0141 0.03865,-0.0527 0.06682,-0.0668 0.01757,-0.009 0.232329,0 0.267269,0 0.08903,2e-5 0.178052,5e-5 0.267078,7e-5 0.02227,1e-5 0.05107,0.0157 0.06682,0 0.01575,-0.0157 -0.01575,-0.0511 0,-0.0668 0.01575,-0.0157 0.04454,0 0.06682,0 0.0162,0 0.198303,-0.002 0.200452,0 0.01575,0.0157 -0.01575,0.0511 0,0.0668 0.01575,0.0157 0.04454,0 0.06682,0 0.06682,0 0.133635,0 0.2004517,0 0.02227,0 -0.06682,-0.0223 -0.06682,0 0,0.0223 0.04454,0 0.06682,0 0.0162,0 0.198304,0.002 0.200453,0 0.08909,-0.0891 -0.111363,-0.0668 0.06682,-0.0668 0.02227,0 0.04454,0 0.06682,0 0.02227,0 0.05107,0.0157 0.06682,0 0.01575,-0.0157 -0.01575,-0.0511 0,-0.0668 0.0315,-0.0315 0.102136,0.0315 0.133634,0 0.01575,-0.0157 -0.01575,-0.0511 0,-0.0668 0.0315,-0.0315 0.102137,0.0315 0.133635,0 0.01575,-0.0157 -0.01575,-0.0511 0,-0.0668 0.03341,-0.0334 0.167044,0.0334 0.200452,0 0.01575,-0.0157 -0.01575,-0.0511 0,-0.0668 0.0315,-0.0315 0.09379,0.0199 0.133635,0 0.02817,-0.0141 0.03865,-0.0527 0.06682,-0.0668 0.01992,-0.01 0.0469,0.01 0.06682,0 0.02817,-0.0141 0.03865,-0.0527 0.06682,-0.0668 0.01992,-0.01 0.05107,0.0157 0.06682,0 0.08909,-0.0891 -0.111363,-0.0668 0.06682,-0.0668 0.01575,-0.0157 -0.01575,-0.0511 0,-0.0668 0.01575,-0.0157 0.05107,0.0157 0.06682,0 0.0315,-0.0315 -0.0315,-0.10214 0,-0.13364 0.01575,-0.0157 0.05107,0.0157 0.06682,0 0.01575,-0.0157 -0.01575,-0.0511 0,-0.0668 0.01575,-0.0157 0.05107,0.0157 0.06682,0 0.01575,-0.0157 -0.01575,-0.0511 0,-0.0668 0.01575,-0.0157 0.05107,0.0157 0.06682,0 0.01575,-0.0157 -0.01575,-0.0511 0,-0.0668 0.03341,-0.0334 0.167043,0.0334 0.200452,0 0.01575,-0.0157 -0.01575,-0.0511 0,-0.0668 0.01575,-0.0157 0.04454,0 0.06682,0 0.02227,0 0.04454,0 0.06682,0 0.17818,0 -0.02227,0.0223 0.06682,-0.0668 0.0315,-0.0315 0.102137,0.0315 0.133635,0 0.01575,-0.0157 -0.01575,-0.0511 0,-0.0668 0.0315,-0.0315 0.102136,0.0315 0.133634,0 0.01575,-0.0157 -0.01575,-0.0511 0,-0.0668 0.0315,-0.0315 0.102137,0.0315 0.133635,0 0.0315,-0.0315 -0.0315,-0.10214 0,-0.13363 0.01575,-0.0157 0.05107,0.0157 0.06682,0 0.03981,-0.0398 -0.06669,-0.20046 0.06682,-0.20046 0.02227,0 -0.02227,0.0668 0,0.0668 0.02227,0 0,-0.0445 0,-0.0668 0,-0.0223 0.01575,-0.0511 0,-0.0668 -0.01575,-0.0157 -0.05107,0.0157 -0.06682,0 -0.01575,-0.0157 0.01575,-0.0511 0,-0.0668 -0.01575,-0.0157 -0.05107,0.0157 -0.06682,0 -0.01575,-0.0157 0.01575,-0.0511 0,-0.0668 -0.0315,-0.0315 -0.102137,0.0315 -0.133635,0 -0.01575,-0.0157 0.01575,-0.0511 0,-0.0668 -0.01575,-0.0157 -0.05107,0.0157 -0.06682,0 -0.01575,-0.0157 0.01575,-0.0511 0,-0.0668 -0.01575,-0.0157 -0.04455,0 -0.06682,0 -0.02227,0 -0.04455,0 -0.06682,0 -0.02227,0 -0.05107,0.0157 -0.06682,0 -0.01575,-0.0157 0,-0.0446 0,-0.0668 -0.112262,-0.0194 -0.224525,-0.0387 -0.336787,-0.0581 z"
       id="path5079"
       inkscape:connector-curvature="0"
       sodipodi:nodetypes="cc"
       inkscape:export-xdpi="96"
       inkscape:export-ydpi="96" />
  </g>
</svg>
