<?xml version="1.0" encoding="UTF-8" standalone="no"?>
<!-- Created with Inkscape (http://www.inkscape.org/) -->

<svg
   xmlns:dc="http://purl.org/dc/elements/1.1/"
   xmlns:cc="http://creativecommons.org/ns#"
   xmlns:rdf="http://www.w3.org/1999/02/22-rdf-syntax-ns#"
   xmlns:svg="http://www.w3.org/2000/svg"
   xmlns="http://www.w3.org/2000/svg"
   xmlns:sodipodi="http://sodipodi.sourceforge.net/DTD/sodipodi-0.dtd"
   xmlns:inkscape="http://www.inkscape.org/namespaces/inkscape"
   width="240"
   height="240"
   viewBox="0 0 63.499999 63.500002"
   version="1.1"
   id="svg4520"
   inkscape:version="0.92.1 r15371"
   sodipodi:docname="Lixeira_generica.svg">
  <defs
     id="defs4514">
    <filter
       inkscape:label="Linen Canvas"
       inkscape:menu="Bumps"
       inkscape:menu-tooltip="Painting canvas emboss effect"
       style="color-interpolation-filters:sRGB;"
       id="filter5175">
      <feTurbulence
         numOctaves="5"
         baseFrequency="0.4"
         id="feTurbulence5151" />
      <feConvolveMatrix
         order="5 5"
         kernelMatrix="-4 0 0 0 -4 0 -2 0 -2 0 0 0 -10 0 0 0 -2 0 -2 0 -4 0 0 0 -4 "
         targetX="2"
         targetY="2"
         id="feConvolveMatrix5153" />
      <feConvolveMatrix
         order="3 3"
         kernelMatrix="2 0 2 0 -5 0 2 0 2 "
         targetX="1"
         targetY="1"
         id="feConvolveMatrix5155" />
      <feColorMatrix
         type="saturate"
         result="result1"
         id="feColorMatrix5157" />
      <feComposite
         in2="SourceGraphic"
         operator="arithmetic"
         k1="1.5"
         k2="0.5"
         k3="0.5"
         result="result2"
         id="feComposite5159" />
      <feBlend
         mode="normal"
         in2="result1"
         result="result4"
         id="feBlend5161" />
      <feColorMatrix
         type="luminanceToAlpha"
         id="feColorMatrix5163" />
      <feDiffuseLighting
         surfaceScale="10"
         diffuseConstant="1"
         result="result3"
         id="feDiffuseLighting5167">
        <feDistantLight
           azimuth="180"
           elevation="35"
           id="feDistantLight5165" />
      </feDiffuseLighting>
      <feComposite
         in2="result4"
         operator="arithmetic"
         k1="1.5"
         k3="0.5"
         result="result5"
         id="feComposite5169" />
      <feBlend
         mode="normal"
         in2="result3"
         result="result6"
         id="feBlend5171" />
      <feComposite
         in2="SourceGraphic"
         operator="in"
         id="feComposite5173" />
    </filter>
  </defs>
  <sodipodi:namedview
     id="base"
     pagecolor="#ffffff"
     bordercolor="#666666"
     borderopacity="1.0"
     inkscape:pageopacity="0.0"
     inkscape:pageshadow="2"
     inkscape:zoom="1.2212323"
     inkscape:cx="14.053944"
     inkscape:cy="91.655519"
     inkscape:document-units="px"
     inkscape:current-layer="layer1"
     showgrid="false"
     units="px"
     inkscape:pagecheckerboard="true"
     inkscape:window-width="1920"
     inkscape:window-height="1001"
     inkscape:window-x="-9"
     inkscape:window-y="-9"
     inkscape:window-maximized="1" />
  <metadata
     id="metadata4517">
    <rdf:RDF>
      <cc:Work
         rdf:about="">
        <dc:format>image/svg+xml</dc:format>
        <dc:type
           rdf:resource="http://purl.org/dc/dcmitype/StillImage" />
        <dc:title />
      </cc:Work>
    </rdf:RDF>
  </metadata>
  <g
     inkscape:label="Camada 1"
     inkscape:groupmode="layer"
     id="layer1"
     transform="translate(0,-233.49998)">
    <path
       style="fill:#ffffff;stroke:none;stroke-width:0.26458335px;stroke-linecap:butt;stroke-linejoin:miter;stroke-opacity:1"
       d="m 0,296.99998 h 46.302084 l 6.614583,-66.14583 H -6.6145834 Z"
       id="path5065"
       inkscape:connector-curvature="0"
       sodipodi:nodetypes="ccccc"
       inkscape:export-xdpi="96"
       inkscape:export-ydpi="96" />
    <g
       id="g5188"
       transform="translate(-6.614583,2.64584)">
      <path
         sodipodi:nodetypes="ccccccc"
         inkscape:connector-curvature="0"
         id="path5067"
         d="m 52.916667,188.52081 3.96875,37.04167 c 2.643581,0 2.645833,0.004 2.645833,2.64583 H 0 c -0.08142676,-2.634 -0.08051713,-2.64583 2.6458334,-2.64583 l 3.96875,-37.04167 c 21.6863846,-2.26786 46.3020836,0 46.3020836,0 z"
         style="fill:#ffffff;stroke:none;stroke-width:0.26458335px;stroke-linecap:butt;stroke-linejoin:miter;stroke-opacity:1" />
      <path
         sodipodi:nodetypes="cccc"
         inkscape:connector-curvature="0"
         id="path5069"
         d="M 10.583333,188.52081 7.9375001,224.23956 H 50.270834 l -1.322917,-35.71875"
         style="fill:none;stroke:#000000;stroke-width:0.26458335px;stroke-linecap:butt;stroke-linejoin:miter;stroke-opacity:1" />
      <path
         sodipodi:nodetypes="cc"
         inkscape:connector-curvature="0"
         id="path5071"
         d="m 4.7625,226.09165 c 0,0 23.264435,-0.37798 50.00625,0"
         style="fill:none;stroke:#000000;stroke-width:0.26458335px;stroke-linecap:butt;stroke-linejoin:miter;stroke-opacity:1" />
    </g>
    <path
       style="fill:#2a1a1a;fill-opacity:1;stroke:none;stroke-width:0.26458335px;stroke-linecap:butt;stroke-linejoin:miter;stroke-opacity:1;filter:url(#filter5175)"
       d="M 52.916667,230.85415 H -6.6145834 c -0.111475,0.0416 -0.222949,0.0833 -0.334424,0.12489 0,0.0223 0.01575,0.0511 0,0.0668 -0.01575,0.0157 -0.05107,-0.0157 -0.06682,0 -0.01575,0.0157 0.01,0.0469 0,0.0668 -0.01409,0.0282 -0.05273,0.0387 -0.06682,0.0668 -0.01,0.0199 0.01575,0.0511 0,0.0668 -0.01575,0.0157 -0.05107,-0.0157 -0.06682,0 -0.03341,0.0334 0.03341,0.16704 0,0.20045 -0.01575,0.0157 -0.05107,-0.0157 -0.06682,0 -0.0315,0.0315 0.0315,0.10214 0,0.13363 -0.01575,0.0157 -0.05107,-0.0157 -0.06682,0 -0.0315,0.0315 0.0315,0.10214 0,0.13364 -0.01575,0.0158 -0.05107,-0.0157 -0.06682,0 -0.03341,0.0334 0.03341,0.16704 0,0.20045 -0.01575,0.0157 -0.05107,-0.0157 -0.06682,0 -0.01608,0.0161 0.01608,0.25119 0,0.26727 -0.01575,0.0157 -0.05107,-0.0157 -0.06682,0 -0.01575,0.0157 0,0.0445 0,0.0668 0,0.0245 -0.0027,0.26458 0,0.26727 0.01575,0.0157 0.05107,-0.0157 0.06682,0 0.0315,0.0315 -0.0315,0.10213 0,0.13363 0.01575,0.0158 0.05107,-0.0157 0.06682,0 0.138247,0.13825 -0.211261,-0.005 0.06682,0.13364 0.01992,0.01 0.05107,-0.0157 0.06682,0 0.138247,0.13824 -0.211261,-0.005 0.06682,0.13363 0.01992,0.01 0.05107,-0.0157 0.06682,0 0.01575,0.0157 -0.01575,0.0511 0,0.0668 0.01575,0.0157 0.04454,0 0.06682,0 0.02227,0 0.04454,0 0.06682,0 0.222724,0 0.445449,0 0.668174,0 0.267269,0 0.534539,0 0.801808,0 0.02227,0 0.04454,0 0.06682,0 0.02227,0 0.05107,0.0157 0.06682,0 0.01575,-0.0157 -0.01575,-0.0511 0,-0.0668 0.02069,-0.0207 0.313397,0.0207 0.334087,0 0.01575,-0.0157 -0.01575,-0.0511 0,-0.0668 0.02069,-0.0207 0.313397,0.0207 0.334087,0 0.01575,-0.0157 -0.01575,-0.0511 0,-0.0668 0.03341,-0.0334 0.167044,0.0334 0.200452,0 0.01575,-0.0157 -0.01575,-0.0511 0,-0.0668 0.01608,-0.0161 0.251191,0.0161 0.26727,0 0.01575,-0.0157 -0.01575,-0.0511 0,-0.0668 0.01608,-0.0161 0.251191,0.0161 0.267269,0 0.01575,-0.0157 -0.01575,-0.0511 0,-0.0668 0.01575,-0.0157 0.04454,0 0.06682,0 0.133635,0 0.26727,0 0.400905,0 0.02454,0 0.26458,0.003 0.267269,0 0.01575,-0.0157 -0.01575,-0.0511 0,-0.0668 0.0067,-0.007 0.19377,-0.007 0.200452,0 0.01575,0.0157 -0.01575,0.0511 0,0.0668 0.03341,0.0334 0.167044,-0.0334 0.200452,0 0.01575,0.0157 -0.01575,0.0511 0,0.0668 0.01608,0.0161 0.251192,-0.0161 0.26727,0 0.01575,0.0158 -0.01575,0.0511 0,0.0668 0.01575,0.0157 0.0469,-0.01 0.06682,0 0.02817,0.0141 0.03864,0.0527 0.06682,0.0668 0.01992,0.01 0.05107,-0.0157 0.06682,0 0.01575,0.0157 -0.01575,0.0511 0,0.0668 0.01575,0.0157 0.0469,-0.01 0.06682,0 0.02817,0.0141 0.03864,0.0527 0.06682,0.0668 0.01992,0.01 0.05107,-0.0157 0.06682,0 0.01575,0.0157 -0.01575,0.0511 0,0.0668 0.17818,0 -0.02227,-0.0223 0.06682,0.0668 0.03341,0.0334 0.167043,-0.0334 0.200452,0 0.01575,0.0157 -0.01575,0.0511 0,0.0668 0.03341,0.0334 0.167044,-0.0334 0.200452,0 0.01575,0.0157 -0.01575,0.0511 0,0.0668 0.0315,0.0315 0.09379,-0.0199 0.133635,0 0.02817,0.0141 0.03865,0.0527 0.06682,0.0668 0.03984,0.0199 0.102137,-0.0315 0.133635,0 0.01575,0.0157 -0.01575,0.0511 0,0.0668 0.03341,0.0334 0.167043,-0.0334 0.200452,0 0.01575,0.0157 -0.01575,0.0511 0,0.0668 0.03341,0.0334 0.167043,-0.0334 0.200452,0 0.01575,0.0157 -0.01575,0.0511 0,0.0668 0.01575,0.0157 0.04454,0 0.06682,0 0.0315,0 0.331059,-0.003 0.334087,0 0.01575,0.0157 -0.01575,0.0511 0,0.0668 0.01366,0.0137 0.17396,-0.0132 0.200453,0 0.02817,0.0141 0.03864,0.0527 0.06682,0.0668 0.02416,0.0121 0.287613,0 0.334087,0 0.02227,0 0.05107,-0.0157 0.06682,0 0.01575,0.0157 -0.01575,0.0511 0,0.0668 0.0021,0.002 0.184247,0 0.200452,0 0.02227,0 0.04454,0 0.06682,0 0.02227,0 0.0469,-0.01 0.06682,0 0.02817,0.0141 0.03865,0.0527 0.06682,0.0668 0.01992,0.01 0.04454,0 0.06682,0 0.02227,0 0.04454,0 0.06682,0 0.111363,0 0.222725,0 0.334087,0 0.02227,0 0.04454,0 0.06682,0 0.02227,0 0.05107,-0.0157 0.06682,0 0.01575,0.0157 -0.01575,0.0511 0,0.0668 0.01575,0.0157 0.04454,0 0.06682,0 0.02227,0 0.04454,0 0.06682,0 0.17818,0 0.35636,0 0.534539,0 0.03009,0 0.180118,-0.0102 0.200452,0 0.02817,0.0141 0.03864,0.0527 0.06682,0.0668 0.02033,0.0102 0.170361,0 0.200453,0 0.178179,0 0.356359,0 0.534539,0 0.0162,0 0.198303,0.002 0.200452,0 0.01575,-0.0157 -0.01575,-0.0511 0,-0.0668 0.01575,-0.0157 0.04454,0 0.06682,0 0.178179,0 0.356359,0 0.534539,0 0.02227,0 0.04454,0 0.06682,0 0.02227,0 0.05107,0.0157 0.06682,0 0.01575,-0.0157 -0.01575,-0.0511 0,-0.0668 0.03341,-0.0334 0.167043,0.0334 0.200452,0 0.01575,-0.0157 -0.01575,-0.0511 0,-0.0668 0.02069,-0.0207 0.313397,0.0207 0.334087,0 0.01575,-0.0157 -0.01575,-0.0511 0,-0.0668 0.02069,-0.0207 0.313397,0.0207 0.334087,0 0.01575,-0.0157 -0.01575,-0.0511 0,-0.0668 0.01828,-0.0183 0.231022,0.0181 0.267269,0 0.02817,-0.0141 0.03865,-0.0527 0.06682,-0.0668 0.04057,-0.0203 0.360332,0.0203 0.400905,0 0.02817,-0.0141 0.03864,-0.0527 0.06682,-0.0668 0.01992,-0.01 0.04454,0 0.06682,0 0.04736,0 0.383628,0.009 0.400904,0 0.02817,-0.0141 0.03865,-0.0527 0.06682,-0.0668 0.01728,-0.009 0.353544,0 0.400904,0 0.04736,0 0.383629,0.009 0.400905,0 0.02817,-0.0141 0.03865,-0.0527 0.06682,-0.0668 0.01728,-0.009 0.353544,0 0.400904,0 0.334087,0 0.668174,0 1.002261,0 0.02227,0 0.04454,0 0.06682,0 0.02227,0 0.0469,0.01 0.06682,0 0.02817,-0.0141 0.03865,-0.0527 0.06682,-0.0668 0.02033,-0.0102 0.17036,0 0.200452,0 0.178179,0 0.356359,0 0.534539,0 0.0162,0 0.198303,0.002 0.200452,0 0.01575,-0.0157 -0.01575,-0.0511 0,-0.0668 0.01575,-0.0157 0.04454,0 0.06682,0 0.02227,0 0.04454,0 0.06682,0 0.222725,0 0.445449,0 0.6681744,0 0.02227,0 0.04454,0 0.06682,0 0.02227,0 0.05107,0.0157 0.06682,0 0.01575,-0.0157 -0.01575,-0.0511 0,-0.0668 0.01575,-0.0157 0.04454,0 0.06682,0 0.155908,0 0.311815,0 0.467722,0 0.02227,0 0.04455,0 0.06682,0 0.02227,0 0.05107,0.0157 0.06682,0 0.01575,-0.0157 -0.01575,-0.0511 0,-0.0668 0.01575,-0.0157 0.04455,0 0.06682,0 0.155907,0 0.311815,0 0.467722,0 0.02227,0 0.04454,0 0.06682,0 0.02227,0 0.05107,0.0157 0.06682,0 0.01575,-0.0157 -0.01575,-0.0511 0,-0.0668 0.01575,-0.0157 0.04454,0 0.06682,0 0.02227,0 0.04454,0 0.06682,0 0.133635,0 0.26727,0 0.400905,0 0.02227,0 0.04454,0 0.06682,0 0.02227,0 0.0469,-0.01 0.06682,0 0.02817,0.0141 0.03865,0.0527 0.06682,0.0668 0.04215,0.0211 0.291934,-0.0211 0.334087,0 0.02817,0.0141 0.03864,0.0527 0.06682,0.0668 0.03984,0.0199 0.102137,-0.0315 0.133635,0 0.01575,0.0157 -0.01575,0.0511 0,0.0668 0.0315,0.0315 0.102137,-0.0315 0.133635,0 0.01575,0.0157 -0.01575,0.0511 0,0.0668 0.01575,0.0157 0.0469,-0.01 0.06682,0 0.02817,0.0141 0.03865,0.0527 0.06682,0.0668 0.01992,0.01 0.05107,-0.0158 0.06682,0 0.01575,0.0157 -0.01575,0.0511 0,0.0668 0.01608,0.0161 0.251191,-0.0161 0.267269,0 0.01575,0.0157 -0.01575,0.0511 0,0.0668 0.0027,0.003 0.242732,0 0.26727,0 0.400904,0 0.801808,0 1.202713,0 0.01621,0 0.198303,-0.002 0.200452,0 0.01575,0.0157 -0.01575,0.0511 0,0.0668 0.0021,0.002 0.184247,0 0.200452,0 0.244997,0 0.489994,0 0.734991,0 0.04647,0 0.309924,0.0121 0.334087,0 0.02817,-0.0141 0.03864,-0.0527 0.06682,-0.0668 0.01992,-0.01 0.04454,0 0.06682,0 0.04736,0 0.383628,0.009 0.400904,0 0.02817,-0.0141 0.03864,-0.0527 0.06682,-0.0668 0.02416,-0.0121 0.287612,0 0.334086,0 0.04736,0 0.383629,0.009 0.400905,0 0.02817,-0.0141 0.03864,-0.0527 0.06682,-0.0668 0.02033,-0.0102 0.170361,0 0.200452,0 0.17818,0 0.35636,0 0.534539,0 0.03494,0 0.249701,0.009 0.26727,0 0.02817,-0.0141 0.03864,-0.0527 0.06682,-0.0668 0.01757,-0.009 0.23233,0 0.26727,0 0.178179,0 0.356359,0 0.534539,0 0.222724,0 0.445449,0 0.668174,0 0.02227,0 0.04454,0 0.06682,0 0.02227,0 0.05107,0.0157 0.06682,0 0.01575,-0.0157 -0.01575,-0.0511 0,-0.0668 0.01575,-0.0157 0.04454,0 0.06682,0 0.02227,0 0.04454,0 0.06682,0 0.155907,0 0.311815,0 0.467722,0 0.02227,0 0.05107,0.0157 0.06682,0 0.01575,-0.0157 -0.01575,-0.0511 0,-0.0668 0.01575,-0.0157 0.04454,0 0.06682,0 0.02227,0 0.04454,0 0.06682,0 0.133635,0 0.26727,0 0.400904,0 0.02227,0 0.04454,0 0.06682,0 0.02227,0 0.0469,0.01 0.06682,0 0.02817,-0.0141 0.03864,-0.0527 0.06682,-0.0668 0.01757,-0.009 0.23233,0 0.26727,0 0.289542,0 0.579084,0 0.868626,0 0.04647,0 0.309923,0.0121 0.334087,0 0.02817,-0.0141 0.03864,-0.0527 0.06682,-0.0668 0.01992,-0.01 0.04454,0 0.06682,0 0.02227,0 0.04455,0 0.06682,0 0.111362,0 0.222725,0 0.334087,0 0.02227,0 0.04454,0 0.06682,0 0.02227,0 0.05107,0.0157 0.06682,0 0.01575,-0.0157 -0.01575,-0.0511 0,-0.0668 0.0021,-0.002 0.184247,0 0.200452,0 0.111362,0 0.222724,0 0.334087,0 0.02227,0 0.05107,0.0157 0.06682,0 0.01575,-0.0157 -0.01575,-0.0511 0,-0.0668 0.01575,-0.0157 0.04454,0 0.06682,0 0.0315,0 0.331058,0.003 0.334086,0 0.01575,-0.0157 -0.01575,-0.0511 0,-0.0668 0.01575,-0.0157 0.04454,0 0.06682,0 0.0315,0 0.331058,0.003 0.334087,0 0.01575,-0.0157 -0.01575,-0.0511 0,-0.0668 0.0021,-0.002 0.184247,0 0.200452,0 0.111362,0 0.222724,0 0.334087,0 0.02227,0 0.05107,0.0158 0.06682,0 0.01575,-0.0157 -0.01575,-0.0511 0,-0.0668 0.02069,-0.0207 0.313397,0.0207 0.334087,0 0.01575,-0.0157 -0.01575,-0.0511 0,-0.0668 0.0027,-0.003 0.242732,0 0.26727,0 0.02454,0 0.26458,0.003 0.267269,0 0.08909,-0.0891 -0.111362,-0.0668 0.06682,-0.0668 0.467721,0 0.935443,0 1.403165,0 0.02454,0 0.26458,0.003 0.267269,0 0.01575,-0.0157 -0.01575,-0.0511 0,-0.0668 0.01575,-0.0157 0.04455,0 0.06682,0 0.02227,0 0.04455,0 0.06682,0 0.378632,0 0.757264,0 1.135895,0 0.02227,0 0.04454,0 0.06682,0 0.02227,0 0.0469,0.01 0.06682,0 0.02817,-0.0141 0.03864,-0.0527 0.06682,-0.0668 0.02416,-0.0121 0.287612,0 0.334086,0 0.26727,0 0.534539,0 0.801809,0 0.155907,0 0.311814,0 0.467722,0 0.02227,0 0.05107,-0.0157 0.06682,0 0.01575,0.0157 -0.01575,0.0511 0,0.0668 0.01575,0.0157 0.04454,0 0.06682,0 0.04736,0 0.383629,-0.009 0.400905,0 0.02817,0.0141 0.03864,0.0527 0.06682,0.0668 0.01728,0.009 0.353544,0 0.400904,0 0.03494,0 0.249701,-0.009 0.26727,0 0.02817,0.0141 0.03865,0.0527 0.06682,0.0668 0.01728,0.009 0.353544,0 0.400905,0 0.02227,0 0.0469,-0.01 0.06682,0 0.02817,0.0141 0.03864,0.0527 0.06682,0.0668 0.01728,0.009 0.353544,0 0.400905,0 0.111362,0 0.222724,0 0.334087,0 0.02227,0 0.05107,-0.0157 0.06682,0 0.01575,0.0157 -0.01575,0.0511 0,0.0668 0.01575,0.0158 0.04454,0 0.06682,0 0.04648,0 0.309924,-0.0121 0.334087,0 0.02817,0.0141 0.03865,0.0527 0.06682,0.0668 0.02416,0.0121 0.287612,0 0.334087,0 0.244997,0 0.489994,0 0.734991,0 0.02227,0 0.04454,0 0.06682,0 0.02227,0 0.0469,-0.01 0.06682,0 0.02817,0.0141 0.03864,0.0527 0.06682,0.0668 0.02416,0.0121 0.287613,0 0.334087,0 0.222724,0 0.445449,0 0.668174,0 0.02227,0 0.04455,0 0.06682,0 0.02227,0 0.05107,-0.0157 0.06682,0 0.01575,0.0157 -0.01575,0.0511 0,0.0668 0.02069,0.0207 0.313398,-0.0207 0.334087,0 0.01575,0.0157 -0.01575,0.0511 0,0.0668 0.02345,0.0235 0.287934,-0.0231 0.334087,0 0.02817,0.0141 0.03865,0.0527 0.06682,0.0668 0.01727,0.009 0.353544,0 0.400904,0 0.02227,0 0.0469,-0.01 0.06682,0 0.02817,0.0141 0.03865,0.0527 0.06682,0.0668 0.01757,0.009 0.232329,0 0.267269,0 0.17818,0 0.35636,0 0.534539,0 0.311815,0 0.623629,0 0.935444,0 0.04736,0 0.383628,0.009 0.400904,0 0.02817,-0.0141 0.03865,-0.0527 0.06682,-0.0668 0.02033,-0.0102 0.170361,0 0.200452,0 0.17818,0 0.35636,0 0.53454,0 0.0162,0 0.198303,0.002 0.200452,0 0.01575,-0.0157 -0.01575,-0.0511 0,-0.0668 0.01575,-0.0157 0.04454,0 0.06682,0 0.155907,0 0.311815,0 0.467722,0 0.200452,0 0.400904,0 0.601356,0 0.02227,0 0.04454,0 0.06682,0 0.02227,0 0.05107,0.0157 0.06682,0 0.01575,-0.0157 -0.01575,-0.0511 0,-0.0668 0.0021,-0.002 0.184247,0 0.200452,0 0.133635,0 0.26727,0 0.400904,0 0.03009,0 0.180118,0.0102 0.200453,0 0.02817,-0.0141 0.03864,-0.0527 0.06682,-0.0668 0.02034,-0.0102 0.17036,0 0.200452,0 0.155907,0 0.311815,0 0.467722,0 0.06682,0 0.137063,0.0211 0.200452,0 0.02988,-0.01 0.03865,-0.0527 0.06682,-0.0668 0.01757,-0.009 0.23233,0 0.26727,0 0.04736,0 0.383628,0.009 0.400904,0 0.02817,-0.0141 0.03865,-0.0527 0.06682,-0.0668 0.02034,-0.0102 0.170361,0 0.200453,0 0.133634,0 0.267269,0 0.400904,0 0.03494,0 0.2497,0.009 0.267269,0 0.02817,-0.0141 0.03865,-0.0527 0.06682,-0.0668 0.02034,-0.0102 0.17036,0 0.200452,0 0.155907,0 0.311814,0 0.467722,0 0.02227,0 0.04454,0 0.06682,0 0.02227,0 0.05107,-0.0157 0.06682,0 0.01575,0.0157 -0.01575,0.0511 0,0.0668 0.02069,0.0207 0.313398,-0.0207 0.334087,0 0.01575,0.0158 -0.01575,0.0511 0,0.0668 0.03341,0.0334 0.167044,-0.0334 0.200452,0 0.01575,0.0157 -0.01575,0.0511 0,0.0668 0.01608,0.0161 0.251192,-0.0161 0.26727,0 0.01575,0.0157 -0.01575,0.0511 0,0.0668 0.003,0.003 0.302583,0 0.334087,0 0.02227,0 0.05107,-0.0157 0.06682,0 0.01575,0.0157 -0.01575,0.0511 0,0.0668 0.003,0.003 0.302583,0 0.334087,0 0.289542,0 0.579084,0 0.868626,0 0.04736,0 0.383629,0.009 0.400904,0 0.02817,-0.0141 0.03865,-0.0527 0.06682,-0.0668 0.01757,-0.009 0.232329,0 0.267269,0 0.08903,2e-5 0.178052,5e-5 0.267078,7e-5 0.02227,1e-5 0.05107,0.0157 0.06682,0 0.01575,-0.0157 -0.01575,-0.0511 0,-0.0668 0.01575,-0.0157 0.04454,0 0.06682,0 0.0162,0 0.198303,-0.002 0.200452,0 0.01575,0.0157 -0.01575,0.0511 0,0.0668 0.01575,0.0157 0.04454,0 0.06682,0 0.06682,0 0.133635,0 0.200451,0 0.02227,0 -0.06682,-0.0223 -0.06682,0 0,0.0223 0.04454,0 0.06682,0 0.0162,0 0.198304,0.002 0.200453,0 0.08909,-0.0891 -0.111363,-0.0668 0.06682,-0.0668 0.02227,0 0.04454,0 0.06682,0 0.02227,0 0.05107,0.0157 0.06682,0 0.01575,-0.0157 -0.01575,-0.0511 0,-0.0668 0.0315,-0.0315 0.102136,0.0315 0.133634,0 0.01575,-0.0157 -0.01575,-0.0511 0,-0.0668 0.0315,-0.0315 0.102137,0.0315 0.133635,0 0.01575,-0.0157 -0.01575,-0.0511 0,-0.0668 0.03341,-0.0334 0.167044,0.0334 0.200452,0 0.01575,-0.0157 -0.01575,-0.0511 0,-0.0668 0.0315,-0.0315 0.09379,0.0199 0.133635,0 0.02817,-0.0141 0.03865,-0.0527 0.06682,-0.0668 0.01992,-0.01 0.0469,0.01 0.06682,0 0.02817,-0.0141 0.03865,-0.0527 0.06682,-0.0668 0.01992,-0.01 0.05107,0.0157 0.06682,0 0.08909,-0.0891 -0.111363,-0.0668 0.06682,-0.0668 0.01575,-0.0157 -0.01575,-0.0511 0,-0.0668 0.01575,-0.0157 0.05107,0.0157 0.06682,0 0.0315,-0.0315 -0.0315,-0.10214 0,-0.13364 0.01575,-0.0157 0.05107,0.0157 0.06682,0 0.01575,-0.0157 -0.01575,-0.0511 0,-0.0668 0.01575,-0.0157 0.05107,0.0157 0.06682,0 0.01575,-0.0157 -0.01575,-0.0511 0,-0.0668 0.01575,-0.0157 0.05107,0.0157 0.06682,0 0.01575,-0.0157 -0.01575,-0.0511 0,-0.0668 0.03341,-0.0334 0.167043,0.0334 0.200452,0 0.01575,-0.0157 -0.01575,-0.0511 0,-0.0668 0.01575,-0.0157 0.04454,0 0.06682,0 0.02227,0 0.04454,0 0.06682,0 0.17818,0 -0.02227,0.0223 0.06682,-0.0668 0.0315,-0.0315 0.102137,0.0315 0.133635,0 0.01575,-0.0157 -0.01575,-0.0511 0,-0.0668 0.0315,-0.0315 0.102136,0.0315 0.133634,0 0.01575,-0.0157 -0.01575,-0.0511 0,-0.0668 0.0315,-0.0315 0.102137,0.0315 0.133635,0 0.0315,-0.0315 -0.0315,-0.10214 0,-0.13363 0.01575,-0.0157 0.05107,0.0157 0.06682,0 0.03981,-0.0398 -0.06669,-0.20046 0.06682,-0.20046 0.02227,0 -0.02227,0.0668 0,0.0668 0.02227,0 0,-0.0445 0,-0.0668 0,-0.0223 0.01575,-0.0511 0,-0.0668 -0.01575,-0.0157 -0.05107,0.0157 -0.06682,0 -0.01575,-0.0157 0.01575,-0.0511 0,-0.0668 -0.01575,-0.0157 -0.05107,0.0157 -0.06682,0 -0.01575,-0.0157 0.01575,-0.0511 0,-0.0668 -0.0315,-0.0315 -0.102137,0.0315 -0.133635,0 -0.01575,-0.0157 0.01575,-0.0511 0,-0.0668 -0.01575,-0.0157 -0.05107,0.0157 -0.06682,0 -0.01575,-0.0157 0.01575,-0.0511 0,-0.0668 -0.01575,-0.0157 -0.04455,0 -0.06682,0 -0.02227,0 -0.04455,0 -0.06682,0 -0.02227,0 -0.05107,0.0157 -0.06682,0 -0.01575,-0.0157 0,-0.0446 0,-0.0668 -0.112262,-0.0194 -0.224525,-0.0387 -0.336787,-0.0581 z"
       id="path5079"
       inkscape:connector-curvature="0"
       sodipodi:nodetypes="cc"
       inkscape:export-xdpi="96"
       inkscape:export-ydpi="96" />
    <ellipse
       style="opacity:1;fill:none;fill-opacity:1;stroke:#ffffff;stroke-width:0.79882991;stroke-miterlimit:4;stroke-dasharray:none;stroke-opacity:1"
       id="path4541"
       cx="-46.506165"
       cy="280.06796"
       rx="17.592251"
       ry="17.592253"
       inkscape:export-xdpi="96"
       inkscape:export-ydpi="96" />
    <g
       transform="matrix(0.22103217,0,0,-0.22148848,-61.455122,294.46715)"
       inkscape:label="ink_ext_XXXXXX"
       id="g4517"
       style="fill:#ffffff"
       inkscape:export-xdpi="96"
       inkscape:export-ydpi="96">
      <g
         transform="scale(0.1)"
         id="g4519"
         style="fill:#ffffff">
        <path
           inkscape:connector-curvature="0"
           id="path4521"
           style="fill:#ffffff;fill-opacity:1;fill-rule:nonzero;stroke:none"
           d="m 399.391,589.141 60.535,-37.051 c 10.207,0 15.363,4.199 15.363,12.644 0,5.422 -2.453,12.922 -7.226,22.59 L 334.332,838.516 37.9492,831.277 c -13.2851,-0.632 -19.8789,-7.539 -19.8789,-20.781 0,-3.023 4.1992,-7.223 12.6524,-12.644 L 92.168,760.801 27.1094,659.617 C 9.03906,630.703 0,606.887 0,588.234 0,571.328 6.00781,552.355 18.0703,531.309 L 219.574,179.816 c -4.844,22.262 -7.234,43.368 -7.234,63.25 0,35.5 11.113,70.481 33.437,104.817 l 153.614,241.258" />
        <path
           inkscape:connector-curvature="0"
           id="path4523"
           style="fill:#ffffff;fill-opacity:1;fill-rule:nonzero;stroke:none"
           d="m 477.094,794.238 166.261,257.522 c -62.082,141.54 -128.046,212.34 -197.89,212.34 -42.199,0 -70.481,-11.74 -84.934,-35.24 L 203.305,977.664 477.094,794.238" />
        <path
           inkscape:connector-curvature="0"
           id="path4525"
           style="fill:#ffffff;fill-opacity:1;fill-rule:nonzero;stroke:none"
           d="M 341.559,96.6797 H 662.328 V 430.109 H 353.305 c -37.95,-54.218 -61.766,-91 -71.387,-110.246 -15.684,-30.722 -23.496,-62.082 -23.496,-93.965 0,-86.164 27.695,-129.2183 83.137,-129.2183" />
        <path
           inkscape:connector-curvature="0"
           id="path4527"
           style="fill:#ffffff;fill-opacity:1;fill-rule:nonzero;stroke:none"
           d="m 1002.07,855.684 142.76,240.356 c 4.78,8.39 7.22,17.16 7.22,26.19 0,10.86 -3.61,16.28 -10.84,16.28 1.18,0 -3.61,-1.81 -14.45,-5.42 l -65.06,-29.83 -59.63,118.37 c -26.527,53 -79.527,79.52 -159.039,79.52 H 471.676 c 45.176,-13.87 75.898,-27.43 92.168,-40.66 37.949,-30.14 76.797,-86.75 116.543,-169.88 l 74.09,-155.415 -55.118,-26.203 c -5.418,-2.449 -8.132,-7.222 -8.132,-14.461 0,-9.035 5.691,-14.187 17.168,-15.359 l 293.675,-23.488" />
        <path
           inkscape:connector-curvature="0"
           id="path4529"
           style="fill:#ffffff;fill-opacity:1;fill-rule:nonzero;stroke:none"
           d="m 1144.83,146.379 207.82,377.703 c -30.72,-34.98 -64.15,-58.469 -100.29,-70.488 -28.92,-9.668 -70.22,-14.453 -123.79,-14.453 H 897.25 v 47.89 c 0,18.653 -4.52,28.008 -13.555,28.008 -6.648,0 -11.484,-2.441 -14.461,-7.226 L 722.855,253.906 874.664,20.7813 C 886.09,3.29297 896.031,-3.61328 904.477,0 c 8.398,2.39453 12.648,6.90234 12.648,13.5547 v 79.5117 h 128.305 c 47,0 80.1,17.7536 99.4,53.3126" />
        <path
           inkscape:connector-curvature="0"
           id="path4531"
           style="fill:#ffffff;fill-opacity:1;fill-rule:nonzero;stroke:none"
           d="m 1054.47,487.031 h 138.25 c 33.12,0 67.45,14.453 103.01,43.371 37.95,30.086 56.92,62.032 56.92,95.782 0,15.625 -5.15,30.984 -15.36,46.082 L 1172.85,923.445 890.016,758.992 1054.47,487.031" />
      </g>
    </g>
    <g
       id="g4562"
       transform="matrix(1.0552696,0,0,1.0568366,1.7567174,-21.029786)"
       style="stroke:#ffffff"
       inkscape:export-xdpi="96"
       inkscape:export-ydpi="96">
      <path
         inkscape:connector-curvature="0"
         id="path4543"
         d="m -59.766768,270.87309 28.063297,28.0633"
         style="fill:none;stroke:#ffffff;stroke-width:1.0583334;stroke-linecap:butt;stroke-linejoin:miter;stroke-miterlimit:4;stroke-dasharray:none;stroke-opacity:1" />
      <path
         inkscape:connector-curvature="0"
         id="path4543-3"
         d="m -31.70347,270.87309 -28.063298,28.0633"
         style="fill:none;stroke:#ffffff;stroke-width:1.0583334;stroke-linecap:butt;stroke-linejoin:miter;stroke-miterlimit:4;stroke-dasharray:none;stroke-opacity:1" />
    </g>
    <text
       xml:space="preserve"
       style="font-style:normal;font-variant:normal;font-weight:normal;font-stretch:normal;font-size:22.57777977px;line-height:1.25;font-family:'Book Antiqua';-inkscape-font-specification:'Book Antiqua';letter-spacing:0px;word-spacing:0px;fill:#ffffff;fill-opacity:1;stroke:none;stroke-width:0.26458335"
       x="-55.327332"
       y="301.49301"
       id="text4566"
       inkscape:export-xdpi="96"
       inkscape:export-ydpi="96"><tspan
         sodipodi:role="line"
         id="tspan4564"
         x="-55.327332"
         y="301.49301"
         style="font-size:63.5px;fill:#ffffff;stroke-width:0.26458335">!</tspan></text>
    <flowRoot
       xml:space="preserve"
       id="flowRoot4568"
       style="fill:black;fill-opacity:1;stroke:none;font-family:'Book Antiqua';font-style:normal;font-weight:normal;font-size:85.33333333px;line-height:1.25;letter-spacing:0px;word-spacing:0px;-inkscape-font-specification:'Book Antiqua';font-stretch:normal;font-variant:normal"><flowRegion
         id="flowRegion4570"><rect
           id="rect4572"
           width="357.83527"
           height="302.15381"
           x="-396.32098"
           y="-21.211557" /></flowRegion><flowPara
         id="flowPara4574"></flowPara></flowRoot>  </g>
</svg>
