<?xml version="1.0" encoding="UTF-8" standalone="no"?>
<!-- Created with Inkscape (http://www.inkscape.org/) -->

<svg
   xmlns:dc="http://purl.org/dc/elements/1.1/"
   xmlns:cc="http://creativecommons.org/ns#"
   xmlns:rdf="http://www.w3.org/1999/02/22-rdf-syntax-ns#"
   xmlns:svg="http://www.w3.org/2000/svg"
   xmlns="http://www.w3.org/2000/svg"
   xmlns:xlink="http://www.w3.org/1999/xlink"
   xmlns:sodipodi="http://sodipodi.sourceforge.net/DTD/sodipodi-0.dtd"
   xmlns:inkscape="http://www.inkscape.org/namespaces/inkscape"
   width="200"
   height="200"
   viewBox="0 0 52.916665 52.916668"
   version="1.1"
   id="svg106"
   inkscape:version="0.92.1 r15371"
   sodipodi:docname="Pilha.svg"
   inkscape:export-filename="C:\Users\jmark\OneDrive\Documentos\Projetos\JogoProjetoInteracao\Sprites_provisorios\Pilha.png"
   inkscape:export-xdpi="96"
   inkscape:export-ydpi="96">
  <defs
     id="defs100">
    <linearGradient
       inkscape:collect="always"
       id="linearGradient971">
      <stop
         style="stop-color:#000000;stop-opacity:1;"
         offset="0"
         id="stop967" />
      <stop
         id="stop975"
         offset="0.38957888"
         style="stop-color:#ffffff;stop-opacity:1" />
      <stop
         style="stop-color:#ffffff;stop-opacity:0.99607843"
         offset="0.86042094"
         id="stop977" />
      <stop
         style="stop-color:#000000;stop-opacity:0.99530518"
         offset="1"
         id="stop969" />
    </linearGradient>
    <linearGradient
       inkscape:collect="always"
       xlink:href="#linearGradient971"
       id="linearGradient973"
       x1="26.043838"
       y1="247.85943"
       x2="31.335505"
       y2="247.85943"
       gradientUnits="userSpaceOnUse"
       gradientTransform="translate(-16.783422,2.1770126)" />
    <linearGradient
       inkscape:collect="always"
       xlink:href="#linearGradient971"
       id="linearGradient985"
       x1="26.05397"
       y1="275.08832"
       x2="42.193554"
       y2="275.08832"
       gradientUnits="userSpaceOnUse"
       gradientTransform="translate(-22.217513,-0.57795)" />
  </defs>
  <sodipodi:namedview
     id="base"
     pagecolor="#ffffff"
     bordercolor="#666666"
     borderopacity="1.0"
     inkscape:pageopacity="0.0"
     inkscape:pageshadow="2"
     inkscape:zoom="3.2018679"
     inkscape:cx="63.877949"
     inkscape:cy="117.30972"
     inkscape:document-units="px"
     inkscape:current-layer="layer1"
     showgrid="false"
     units="px"
     inkscape:pagecheckerboard="true"
     inkscape:window-width="1920"
     inkscape:window-height="1001"
     inkscape:window-x="-9"
     inkscape:window-y="-9"
     inkscape:window-maximized="1" />
  <metadata
     id="metadata103">
    <rdf:RDF>
      <cc:Work
         rdf:about="">
        <dc:format>image/svg+xml</dc:format>
        <dc:type
           rdf:resource="http://purl.org/dc/dcmitype/StillImage" />
        <dc:title />
      </cc:Work>
    </rdf:RDF>
  </metadata>
  <g
     inkscape:label="Camada 1"
     inkscape:groupmode="layer"
     id="layer1"
     transform="translate(0,-244.08332)">
    <path
       style="fill:#000000;stroke:#000000;stroke-width:0.26458333;stroke-linecap:butt;stroke-linejoin:miter;stroke-opacity:1;stroke-miterlimit:4;stroke-dasharray:none;paint-order:stroke markers fill"
       d="m 3.96875,252.02082 v 44.97917 l 15.875,0 v -44.97917 z"
       id="path923"
       inkscape:connector-curvature="0"
       sodipodi:nodetypes="ccccc" />
    <path
       style="fill:#b7c8c4;stroke:#000000;stroke-width:0.26458333;stroke-linecap:butt;stroke-linejoin:miter;stroke-opacity:1;stroke-miterlimit:4;stroke-dasharray:none;paint-order:stroke markers fill"
       d="M 14.552083,252.02082 H 9.2604166 v -3.96875 h 5.2916664 z"
       id="path927"
       inkscape:connector-curvature="0"
       sodipodi:nodetypes="ccccc" />
    <path
       style="fill:#93aca7;stroke:none;stroke-width:0.26458332px;stroke-linecap:butt;stroke-linejoin:miter;stroke-opacity:1"
       d="M 11.465475,248.05207 H 9.2604166 v 3.96875 c -0.051266,-0.11672 0.1098787,-0.0804 0.1392073,-0.13903 0.00308,-0.006 -0.00487,-0.0158 0,-0.0207 0.00487,-0.005 0.015789,0.005 0.020659,0 0.00487,-0.005 -0.00487,-0.0158 0,-0.0207 0.00487,-0.005 0.015789,0.005 0.020658,0 0.00974,-0.01 -0.00974,-0.0316 0,-0.0413 0.00487,-0.005 0.015789,0.005 0.020658,0 0.00487,-0.005 -0.00308,-0.0145 0,-0.0207 0.00436,-0.009 0.016303,-0.012 0.020658,-0.0207 0.00308,-0.006 -0.00487,-0.0158 0,-0.0207 0.00487,-0.005 0.015789,0.005 0.020658,0 0.00487,-0.005 -0.00308,-0.0145 0,-0.0207 0.00436,-0.009 0.016303,-0.0119 0.020658,-0.0207 0.00308,-0.006 -0.00487,-0.0158 0,-0.0207 0.00487,-0.005 0.015789,0.005 0.020659,0 0.00487,-0.005 -0.00487,-0.0158 0,-0.0207 0.00487,-0.005 0.015789,0.005 0.020659,0 0.00974,-0.01 -0.00974,-0.0316 0,-0.0413 0.00487,-0.005 0.015789,0.005 0.020658,0 0.00974,-0.01 -0.00974,-0.0316 0,-0.0413 0.00487,-0.005 0.015789,0.005 0.020658,0 0.00487,-0.005 -0.00308,-0.0145 0,-0.0206 0.00436,-0.009 0.016303,-0.012 0.020659,-0.0207 0.00308,-0.006 -0.00487,-0.0158 0,-0.0207 0.00487,-0.005 0.015789,0.005 0.020658,0 0.00487,-0.005 -0.00487,-0.0158 0,-0.0207 0.00487,-0.005 0.015789,0.005 0.020658,0 0.00487,-0.005 -0.00308,-0.0145 0,-0.0207 0.00436,-0.009 0.016303,-0.0119 0.020658,-0.0207 0.00308,-0.006 -0.00308,-0.0145 0,-0.0207 0.00436,-0.009 0.016303,-0.0119 0.020659,-0.0206 0.00308,-0.006 -0.00487,-0.0158 0,-0.0207 0.00487,-0.005 0.015789,0.005 0.020658,0 0.00974,-0.01 -0.00974,-0.0316 0,-0.0413 0.00487,-0.005 0.015789,0.005 0.020658,0 0.00487,-0.005 -0.00308,-0.0145 0,-0.0207 0.00436,-0.009 0.016303,-0.0119 0.020658,-0.0207 0.00308,-0.006 -0.00308,-0.0145 0,-0.0207 0.00436,-0.009 0.016303,-0.0119 0.020658,-0.0206 0.00308,-0.006 -0.00487,-0.0158 0,-0.0207 0.00487,-0.005 0.015789,0.005 0.020659,0 0.00974,-0.01 -0.00974,-0.0316 0,-0.0413 0.00487,-0.005 0.015789,0.005 0.020658,0 0.013767,-0.0138 -0.013767,-0.0276 0,-0.0413 0.00487,-0.005 0.015789,0.005 0.020659,0 0.00487,-0.005 -0.00308,-0.0145 0,-0.0206 0.00436,-0.009 0.016303,-0.012 0.020658,-0.0207 0.00308,-0.006 -0.00487,-0.0158 0,-0.0207 0.00487,-0.005 0.015789,0.005 0.020659,0 0.00487,-0.005 -0.00308,-0.0145 0,-0.0207 0.00436,-0.009 0.016303,-0.012 0.020658,-0.0207 0.00308,-0.006 -0.00308,-0.0145 0,-0.0207 0.00871,-0.0174 0.032607,-0.0239 0.041317,-0.0413 0.00308,-0.006 -0.00487,-0.0158 0,-0.0207 0.00487,-0.005 0.015789,0.005 0.020658,0 0.00487,-0.005 -0.00308,-0.0145 0,-0.0207 0.00436,-0.009 0.016303,-0.0119 0.020659,-0.0207 0.00308,-0.006 -0.00487,-0.0158 0,-0.0207 0.00487,-0.005 0.015789,0.005 0.020658,0 0.0097,-0.01 -0.0097,-0.0316 0,-0.0413 0.0049,-0.005 0.01579,0.005 0.02066,0 0.0049,-0.005 -0.0031,-0.0145 0,-0.0206 0.0044,-0.009 0.0163,-0.012 0.02066,-0.0207 0.0031,-0.006 -0.0049,-0.0158 0,-0.0207 0.0049,-0.005 0.01579,0.005 0.02066,0 0.0097,-0.01 -0.0097,-0.0316 0,-0.0413 0.0049,-0.005 0.01579,0.005 0.02066,0 0.0049,-0.005 -0.0049,-0.0158 0,-0.0207 0.0049,-0.005 0.01579,0.005 0.02066,0 0.0049,-0.005 -0.0031,-0.0145 0,-0.0207 0.0044,-0.009 0.0163,-0.0119 0.02066,-0.0206 0.0031,-0.006 -0.0031,-0.0145 0,-0.0207 0.0044,-0.009 0.0163,-0.012 0.02066,-0.0207 0.0031,-0.006 -0.0049,-0.0158 0,-0.0207 0.0049,-0.005 0.01579,0.005 0.02066,0 0.0049,-0.005 -0.0031,-0.0145 0,-0.0207 0.0044,-0.009 0.0163,-0.012 0.02066,-0.0207 0.0031,-0.006 -0.0049,-0.0158 0,-0.0206 0.0049,-0.005 0.01579,0.005 0.02066,0 0.0049,-0.005 -0.0031,-0.0145 0,-0.0207 0.0044,-0.009 0.0163,-0.012 0.02066,-0.0207 0.0031,-0.006 -0.0049,-0.0158 0,-0.0207 0.0049,-0.005 0.01579,0.005 0.02066,0 0.0097,-0.01 -0.0097,-0.0316 0,-0.0413 0.0049,-0.005 0.01579,0.005 0.02066,0 0.0049,-0.005 0,-0.0138 0,-0.0207 0.0069,0 0.01579,0.005 0.02066,0 0.01377,-0.0138 -0.01377,-0.0275 0,-0.0413 0.0049,-0.005 0.01579,0.005 0.02066,0 0.0049,-0.005 -0.0031,-0.0145 0,-0.0207 0.0044,-0.009 0.0163,-0.012 0.02066,-0.0207 0.0031,-0.006 -0.0049,-0.0158 0,-0.0207 0.0049,-0.005 0.01579,0.005 0.02066,0 0.0097,-0.01 -0.0097,-0.0316 0,-0.0413 0.0049,-0.005 0.01579,0.005 0.02066,0 0.0049,-0.005 -0.0031,-0.0145 0,-0.0206 0.0044,-0.009 0.0163,-0.0119 0.02066,-0.0207 0.0031,-0.006 -0.0049,-0.0158 0,-0.0207 0.0049,-0.005 0.01579,0.005 0.02066,0 0.0049,-0.005 -0.0031,-0.0145 0,-0.0207 0.0044,-0.009 0.0163,-0.0119 0.02066,-0.0207 0.0031,-0.006 -0.0049,-0.0158 0,-0.0207 0.0049,-0.005 0.01579,0.005 0.02066,0 0.0049,-0.005 -0.0031,-0.0145 0,-0.0207 0.0044,-0.009 0.0163,-0.0119 0.02066,-0.0206 0.0031,-0.006 -0.0049,-0.0158 0,-0.0207 0.0049,-0.005 0.01579,0.005 0.02066,0 0.01235,-0.0123 -0.02233,-0.0413 0.02066,-0.0413 0.0069,0 -0.0031,0.0145 0,0.0207 0.0044,0.009 0.0163,0.0119 0.02066,0.0207 0.0031,0.006 -0.0031,0.0145 0,0.0207 0.02553,0.0511 0.02066,-0.007 0.02066,0.0413 0,0.0551 -0.0069,-0.007 0.02066,0.0207 0.0097,0.01 -0.0097,0.0316 0,0.0413 0.0049,0.005 0.01579,-0.005 0.02066,0 0.0097,0.01 -0.0097,0.0316 0,0.0413 0.0049,0.005 0.01579,-0.005 0.02066,0 0.0049,0.005 -0.0031,0.0145 0,0.0206 0.0044,0.009 0.0163,0.012 0.02066,0.0207 0.0031,0.006 0,0.0138 0,0.0207 0.0069,0.007 0.0163,0.012 0.02066,0.0207 0.0062,0.0123 -0.0097,0.0316 0,0.0413 0.05509,0 -0.0069,-0.007 0.02066,0.0207 0.0049,0.005 0.01579,-0.005 0.02066,0 0.0097,0.01 -0.0097,0.0316 0,0.0413 0.0049,0.005 0.01579,-0.005 0.02066,0 0.0049,0.005 -0.0031,0.0145 0,0.0207 0.0044,0.009 0.01195,0.0163 0.02066,0.0207 0.0042,0.002 0.05906,0.003 0.06198,0 0.0049,-0.005 -0.0049,-0.0158 0,-0.0207 0.0049,-0.005 0.0145,0.003 0.02066,0 0.08598,-0.043 -0.02209,0.001 0.02066,-0.0413 0.0049,-0.005 0.01579,0.005 0.02066,0 0.0049,-0.005 -0.0049,-0.0158 0,-0.0206 0.0049,-0.005 0.01579,0.005 0.02066,0 0.0097,-0.01 -0.0097,-0.0316 0,-0.0413 0.0049,-0.005 0.01579,0.005 0.02066,0 0.0097,-0.01 -0.0097,-0.0316 0,-0.0413 0.0049,-0.005 0.01579,0.005 0.02066,0 0.0097,-0.01 -0.0062,-0.029 0,-0.0413 0.0044,-0.009 0.0163,-0.0119 0.02066,-0.0206 0.0062,-0.0123 -0.0097,-0.0316 0,-0.0413 0.0049,-0.005 0.01579,0.005 0.02066,0 0.01033,-0.0103 -0.01033,-0.0517 0,-0.062 0.0049,-0.005 0.01579,0.005 0.02066,0 0.0097,-0.01 -0.0062,-0.029 0,-0.0413 0.0044,-0.009 0.0163,-0.0119 0.02066,-0.0207 0.0062,-0.0123 -0.0097,-0.0316 0,-0.0413 0.0049,-0.005 0.01579,0.005 0.02066,0 0.0042,-0.004 -0.0041,-0.0538 0,-0.062 0.0044,-0.009 0.0163,-0.0119 0.02066,-0.0207 0.0056,-0.0112 -0.0057,-0.077 0,-0.0826 0.0049,-0.005 0.01579,0.005 0.02066,0 9.36e-4,-9.3e-4 0,-0.0935 0,-0.10329 0,-0.007 -0.0049,-0.0158 0,-0.0207 0.0049,-0.005 0.01579,0.005 0.02066,0 0.0049,-0.005 0,-0.0138 0,-0.0207 0,-0.0413 0,-0.0826 0,-0.12395 0,-0.007 0,-0.0138 0,-0.0207 0,-0.007 -0.0049,-0.0158 0,-0.0207 0.0049,-0.005 0.01579,0.005 0.02066,0 0.0049,-0.005 0,-0.0138 0,-0.0207 0,-0.0413 0,-0.0826 0,-0.12395 0,-0.007 -0.0049,-0.0158 0,-0.0207 0.0049,-0.005 0.01579,0.005 0.02066,0 0.0049,-0.005 0,-0.0138 0,-0.0207 0,-0.0344 0,-0.0689 0,-0.10329 0,-0.007 -0.0049,-0.0158 0,-0.0207 0.0049,-0.005 0.01579,0.005 0.02066,0 0.0049,-0.005 0,-0.0138 0,-0.0207 0,-0.0344 0,-0.0689 0,-0.10329 0,-0.008 -8.31e-4,-0.0818 0,-0.0826 0.0049,-0.005 0.01579,0.005 0.02066,0 0.0049,-0.005 0,-0.0138 0,-0.0207 0,-0.007 0,-0.0138 0,-0.0206 0,-0.0413 0,-0.0826 0,-0.12396 0,-0.007 -0.0049,-0.0158 0,-0.0206 0.0049,-0.005 0.01579,0.005 0.02066,0 0.0049,-0.005 0,-0.0138 0,-0.0207 0,-0.0344 0,-0.0689 0,-0.1033 0,-0.007 -0.0049,-0.0158 0,-0.0206 0.0049,-0.005 0.01579,0.005 0.02066,0 9.36e-4,-9.4e-4 0,-0.0936 0,-0.1033 0,-0.007 -0.0049,-0.0158 0,-0.0207 0.0049,-0.005 0.01579,0.005 0.02066,0 0.0064,-0.006 -0.0064,-0.0969 0,-0.10329 0.0049,-0.005 0.01579,0.005 0.02066,0 0.01033,-0.0103 -0.01033,-0.0516 0,-0.062 0.0049,-0.005 0.01579,0.005 0.02066,0 0.005,-0.005 -0.005,-0.0777 0,-0.0826 0.0049,-0.005 0.01579,0.005 0.02066,0 0.01033,-0.0103 -0.01033,-0.0516 0,-0.062 0.0049,-0.005 0.01579,0.005 0.02066,0 0.0097,-0.01 -0.0062,-0.029 0,-0.0413 0.0044,-0.009 0.0163,-0.0119 0.02066,-0.0207 0.0062,-0.0123 -0.0097,-0.0316 0,-0.0413 0.0049,-0.005 0.01579,0.005 0.02066,0 0.0097,-0.01 -0.0097,-0.0316 0,-0.0413 0.0049,-0.005 0.01579,0.005 0.02066,0 0.0097,-0.01 -0.0097,-0.0316 0,-0.0413 0.02754,-0.0275 0.02066,0.0344 0.02066,-0.0207"
       id="path987"
       inkscape:connector-curvature="0" />
    <path
       style="fill:#93aca7;stroke:none;stroke-width:0.26458332px;stroke-linecap:butt;stroke-linejoin:miter;stroke-opacity:1"
       d="m 14.552083,248.05207 v 3.96875 h -1.723146 c -0.01022,-0.0653 0.100423,-0.0506 0.123951,-0.0977 0.0031,-0.006 -0.0049,-0.0158 0,-0.0207 0.0049,-0.005 0.01579,0.005 0.02066,0 0.0049,-0.005 -0.0031,-0.0145 0,-0.0207 0.0044,-0.009 0.0163,-0.0119 0.02066,-0.0207 0.0031,-0.006 -0.0049,-0.0158 0,-0.0207 0.0049,-0.005 0.01579,0.005 0.02066,0 0.0049,-0.005 -0.0031,-0.0145 0,-0.0207 0.0044,-0.009 0.0163,-0.0119 0.02066,-0.0207 0.0031,-0.006 -0.0049,-0.0158 0,-0.0207 0.0049,-0.005 0.01579,0.005 0.02066,0 0.01033,-0.0103 -0.01033,-0.0516 0,-0.062 0.0049,-0.005 0.01579,0.005 0.02066,0 0.0097,-0.01 -0.0097,-0.0316 0,-0.0413 0.0049,-0.005 0.01579,0.005 0.02066,0 0.01377,-0.0138 -0.01377,-0.0275 0,-0.0413 0.0049,-0.005 0.01579,0.005 0.02066,0 0.0097,-0.01 -0.0097,-0.0316 0,-0.0413 0.0049,-0.005 0.01579,0.005 0.02066,0 0.005,-0.005 -0.005,-0.0777 0,-0.0826 0.0049,-0.005 0.01579,0.005 0.02066,0 0.005,-0.005 -0.005,-0.0777 0,-0.0826 0.0049,-0.005 0.01579,0.005 0.02066,0 0.0049,-0.005 0,-0.0138 0,-0.0206 0,-0.0344 0,-0.0689 0,-0.1033 0,-0.007 -0.0049,-0.0158 0,-0.0207 0.0049,-0.005 0.01579,0.005 0.02066,0 0.0073,-0.007 -0.0071,-0.089 0,-0.10329 0.0044,-0.009 0.0163,-0.0119 0.02066,-0.0207 0.0065,-0.013 -0.0065,-0.0903 0,-0.10329 0.0044,-0.009 0.0163,-0.012 0.02066,-0.0207 0.0065,-0.013 -0.0065,-0.0696 0,-0.0826 0.0044,-0.009 0.0163,-0.0119 0.02066,-0.0207 0.0065,-0.013 -0.0065,-0.0696 0,-0.0826 0.0044,-0.009 0.0163,-0.012 0.02066,-0.0207 0.0083,-0.0165 -0.0083,-0.0455 0,-0.062 0.0044,-0.009 0.0163,-0.012 0.02066,-0.0207 0.0083,-0.0165 -0.0083,-0.0454 0,-0.062 0.0044,-0.009 0.0163,-0.012 0.02066,-0.0207 0.0062,-0.0123 -0.0062,-0.029 0,-0.0413 0.0044,-0.009 0.0163,-0.012 0.02066,-0.0207 0.0062,-0.0123 -0.0097,-0.0316 0,-0.0413 0.0049,-0.005 0.01579,0.005 0.02066,0 0.0097,-0.01 -0.0062,-0.029 0,-0.0413 0.0044,-0.009 0.0163,-0.0119 0.02066,-0.0207 0.0062,-0.0123 -0.0062,-0.029 0,-0.0413 0.0044,-0.009 0.0163,-0.0119 0.02066,-0.0206 0.0031,-0.006 -0.0031,-0.0145 0,-0.0207 0.0044,-0.009 0.0163,-0.012 0.02066,-0.0207 0.0062,-0.0123 -0.0097,-0.0316 0,-0.0413 0.0049,-0.005 0.01579,0.005 0.02066,0 0.01033,-0.0103 -0.01033,-0.0516 0,-0.062 0.0049,-0.005 0.01579,0.005 0.02066,0 0.0097,-0.01 -0.0062,-0.029 0,-0.0413 0.0044,-0.009 0.0163,-0.012 0.02066,-0.0207 0.0062,-0.0123 -0.0097,-0.0316 0,-0.0413 0.0049,-0.005 0.01579,0.005 0.02066,0 0.0097,-0.01 -0.0062,-0.029 0,-0.0413 0.0044,-0.009 0.0163,-0.0119 0.02066,-0.0207 0.0031,-0.006 -0.0031,-0.0145 0,-0.0207 0.0044,-0.009 0.0163,-0.012 0.02066,-0.0207 0.0062,-0.0123 -0.0097,-0.0316 0,-0.0413 0.0049,-0.005 0.01579,0.005 0.02066,0 0.01033,-0.0103 -0.01033,-0.0516 0,-0.062 0.0049,-0.005 0.01579,0.005 0.02066,0 0.0097,-0.01 -0.0097,-0.0316 0,-0.0413 0.0049,-0.005 0.01579,0.005 0.02066,0 0.01033,-0.0103 -0.01033,-0.0516 0,-0.062 0.0049,-0.005 0.01579,0.005 0.02066,0 0.01033,-0.0103 -0.01033,-0.0516 0,-0.062 0.0049,-0.005 0.01579,0.005 0.02066,0 0.0097,-0.01 -0.0097,-0.0316 0,-0.0413 0.0049,-0.005 0.01579,0.005 0.02066,0 0.01033,-0.0103 -0.01033,-0.0516 0,-0.062 0.0049,-0.005 0.01579,0.005 0.02066,0 0.01033,-0.0103 -0.01033,-0.0516 0,-0.062 0.0049,-0.005 0.01579,0.005 0.02066,0 0.0042,-0.004 -0.0041,-0.0538 0,-0.062 0.0044,-0.009 0.0163,-0.0119 0.02066,-0.0207 0.0031,-0.006 -0.0049,-0.0158 0,-0.0207 0.0049,-0.005 0.01579,-0.005 0.02066,0 0.0049,0.005 -0.0049,0.0158 0,0.0207 0.0097,0.01 0.03158,-0.01 0.04132,0 0.0049,0.005 -0.0049,0.0158 0,0.0207 0.0049,0.005 0.01579,-0.005 0.02066,0 0.0049,0.005 -0.0049,0.0158 0,0.0207 0.0049,0.005 0.01579,-0.005 0.02066,0 0.0049,0.005 -0.0049,0.0158 0,0.0207 0.0049,0.005 0.01579,-0.005 0.02066,0 0.0049,0.005 0,0.0138 0,0.0207 0.0069,0 0.0145,-0.003 0.02066,0 0.0054,0.003 0.02517,0.0368 0.04132,0.0207 0.0049,-0.005 -0.0049,-0.0158 0,-0.0207 0.0097,-0.01 0.03158,0.01 0.04132,0 0,-0.0551 -0.0069,0.007 0.02066,-0.0207 0.0049,-0.005 -0.0031,-0.0145 0,-0.0207 0.0044,-0.009 0.0163,-0.0119 0.02066,-0.0207 0.0031,-0.006 -0.0049,-0.0158 0,-0.0207 0.0049,-0.005 0.01579,0.005 0.02066,0 0.0097,-0.01 -0.0097,-0.0316 0,-0.0413 0.0049,-0.005 0.01579,0.005 0.02066,0 0.0097,-0.01 -0.0062,-0.029 0,-0.0413 0.0044,-0.009 0.0163,-0.0119 0.02066,-0.0206 0.0041,-0.008 -0.0042,-0.0578 0,-0.062 0.0049,-0.005 0.01579,0.005 0.02066,0 0.0042,-0.004 -0.0041,-0.0538 0,-0.062 0.0044,-0.009 0.0163,-0.0119 0.02066,-0.0206 0.0062,-0.0123 -0.0062,-0.029 0,-0.0413 0.0044,-0.009 0.0163,-0.0119 0.02066,-0.0207 0.0062,-0.0123 -0.0062,-0.029 0,-0.0413 0.0044,-0.009 0.0163,-0.0119 0.02066,-0.0207 0.0062,-0.0123 -0.0062,-0.029 0,-0.0413 0.0044,-0.009 0.0163,-0.0119 0.02066,-0.0207 0.0062,-0.0123 -0.0062,-0.029 0,-0.0413 0.0044,-0.009 0.0163,-0.012 0.02066,-0.0207 0.0041,-0.008 -0.0042,-0.0577 0,-0.062 0.0049,-0.005 0.01579,0.005 0.02066,0 0.005,-0.005 -0.005,-0.0777 0,-0.0826 0.0049,-0.005 0.01579,0.005 0.02066,0 0.01033,-0.0103 -0.01033,-0.0516 0,-0.062 0.0049,-0.005 0.01579,0.005 0.02066,0 0.005,-0.005 -0.005,-0.0777 0,-0.0826 0.0049,-0.005 0.01579,0.005 0.02066,0 0.0073,-0.007 -0.0071,-0.089 0,-0.10329 0.0044,-0.009 0.0163,-0.012 0.02066,-0.0207 0.0041,-0.008 -0.0042,-0.0577 0,-0.062 0.0049,-0.005 0.01579,0.005 0.02066,0 0.005,-0.005 -0.005,-0.0777 0,-0.0826 0.0049,-0.005 0.01579,0.005 0.02066,0 0.01033,-0.0103 -0.01033,-0.0516 0,-0.062 0.0049,-0.005 0.01579,0.005 0.02066,0 0.005,-0.005 -0.005,-0.0777 0,-0.0826 0.0049,-0.005 0.01579,0.005 0.02066,0 0.01033,-0.0103 -0.01033,-0.0516 0,-0.062 0.0049,-0.005 0.01579,0.005 0.02066,0 0.005,-0.005 -0.005,-0.0777 0,-0.0826 0.0049,-0.005 0.01579,0.005 0.02066,0 0.01033,-0.0103 -0.01033,-0.0516 0,-0.062 0.0049,-0.005 0.01579,0.005 0.02066,0 0.0097,-0.01 -0.0097,-0.0316 0,-0.0413 0.0097,-0.01 0.03158,0.01 0.04132,0 0.0049,-0.005 0,-0.0138 0,-0.0207 0.02349,-0.0164 0.04698,-0.0328 0.07047,-0.0492 z"
       id="path989"
       inkscape:connector-curvature="0" />
    <path
       style="fill:#ccff00;stroke:none;stroke-width:0.26458332px;stroke-linecap:butt;stroke-linejoin:miter;stroke-opacity:1"
       d="m 8.9283359,251.93819 10.9154141,0.0826 v 44.97917 l -8.340165,-22.42568 4.8595,3.55327 z"
       id="path991"
       inkscape:connector-curvature="0"
       sodipodi:nodetypes="cccccc" />
    <path
       style="fill:#ccff00;stroke:none;stroke-width:0.26458332px;stroke-linecap:butt;stroke-linejoin:miter;stroke-opacity:1"
       d="m 15.942499,296.99999 -11.973749,0 v -44.97917 l 2.96046,-0.0826 5.908872,21.36732 -4.3303351,-2.49494 z"
       id="path991-3"
       inkscape:connector-curvature="0"
       sodipodi:nodetypes="ccccccc" />
    <path
       style="fill:none;stroke:#000000;stroke-width:0.26458332;stroke-linecap:butt;stroke-linejoin:miter;stroke-miterlimit:4;stroke-dasharray:none;stroke-opacity:1;paint-order:stroke markers fill"
       d="m 3.96875,252.02082 v 44.97917 h 15.875001 v -44.97917 z"
       id="path923-97"
       inkscape:connector-curvature="0"
       sodipodi:nodetypes="ccccc" />
    <text
       xml:space="preserve"
       style="font-style:normal;font-variant:normal;font-weight:normal;font-stretch:normal;font-size:10.58333302px;line-height:1.25;font-family:moonhouse;-inkscape-font-specification:moonhouse;letter-spacing:0px;word-spacing:0px;writing-mode:tb-rl;text-orientation:sideways;fill:#552200;fill-opacity:1;stroke:#ff6600;stroke-width:0.26458332"
       x="-9.198245"
       y="-294.56696"
       id="text4508"
       transform="scale(-1)"><tspan
         sodipodi:role="line"
         id="tspan4506"
         x="-293.90588"
         y="-9.8593178"
         style="font-size:6.3499999px;writing-mode:tb-rl;text-orientation:sideways;fill:#552200;stroke:#ff6600;stroke-width:0.26458332">EletroPilha</tspan></text>
    <text
       xml:space="preserve"
       style="font-style:normal;font-variant:normal;font-weight:normal;font-stretch:normal;font-size:10.58333302px;line-height:1.25;font-family:Arial;-inkscape-font-specification:Arial;letter-spacing:0px;word-spacing:0px;writing-mode:tb-rl;fill:#000000;fill-opacity:1;stroke:none;stroke-width:0.26458332"
       x="-10.578376"
       y="-294.18628"
       id="text4512"
       transform="scale(-1)"><tspan
         sodipodi:role="line"
         id="tspan4510"
         x="-293.69046"
         y="-11.07418"
         style="font-size:2.11666656px;writing-mode:tb-rl;stroke-width:0.26458332">AA</tspan></text>
    <text
       xml:space="preserve"
       style="font-style:normal;font-variant:normal;font-weight:normal;font-stretch:normal;font-size:6.29891396px;line-height:1.25;font-family:Arial;-inkscape-font-specification:Arial;letter-spacing:0px;word-spacing:0px;fill:#000000;fill-opacity:1;stroke:none;stroke-width:0.15747285"
       x="10.71314"
       y="254.80539"
       id="text4521"><tspan
         sodipodi:role="line"
         x="10.71314"
         y="254.80539"
         style="stroke-width:0.15747285"
         id="tspan4523">-</tspan></text>
    <text
       xml:space="preserve"
       style="font-style:normal;font-variant:normal;font-weight:normal;font-stretch:normal;font-size:6.29891396px;line-height:1.25;font-family:Arial;-inkscape-font-specification:Arial;letter-spacing:0px;word-spacing:0px;writing-mode:tb-rl;fill:#000000;fill-opacity:1;stroke:none;stroke-width:0.15747285"
       x="11.844315"
       y="252.1004"
       id="text4529"><tspan
         sodipodi:role="line"
         id="tspan4527"
         x="251.68724"
         y="12.257485"
         style="writing-mode:tb-rl;stroke-width:0.15747285">-</tspan></text>
    <path
       style="opacity:0.25;fill:url(#linearGradient973);fill-opacity:1;stroke:none;stroke-width:0.26458332px;stroke-linecap:butt;stroke-linejoin:miter;stroke-opacity:1"
       d="M 14.552083,252.02082 H 9.260416 v -3.96875 h 5.291667 z"
       id="path927-9"
       inkscape:connector-curvature="0"
       sodipodi:nodetypes="ccccc" />
    <path
       style="fill:url(#linearGradient985);fill-opacity:1;stroke:none;stroke-width:0.26458332px;stroke-linecap:butt;stroke-linejoin:miter;stroke-opacity:1;opacity:0.25"
       d="m 3.96875,252.02079 v 44.97917 h 15.875 v -44.97917 z"
       id="path923-9"
       inkscape:connector-curvature="0"
       sodipodi:nodetypes="ccccc" />
    <path
       style="fill:none;stroke:#000000;stroke-width:0.26458332;stroke-linecap:butt;stroke-linejoin:miter;stroke-miterlimit:4;stroke-dasharray:none;stroke-opacity:1;paint-order:stroke markers fill"
       d="M 14.552083,252.02082 H 9.260417 v -3.96875 h 5.291666 z"
       id="path927-3"
       inkscape:connector-curvature="0"
       sodipodi:nodetypes="ccccc" />
  </g>
</svg>
