<?xml version="1.0" encoding="UTF-8" standalone="no"?>
<!-- Created with Inkscape (http://www.inkscape.org/) -->

<svg
   xmlns:dc="http://purl.org/dc/elements/1.1/"
   xmlns:cc="http://creativecommons.org/ns#"
   xmlns:rdf="http://www.w3.org/1999/02/22-rdf-syntax-ns#"
   xmlns:svg="http://www.w3.org/2000/svg"
   xmlns="http://www.w3.org/2000/svg"
   xmlns:xlink="http://www.w3.org/1999/xlink"
   xmlns:sodipodi="http://sodipodi.sourceforge.net/DTD/sodipodi-0.dtd"
   xmlns:inkscape="http://www.inkscape.org/namespaces/inkscape"
   width="200"
   height="200"
   viewBox="0 0 52.916665 52.916668"
   version="1.1"
   id="svg58"
   inkscape:version="0.92.1 r15371"
   sodipodi:docname="TetraPAK.svg">
  <defs
     id="defs52">
    <inkscape:path-effect
       effect="spiro"
       id="path-effect29"
       is_visible="true" />
    <inkscape:path-effect
       effect="spiro"
       id="path-effect3874"
       is_visible="true" />
    <inkscape:path-effect
       effect="spiro"
       id="path-effect3870"
       is_visible="true" />
    <inkscape:path-effect
       effect="spiro"
       id="path-effect3851"
       is_visible="true" />
    <inkscape:path-effect
       effect="spiro"
       id="path-effect3847"
       is_visible="true" />
  </defs>
  <sodipodi:namedview
     id="base"
     pagecolor="#ffffff"
     bordercolor="#666666"
     borderopacity="1.0"
     inkscape:pageopacity="0.0"
     inkscape:pageshadow="2"
     inkscape:zoom="3.959798"
     inkscape:cx="42.814724"
     inkscape:cy="102.66791"
     inkscape:document-units="px"
     inkscape:current-layer="layer1"
     showgrid="false"
     units="px"
     inkscape:pagecheckerboard="true"
     inkscape:snap-midpoints="true"
     inkscape:snap-object-midpoints="false"
     inkscape:snap-bbox="true"
     inkscape:snap-bbox-midpoints="false"
     inkscape:object-paths="false"
     inkscape:window-width="1920"
     inkscape:window-height="1001"
     inkscape:window-x="-9"
     inkscape:window-y="-9"
     inkscape:window-maximized="1" />
  <metadata
     id="metadata55">
    <rdf:RDF>
      <cc:Work
         rdf:about="">
        <dc:format>image/svg+xml</dc:format>
        <dc:type
           rdf:resource="http://purl.org/dc/dcmitype/StillImage" />
        <dc:title />
      </cc:Work>
    </rdf:RDF>
  </metadata>
  <g
     inkscape:label="Camada 1"
     inkscape:groupmode="layer"
     id="layer1"
     transform="translate(0,-244.08332)">
    <path
       style="fill:#ffffff;stroke:none;stroke-width:0.99999994px;stroke-linecap:butt;stroke-linejoin:miter;stroke-opacity:1"
       d="M 100.00195 64.640625 C 70.490727 77.06856 23.14061 159.65655 0 110 L 0 190 L 45 200 L 100 190 L 100.00195 64.640625 z "
       transform="matrix(0.26458333,0,0,0.26458333,0,244.08332)"
       id="path4551" />
    <path
       style="fill:#000000;stroke:none;stroke-width:0.26458332px;stroke-linecap:butt;stroke-linejoin:miter;stroke-opacity:1;fill-opacity:0.21399178"
       d="m 26.458333,292.13354 v 2.22061 L 11.90625,296.99999 0,294.35415 v -1.18117 c 2.5985863,-0.7402 6.8035714,-0.62996 11.90625,-2.50409 4.519965,-2.25211 11.638517,2.15761 14.552083,1.46465 z"
       id="path35"
       inkscape:connector-curvature="0"
       sodipodi:nodetypes="ccccccc" />
    <path
       style="fill:#0000ff;stroke:none;stroke-width:0.26458332px;stroke-linecap:butt;stroke-linejoin:miter;stroke-opacity:1"
       d="m 0,252.02082 5.8208333,-5.29167 14.5520837,-2.64583 3.042708,3.96875 3.042708,3.96875 0.0013,9.16505 C 18.651527,264.47259 6.1228919,286.32636 0,273.18748 Z"
       id="path4514"
       inkscape:connector-curvature="0"
       sodipodi:nodetypes="cccccccc" />
    <path
       style="fill:none;stroke:#000000;stroke-width:0.26458332px;stroke-linecap:butt;stroke-linejoin:miter;stroke-opacity:1"
       d="m 0,294.35415 11.90625,2.64584 14.552083,-2.64584 V 252.02082 L 20.372917,244.08332 5.8208333,246.72915 0,252.02082 Z"
       id="path62"
       inkscape:connector-curvature="0"
       sodipodi:nodetypes="cccccccc" />
    <path
       style="fill:none;stroke:#000000;stroke-width:0.26458332px;stroke-linecap:butt;stroke-linejoin:miter;stroke-opacity:1"
       d="m 0,252.02082 11.90625,2.64583 14.552083,-2.64583"
       id="path64"
       inkscape:connector-curvature="0"
       sodipodi:nodetypes="ccc" />
    <path
       style="fill:none;stroke:#000000;stroke-width:0.26458332px;stroke-linecap:butt;stroke-linejoin:miter;stroke-opacity:1"
       d="m 5.8208333,246.72915 6.0854167,7.9375"
       id="path66"
       inkscape:connector-curvature="0" />
    <path
       style="fill:none;stroke:#000000;stroke-width:0.26458332px;stroke-linecap:butt;stroke-linejoin:miter;stroke-opacity:1"
       d="m 0,252.02082 c 0,0 5.3676721,7.90325 6.085417,7.9375 0.7177449,0.0342 5.820833,-5.29167 5.820833,-5.29167"
       id="path66-8"
       inkscape:connector-curvature="0"
       sodipodi:nodetypes="czc" />
    <path
       style="fill:none;stroke:#000000;stroke-width:0.26458332px;stroke-linecap:butt;stroke-linejoin:miter;stroke-opacity:1"
       d="M 11.90625,296.99999 V 254.66665"
       id="path83"
       inkscape:connector-curvature="0" />
    <ellipse
       id="path85-9"
       cx="-74.571404"
       cy="255.35271"
       style="fill:#000000;fill-opacity:0.4921875;stroke:none;stroke-width:0.20022939"
       rx="1.5468664"
       ry="1.5281416"
       transform="matrix(0.98503426,-0.17235866,0.35440855,0.93509068,0,0)" />
    <path
       style="fill:none;stroke:#000000;stroke-width:0.17926508px;stroke-linecap:butt;stroke-linejoin:miter;stroke-opacity:1"
       d="m 15.990552,251.79645 v -0.60729"
       id="path83-1"
       inkscape:connector-curvature="0"
       sodipodi:nodetypes="cc" />
    <path
       id="path85-1"
       style="fill:#ffffff;stroke:#000000;stroke-width:0.19903928"
       transform="matrix(0.98471211,-0.17418972,0.35104386,0.93635902,0,0)"
       sodipodi:type="arc"
       sodipodi:cx="-73.126198"
       sodipodi:cy="255.09209"
       sodipodi:rx="1.530606"
       sodipodi:ry="1.5260717"
       sodipodi:start="0"
       sodipodi:end="3.1415927"
       d="m -71.595592,255.09209 a 1.530606,1.5260717 0 0 1 -0.765303,1.32161 1.530606,1.5260717 0 0 1 -1.530606,0 1.530606,1.5260717 0 0 1 -0.765303,-1.32161 l 1.530606,0 z" />
    <ellipse
       id="path85"
       cx="-73.95591"
       cy="254.97269"
       style="fill:#ffffff;stroke:#000000;stroke-width:0.20022939"
       rx="1.5468664"
       ry="1.5281416"
       transform="matrix(0.98503426,-0.17235866,0.35440856,0.93509068,0,0)" />
    <path
       style="fill:#000000;fill-opacity:0.62551439;stroke:none;stroke-width:0.22714764px;stroke-linecap:butt;stroke-linejoin:miter;stroke-opacity:1"
       d="m 5.7443759,247.8495 c 0.4530356,0.0102 4.5388331,4.97689 4.2263324,5.38218 -0.3317879,0.43028 -7.7933281,-1.17742 -8.0142926,-1.68719 0,0 3.3003433,-3.70596 3.7879602,-3.69499 z"
       id="path37"
       inkscape:connector-curvature="0"
       sodipodi:nodetypes="ssss" />
    <ellipse
       style="fill:#ffffff;stroke:none;stroke-width:0.11768773"
       id="path4554"
       cx="60.112709"
       cy="262.1752"
       rx="1.0970845"
       ry="0.97825634"
       transform="matrix(0.95209326,0.30580782,-0.19901757,0.97999592,0,0)" />
    <ellipse
       style="fill:#ffffff;stroke:none;stroke-width:0.07515074"
       id="path4554-2"
       cx="56.957272"
       cy="258.33252"
       rx="0.66610551"
       ry="0.65698254"
       transform="matrix(0.94054625,0.33966564,-0.17774353,0.98407684,0,0)" />
    <ellipse
       style="fill:#ffffff;stroke:none;stroke-width:0.09411505"
       id="path4554-2-7"
       cx="39.848568"
       cy="254.97081"
       rx="0.71067876"
       ry="0.96577299"
       transform="matrix(0.88155585,0.47207975,-0.12091289,0.99266312,0,0)" />
    <ellipse
       style="fill:#ffffff;stroke:none;stroke-width:0.06442756"
       id="path4554-2-3"
       cx="50.364376"
       cy="259.8443"
       rx="0.56813663"
       ry="0.56613618"
       transform="matrix(0.93922626,0.34329876,-0.17568173,0.98444702,0,0)" />
    <ellipse
       style="fill:#ffffff;stroke:none;stroke-width:0.07515074"
       id="path4554-2-8"
       cx="56.008709"
       cy="255.97127"
       rx="0.66610551"
       ry="0.65698248"
       transform="matrix(0.94054625,0.33966565,-0.17774353,0.98407685,0,0)" />
    <text
       xml:space="preserve"
       style="font-style:normal;font-weight:normal;font-size:10.58333302px;line-height:1.25;font-family:sans-serif;letter-spacing:0px;word-spacing:0px;fill:#ffffff;fill-opacity:1;stroke:none;stroke-width:0.26458332;"
       id="text4633"
       x="-32.978424"
       y="4.5357141"
       transform="translate(-33.642551,-4.2419902)"><textPath
         xlink:href="#path64-0"
         id="textPath4660"
         style="font-size:2.82222223px;stroke:none;fill:#ffffff;"><tspan
           dx="13.239998 -1.1799999 -0.45000002 -0.50000006 -0.25 -0.48000002"
           dy="0 -0.47999999 -0.28 -0.20999999 0.55000001"
           rotate="353.40009 0.20006713 5.9999986 11.100002 10.4 16.1 0"
           style="font-style:normal;font-variant:normal;font-weight:normal;font-stretch:normal;font-size:2.82222223px;font-family:'Segoe Script';-inkscape-font-specification:'Segoe Script';word-spacing:0px;stroke-width:0.26458332;stroke:none;fill:#ffffff;"
           id="tspan4631">Leites</tspan></textPath></text>
    <text
       xml:space="preserve"
       style="font-style:normal;font-weight:normal;font-size:10.58333302px;line-height:1.25;font-family:sans-serif;letter-spacing:0px;word-spacing:0px;fill:#ffffff;fill-opacity:1;stroke:none;stroke-width:0.26458332;"
       id="text4637"
       transform="matrix(0.85029877,0,0,0.85029877,-32.017278,13.318758)"><textPath
         xlink:href="#path64-6"
         id="textPath4678"
         style="font-style:normal;font-variant:normal;font-weight:normal;font-stretch:normal;font-size:3.52777767px;font-family:'Segoe Script';-inkscape-font-specification:'Segoe Script';stroke:none;fill:#ffffff;"
         dx="12.76">Mimosa</textPath></text>
    <path
       style="fill:none;stroke:none;stroke-width:0.26458332px;stroke-linecap:butt;stroke-linejoin:miter;stroke-opacity:1"
       d="m 37.044184,261.27884 11.906249,2.64583 14.552082,-2.64583"
       id="path64-0"
       inkscape:connector-curvature="0"
       sodipodi:nodetypes="ccc" />
    <path
       style="fill:none;stroke:none;stroke-width:0.26458332px;stroke-linecap:butt;stroke-linejoin:miter;stroke-opacity:1"
       d="m 40.634958,291.13896 11.90625,2.64583 14.552082,-2.64583"
       id="path64-6"
       inkscape:connector-curvature="0"
       sodipodi:nodetypes="ccc" />
    <path
       style="fill:none;stroke:#000000;stroke-width:0.21166667;stroke-linecap:butt;stroke-linejoin:miter;stroke-opacity:1;stroke-miterlimit:4;stroke-dasharray:none"
       d="m 5.0554315,258.96613 0.8976934,-5.6224"
       id="path4696"
       inkscape:connector-curvature="0" />
    <path
       style="fill:none;stroke:#000000;stroke-width:0.079375;stroke-linecap:butt;stroke-linejoin:miter;stroke-opacity:1;stroke-miterlimit:4;stroke-dasharray:none"
       d="m 5.5792512,259.51544 1.202713,-5.94675"
       id="path4698"
       inkscape:connector-curvature="0" />
    <path
       style="fill:#000000;stroke:none;stroke-width:0.26458332px;stroke-linecap:butt;stroke-linejoin:miter;stroke-opacity:1;fill-opacity:0.34979424"
       d="m 0,252.02082 5.5792512,7.49462 c -0.0246,-0.17897 -0.1634292,0.0686 -0.2338607,0.0334 -0.014086,-0.007 -0.019322,-0.0264 -0.033409,-0.0334 -0.019921,-0.01 -0.051068,0.0157 -0.066817,0 -0.00787,-0.008 0.00787,-0.0255 0,-0.0334 -0.016704,-0.0167 -0.083522,0.0167 -0.1002261,0 -0.00787,-0.008 0.00787,-0.0255 0,-0.0334 -0.015749,-0.0158 -0.051068,0.0157 -0.066817,0 -0.00787,-0.008 0.00787,-0.0255 0,-0.0334 -0.015749,-0.0158 -0.046896,0.01 -0.066817,0 -0.014086,-0.007 -0.019322,-0.0264 -0.033409,-0.0334 -0.00996,-0.005 -0.023448,0.005 -0.033409,0 -0.014086,-0.007 -0.019322,-0.0264 -0.033409,-0.0334 -0.019921,-0.01 -0.051068,0.0158 -0.066817,0 -0.00787,-0.008 0.00787,-0.0255 0,-0.0334 -0.00787,-0.008 -0.023448,0.005 -0.033409,0 -0.014086,-0.007 -0.019322,-0.0264 -0.033409,-0.0334 -0.00996,-0.005 -0.023448,0.005 -0.033409,0 -0.014086,-0.007 -0.019322,-0.0264 -0.033409,-0.0334 -0.013246,-0.007 -0.093396,0.007 -0.1002261,0 -0.00787,-0.008 0.00787,-0.0255 0,-0.0334 -0.016704,-0.0167 -0.083522,0.0167 -0.100226,0 -0.00787,-0.008 0.00787,-0.0255 0,-0.0334 -0.015749,-0.0158 -0.051068,0.0157 -0.066817,0 -0.00787,-0.008 0.00787,-0.0255 0,-0.0334 -0.015749,-0.0158 -0.051068,0.0157 -0.066817,0 -0.00787,-0.008 0.00787,-0.0255 0,-0.0334 -0.015749,-0.0158 -0.051068,0.0158 -0.066817,0 -0.00787,-0.008 0.00787,-0.0255 0,-0.0334 -0.00787,-0.008 -0.023448,0.005 -0.033409,0 -0.014086,-0.007 -0.019322,-0.0264 -0.033409,-0.0334 -0.00996,-0.005 -0.025534,0.008 -0.033409,0 -0.00787,-0.008 0.00787,-0.0255 0,-0.0334 -0.015749,-0.0158 -0.051068,0.0157 -0.066817,0 -0.00787,-0.008 0.00787,-0.0255 0,-0.0334 -0.015749,-0.0158 -0.051068,0.0157 -0.066817,0 -0.00787,-0.008 0.00787,-0.0255 0,-0.0334 -0.00787,-0.008 -0.025534,0.008 -0.033409,0 -0.00787,-0.008 0.00787,-0.0255 0,-0.0334 -0.00787,-0.008 -0.025534,0.008 -0.033409,0 -0.00787,-0.008 0.00787,-0.0255 0,-0.0334 -0.00787,-0.008 -0.025534,0.008 -0.033409,0 -0.00787,-0.008 0.00787,-0.0255 0,-0.0334 -0.00787,-0.008 -0.025534,0.008 -0.033409,0 -0.00787,-0.008 0.00787,-0.0255 0,-0.0334 -0.00787,-0.008 -0.025534,0.008 -0.033409,0 -0.00787,-0.008 0.00787,-0.0255 0,-0.0334 -0.00787,-0.008 -0.025534,0.008 -0.033409,0 -0.00787,-0.008 0.00787,-0.0255 0,-0.0334 -0.00787,-0.008 -0.025534,0.008 -0.033409,0 -0.00787,-0.008 0.00787,-0.0255 0,-0.0334 -0.00787,-0.008 -0.025534,0.008 -0.033409,0 -0.00787,-0.008 0.00787,-0.0255 0,-0.0334 -0.00787,-0.008 -0.025534,0.008 -0.033409,0 -0.00787,-0.008 0.00498,-0.0235 0,-0.0334 -0.00704,-0.0141 -0.026366,-0.0193 -0.033409,-0.0334 -0.00498,-0.01 0.00787,-0.0255 0,-0.0334 -0.00787,-0.008 -0.025534,0.008 -0.033409,0 -0.00787,-0.008 0.00787,-0.0255 0,-0.0334 -0.00787,-0.008 -0.025534,0.008 -0.033409,0 -0.00787,-0.008 0.00787,-0.0255 0,-0.0334 -0.00787,-0.008 -0.025534,0.008 -0.033409,0 -0.00787,-0.008 0.00787,-0.0255 0,-0.0334 -0.00787,-0.008 -0.025534,0.008 -0.033409,0 -0.00787,-0.008 0.00498,-0.0234 0,-0.0334 -0.00704,-0.0141 -0.026366,-0.0193 -0.033409,-0.0334 -0.00498,-0.01 0.00787,-0.0255 0,-0.0334 -0.00787,-0.008 -0.025534,0.008 -0.033409,0 -0.00787,-0.008 0.00787,-0.0255 0,-0.0334 -0.00787,-0.008 -0.025534,0.008 -0.033409,0 -0.00787,-0.008 0.00787,-0.0255 0,-0.0334 -0.00787,-0.008 -0.025534,0.008 -0.033409,0 -0.00787,-0.008 0.00498,-0.0235 0,-0.0334 -0.00704,-0.0141 -0.026365,-0.0193 -0.033409,-0.0334 -0.00498,-0.01 0.00787,-0.0255 0,-0.0334 -0.00787,-0.008 -0.025534,0.008 -0.033409,0 -0.00787,-0.008 0.00787,-0.0255 0,-0.0334 -0.00787,-0.008 -0.025534,0.008 -0.033409,0 -0.00787,-0.008 0.00787,-0.0255 0,-0.0334 -0.00787,-0.008 -0.025534,0.008 -0.033409,0 -0.00787,-0.008 0.00787,-0.0255 0,-0.0334 -0.00787,-0.008 -0.025534,0.008 -0.033409,0 -0.00787,-0.008 0.00787,-0.0255 0,-0.0334 -0.00787,-0.008 -0.025534,0.008 -0.033409,0 -0.00787,-0.008 0.00498,-0.0235 0,-0.0334 -0.00704,-0.0141 -0.026365,-0.0193 -0.033409,-0.0334 -0.00498,-0.01 0.00787,-0.0255 0,-0.0334 -0.00787,-0.008 -0.025534,0.008 -0.033409,0 0,-0.0891 0.011136,0.0111 -0.033409,-0.0334 -0.00787,-0.008 0.00787,-0.0255 0,-0.0334 -0.00787,-0.008 -0.025534,0.008 -0.033409,0 -0.00787,-0.008 0.00787,-0.0255 0,-0.0334 -0.00787,-0.008 -0.023448,0.005 -0.033409,0 -0.014086,-0.007 -0.019322,-0.0264 -0.033409,-0.0334 -0.00996,-0.005 -0.025534,0.008 -0.033409,0 -0.00787,-0.008 0.00787,-0.0255 0,-0.0334 -0.00787,-0.008 -0.025534,0.008 -0.033409,0 -0.00787,-0.008 0.00787,-0.0255 0,-0.0334 -0.00787,-0.008 -0.025534,0.008 -0.033409,0 -0.00787,-0.008 0.00498,-0.0234 0,-0.0334 -0.00704,-0.0141 -0.026366,-0.0193 -0.033409,-0.0334 -0.00498,-0.01 0.00787,-0.0255 0,-0.0334 -0.00787,-0.008 -0.025534,0.008 -0.033409,0 -0.015749,-0.0157 0.015749,-0.0511 0,-0.0668 -0.00787,-0.008 -0.025534,0.008 -0.033409,0 -0.015749,-0.0157 0.015749,-0.0511 0,-0.0668 -0.00787,-0.008 -0.025534,0.008 -0.033409,0 -0.00787,-0.008 0.00498,-0.0235 0,-0.0334 -0.00704,-0.0141 -0.026365,-0.0193 -0.033409,-0.0334 -0.00498,-0.01 0.00787,-0.0255 0,-0.0334 -0.00787,-0.008 -0.025534,0.008 -0.033409,0 -0.015749,-0.0157 0.00996,-0.0469 0,-0.0668 -0.00704,-0.0141 -0.026366,-0.0193 -0.033409,-0.0334 -0.00996,-0.0199 0.015749,-0.0511 0,-0.0668 -0.00787,-0.008 -0.025534,0.008 -0.033409,0 -0.015749,-0.0157 0.015749,-0.0511 0,-0.0668 -0.00787,-0.008 -0.025534,0.008 -0.033409,0 -0.00787,-0.008 0.00787,-0.0255 0,-0.0334 -0.00787,-0.008 -0.025534,0.008 -0.033409,0 -0.015749,-0.0157 0.015749,-0.0511 0,-0.0668 -0.00787,-0.008 -0.025534,0.008 -0.033409,0 -0.015749,-0.0157 0.015749,-0.0511 0,-0.0668 -0.00787,-0.008 -0.025534,0.008 -0.033409,0 -0.015749,-0.0157 0.015749,-0.0511 0,-0.0668 -0.00787,-0.008 -0.025534,0.008 -0.033409,0 -0.00787,-0.008 0.00787,-0.0255 0,-0.0334 -0.00787,-0.008 -0.025534,0.008 -0.033409,0 -0.00787,-0.008 0.00498,-0.0235 0,-0.0334 -0.00704,-0.0141 -0.026365,-0.0193 -0.033409,-0.0334 -0.00498,-0.01 0.00787,-0.0255 0,-0.0334 -0.00787,-0.008 -0.025534,0.008 -0.033409,0 -0.015749,-0.0157 0.015749,-0.0511 0,-0.0668 -0.00787,-0.008 -0.025534,0.008 -0.033409,0 -0.015749,-0.0157 0.015749,-0.0511 0,-0.0668 -0.00787,-0.008 -0.025534,0.008 -0.033409,0 -0.015749,-0.0158 0.015749,-0.0511 0,-0.0668 -0.00787,-0.008 -0.025534,0.008 -0.033409,0 -0.015749,-0.0158 0.00996,-0.0469 0,-0.0668 -0.00704,-0.0141 -0.026366,-0.0193 -0.033409,-0.0334 -0.00498,-0.01 0.00787,-0.0255 0,-0.0334 -0.00787,-0.008 -0.025534,0.008 -0.033409,0 -0.00787,-0.008 0.00787,-0.0255 0,-0.0334 -0.00787,-0.008 -0.025534,0.008 -0.033409,0 -0.00787,-0.008 0.00498,-0.0234 0,-0.0334 -0.00704,-0.0141 -0.026366,-0.0193 -0.033409,-0.0334 -0.00498,-0.01 0.00787,-0.0255 0,-0.0334 -0.00787,-0.008 -0.025534,0.008 -0.033409,0 -0.00787,-0.008 0.00787,-0.0255 0,-0.0334 -0.00787,-0.008 -0.025534,0.008 -0.033409,0 -0.00787,-0.008 0.00787,-0.0255 0,-0.0334 -0.00787,-0.008 -0.025534,0.008 -0.033409,0 -0.015749,-0.0158 0.015749,-0.0511 0,-0.0668 -0.00787,-0.008 -0.025534,0.008 -0.033409,0 -0.00787,-0.008 0.00787,-0.0255 0,-0.0334 -0.00787,-0.008 -0.025534,0.008 -0.033409,0 -0.00787,-0.008 0.00787,-0.0255 0,-0.0334 -0.00787,-0.008 -0.025534,0.008 -0.033409,0 -0.00787,-0.008 0.00787,-0.0255 0,-0.0334 -0.00787,-0.008 -0.025534,0.008 -0.033409,0 -0.00787,-0.008 0.00498,-0.0235 0,-0.0334 -0.00704,-0.0141 -0.026366,-0.0193 -0.033409,-0.0334 -0.00498,-0.01 0.00787,-0.0255 0,-0.0334 -0.00787,-0.008 -0.025534,0.008 -0.033409,0 -0.00787,-0.008 0.00498,-0.0235 0,-0.0334 -0.00704,-0.0141 -0.026366,-0.0193 -0.033409,-0.0334 -0.00498,-0.01 0.00787,-0.0255 0,-0.0334 -0.00787,-0.008 -0.025534,0.008 -0.033409,0 -0.015749,-0.0157 0.015749,-0.0511 0,-0.0668 -0.00787,-0.008 -0.025534,0.008 -0.033409,0 -0.00787,-0.008 0.00787,-0.0255 0,-0.0334 -0.00787,-0.008 -0.025534,0.008 -0.033409,0 -0.015749,-0.0158 0.015749,-0.0511 0,-0.0668 -0.00787,-0.008 -0.025534,0.008 -0.033409,0 -0.00787,-0.008 0.00787,-0.0255 0,-0.0334 -0.00787,-0.008 -0.025534,0.008 -0.033409,0 -0.015749,-0.0157 0.015749,-0.0511 0,-0.0668 -0.00787,-0.008 -0.025534,0.008 -0.033409,0 -0.00787,-0.008 0.00787,-0.0255 0,-0.0334 -0.00787,-0.008 -0.025534,0.008 -0.033409,0 -0.015749,-0.0157 0.015749,-0.0511 0,-0.0668 -0.00787,-0.008 -0.025534,0.008 -0.033409,0 -0.00787,-0.008 0.00787,-0.0255 0,-0.0334 -0.00787,-0.008 -0.025534,0.008 -0.033409,0 -0.015749,-0.0158 0.015749,-0.0511 0,-0.0668 -0.00787,-0.008 -0.025534,0.008 -0.033409,0 -0.015749,-0.0157 0.015749,-0.0511 0,-0.0668 -0.00787,-0.008 -0.025534,0.008 -0.033409,0 -0.016704,-0.0167 0.016704,-0.0835 0,-0.10023 -0.00787,-0.008 -0.025534,0.008 -0.033409,0 -0.016704,-0.0167 0.016704,-0.0835 0,-0.10023 -0.00787,-0.008 -0.025534,0.008 -0.033409,0 -0.015749,-0.0157 0.015749,-0.0511 0,-0.0668 -0.00787,-0.008 -0.025534,0.008 -0.033409,0 -0.015749,-0.0157 0.015749,-0.0511 0,-0.0668 -0.00787,-0.008 -0.025534,0.008 -0.033409,0 -0.00787,-0.008 0.00498,-0.0234 0,-0.0334 -0.00704,-0.0141 -0.026365,-0.0193 -0.033409,-0.0334 -0.00996,-0.0199 0.015749,-0.0511 0,-0.0668 -0.00787,-0.008 -0.025534,0.008 -0.033409,0 -0.015749,-0.0157 0.015749,-0.0511 0,-0.0668 -0.00787,-0.008 -0.025534,0.008 -0.033409,0 -0.015749,-0.0157 0.015749,-0.0511 0,-0.0668 -0.00787,-0.008 -0.025534,0.008 -0.033409,0 -0.015749,-0.0157 0.015749,-0.0511 0,-0.0668 -0.00787,-0.008 -0.025534,0.008 -0.033409,0 -0.015749,-0.0157 0.015749,-0.0511 0,-0.0668 -0.00787,-0.008 -0.025534,0.008 -0.033409,0 -0.015749,-0.0157 0.015749,-0.0511 0,-0.0668 -0.00787,-0.008 -0.025534,0.008 -0.033409,0 -0.015749,-0.0158 0.015749,-0.0511 0,-0.0668 -0.00787,-0.008 -0.025534,0.008 -0.033409,0 -0.015749,-0.0157 0.015749,-0.0511 0,-0.0668 -0.00787,-0.008 -0.025534,0.008 -0.033409,0 -0.015749,-0.0157 0.015749,-0.0511 0,-0.0668 -0.00787,-0.008 -0.025534,0.008 -0.033409,0 -0.015749,-0.0157 0.015749,-0.0511 0,-0.0668 -0.00787,-0.008 -0.025534,0.008 -0.033409,0 -0.015749,-0.0157 0.015749,-0.0511 0,-0.0668 -0.007874,-0.008 -0.0255342,0.008 -0.0334087,0 -0.0167043,-0.0167 0.0167044,-0.0835 0,-0.10023 -0.007875,-0.008 -0.0255342,0.008 -0.0334087,0 -0.008039,-0.008 0.008039,-0.12559 0,-0.13363 -0.007875,-0.008 -0.0255342,0.008 -0.0334087,0 -0.0167043,-0.0167 0.0167043,-0.0835 0,-0.10023 -0.007875,-0.008 -0.0255342,0.008 -0.0334087,0 -0.008039,-0.008 0.008039,-0.12559 0,-0.13363 -0.007875,-0.008 -0.0255342,0.008 -0.0334087,0 -0.0167043,-0.0167 0.0167044,-0.0835 0,-0.10023 -0.007875,-0.008 -0.0255342,0.008 -0.0334087,0 -0.0167044,-0.0167 0.0167044,-0.0835 0,-0.10022 -0.007875,-0.008 -0.0255342,0.008 -0.0334087,0 -0.015749,-0.0157 0.015749,-0.0511 0,-0.0668 -0.007875,-0.008 -0.0255342,0.008 -0.0334087,0 -0.0222807,-0.0223 0.0222807,-0.0445 0,-0.0668 -0.007875,-0.008 -0.0255342,0.008 -0.0334087,0 -0.015749,-0.0157 0.015749,-0.0511 0,-0.0668 -0.007875,-0.008 -0.0255342,0.008 -0.0334087,0 -0.0222807,-0.0223 0.0222807,-0.0445 0,-0.0668 -0.007875,-0.008 -0.0255342,0.008 -0.0334087,0 -0.015749,-0.0157 0.015749,-0.0511 0,-0.0668 -0.007875,-0.008 -0.0255342,0.008 -0.0334087,0 -0.015749,-0.0157 0.015749,-0.0511 0,-0.0668 -0.007875,-0.008 -0.0255342,0.008 -0.0334087,0 -0.015749,-0.0157 0.015749,-0.0511 0,-0.0668 -0.007875,-0.008 -0.0255342,0.008 -0.0334087,0 -0.007875,-0.008 0.007875,-0.0255 0,-0.0334 -0.007875,-0.008 -0.0255342,0.008 -0.0334087,0 -0.015749,-0.0157 0.015749,-0.0511 0,-0.0668 -0.007875,-0.008 -0.0255342,0.008 -0.0334087,0 -0.007874,-0.008 0.007875,-0.0255 0,-0.0334 -0.007874,-0.008 -0.0255342,0.008 -0.0334087,0 -0.015749,-0.0157 0.015749,-0.0511 0,-0.0668 -0.007875,-0.008 -0.0255342,0.008 -0.0334087,0 -0.015749,-0.0157 0.015749,-0.0511 0,-0.0668 -0.007875,-0.008 -0.0255342,0.008 -0.0334087,0 -0.0222807,-0.0223 0.0222807,-0.0445 0,-0.0668 -0.007874,-0.008 -0.0255342,0.008 -0.0334087,0 -0.015749,-0.0157 0.015749,-0.0511 0,-0.0668 -0.007875,-0.008 -0.0255342,0.008 -0.0334087,0 -0.007875,-0.008 -0.0111362,-0.0334 0,-0.0334 0.0111362,0 0,0.0445 0,0.0334 0,-0.0223 0.009961,-0.0469 0,-0.0668 -0.0445449,-0.0891 -0.0334087,0.10023 -0.0334087,-0.0334 z"
       id="path4700"
       inkscape:connector-curvature="0" />
  </g>
</svg>
